<?xml version="1.0" encoding="UTF-8" standalone="no"?>
<!DOCTYPE svg PUBLIC "-//W3C//DTD SVG 1.1//EN"
 "http://www.w3.org/Graphics/SVG/1.1/DTD/svg11.dtd">
<!-- Generated by graphviz version 2.49.0 (20210828.1703)
 -->
<!-- Pages: 1 -->
<svg width="1769pt" height="170pt"
 viewBox="0.00 0.00 1769.30 170.12" xmlns="http://www.w3.org/2000/svg" xmlns:xlink="http://www.w3.org/1999/xlink">
<g id="graph0" class="graph" transform="scale(1 1) rotate(0) translate(4 166.12)">
<polygon fill="white" stroke="transparent" points="-4,4 -4,-166.12 1765.3,-166.12 1765.3,4 -4,4"/>
<!-- &#45;1 -->
<g id="node1" class="node">
<title>&#45;1</title>
<polygon fill="lightgray" stroke="black" points="1024.62,-162.12 1000.62,-162.12 1000.62,-144.12 1024.62,-144.12 1024.62,-162.12"/>
<text text-anchor="middle" x="1012.62" y="-150.92" font-family="Times New Roman,serif" font-size="9.00">&#45;1</text>
</g>
<!-- 0 -->
<g id="node21" class="node">
<title>0</title>
<ellipse fill="lightblue" stroke="black" cx="1106.62" cy="-14.85" rx="14.7" ry="14.7"/>
<text text-anchor="middle" x="1106.62" y="-12.65" font-family="Times New Roman,serif" font-size="9.00">0</text>
</g>
<!-- &#45;1&#45;&gt;0 -->
<g id="edge59" class="edge">
<title>&#45;1&#45;&gt;0</title>
<path fill="none" stroke="red" stroke-width="0.42" d="M1024.78,-150.8C1040.11,-149.15 1067.31,-146.28 1090.62,-144.12 1139.25,-139.63 1495.54,-144.04 1528.62,-108.12 1541.4,-94.26 1541.15,-79.79 1528.62,-65.7 1502.1,-35.85 1218.59,-20.83 1131.76,-16.91"/>
<polygon fill="red" stroke="red" stroke-width="0.42" points="1131.66,-13.4 1121.51,-16.46 1131.35,-20.4 1131.66,-13.4"/>
</g>
<!-- 4 -->
<g id="node25" class="node">
<title>4</title>
<ellipse fill="lightblue" stroke="black" cx="858.62" cy="-14.85" rx="14.7" ry="14.7"/>
<text text-anchor="middle" x="858.62" y="-12.65" font-family="Times New Roman,serif" font-size="9.00">4</text>
</g>
<!-- &#45;1&#45;&gt;4 -->
<g id="edge144" class="edge">
<title>&#45;1&#45;&gt;4</title>
<path fill="none" stroke="red" stroke-width="0.39" d="M1024.73,-150.83C1089.2,-143.94 1389.47,-111.67 1392.62,-108.12 1405.17,-94.05 1405.34,-79.62 1392.62,-65.7 1362.91,-33.15 1041.5,-33.88 997.62,-29.7 957.77,-25.9 911.51,-21.24 883.69,-18.41"/>
<polygon fill="red" stroke="red" stroke-width="0.39" points="883.94,-14.92 873.64,-17.39 883.23,-21.88 883.94,-14.92"/>
</g>
<!-- 320 -->
<g id="node26" class="node">
<title>320</title>
<ellipse fill="white" stroke="black" cx="948.62" cy="-86.91" rx="21.43" ry="21.43"/>
<text text-anchor="middle" x="948.62" y="-84.71" font-family="Times New Roman,serif" font-size="9.00">320</text>
</g>
<!-- &#45;1&#45;&gt;320 -->
<g id="edge108" class="edge">
<title>&#45;1&#45;&gt;320</title>
<path fill="none" stroke="green" stroke-width="0.44" d="M1004.52,-143.99C996.02,-135.47 982.3,-121.7 970.58,-109.94"/>
<polygon fill="green" stroke="green" stroke-width="0.44" points="972.78,-107.19 963.24,-102.58 967.82,-112.13 972.78,-107.19"/>
</g>
<!-- 321 -->
<g id="node27" class="node">
<title>321</title>
<ellipse fill="white" stroke="black" cx="1106.62" cy="-86.91" rx="21.43" ry="21.43"/>
<text text-anchor="middle" x="1106.62" y="-84.71" font-family="Times New Roman,serif" font-size="9.00">321</text>
</g>
<!-- &#45;1&#45;&gt;321 -->
<g id="edge165" class="edge">
<title>&#45;1&#45;&gt;321</title>
<path fill="none" stroke="green" stroke-width="0.19" d="M1024.53,-143.99C1038.62,-134.36 1062.5,-118.05 1080.88,-105.49"/>
<polygon fill="green" stroke="green" stroke-width="0.19" points="1083.12,-108.21 1089.4,-99.68 1079.17,-102.43 1083.12,-108.21"/>
</g>
<!-- 322 -->
<g id="node28" class="node">
<title>322</title>
<ellipse fill="white" stroke="black" cx="670.62" cy="-86.91" rx="21.43" ry="21.43"/>
<text text-anchor="middle" x="670.62" y="-84.71" font-family="Times New Roman,serif" font-size="9.00">322</text>
</g>
<!-- &#45;1&#45;&gt;322 -->
<g id="edge105" class="edge">
<title>&#45;1&#45;&gt;322</title>
<path fill="none" stroke="red" stroke-width="0.44" d="M1000.61,-150.4C989.27,-148.78 971.79,-146.27 956.62,-144.12 842.86,-128 807.9,-149.28 700.62,-108.12 699.01,-107.51 697.4,-106.79 695.81,-106"/>
<polygon fill="red" stroke="red" stroke-width="0.44" points="697.42,-102.89 687.01,-100.89 693.9,-108.94 697.42,-102.89"/>
</g>
<!-- 323 -->
<g id="node29" class="node">
<title>323</title>
<ellipse fill="white" stroke="black" cx="1362.62" cy="-86.91" rx="21.43" ry="21.43"/>
<text text-anchor="middle" x="1362.62" y="-84.71" font-family="Times New Roman,serif" font-size="9.00">323</text>
</g>
<!-- &#45;1&#45;&gt;323 -->
<g id="edge16" class="edge">
<title>&#45;1&#45;&gt;323</title>
<path fill="none" stroke="green" stroke-width="0.35" d="M1024.63,-150.8C1079.29,-144.73 1303.22,-119.35 1332.62,-108.12 1334.24,-107.51 1335.85,-106.79 1337.44,-106"/>
<polygon fill="green" stroke="green" stroke-width="0.35" points="1339.35,-108.94 1346.24,-100.9 1335.83,-102.89 1339.35,-108.94"/>
</g>
<!-- 326 -->
<g id="node31" class="node">
<title>326</title>
<ellipse fill="white" stroke="black" cx="1498.62" cy="-86.91" rx="21.43" ry="21.43"/>
<text text-anchor="middle" x="1498.62" y="-84.71" font-family="Times New Roman,serif" font-size="9.00">326</text>
</g>
<!-- &#45;1&#45;&gt;326 -->
<g id="edge7" class="edge">
<title>&#45;1&#45;&gt;326</title>
<path fill="none" stroke="green" stroke-width="0.22" d="M1024.78,-150.86C1040.12,-149.26 1067.33,-146.44 1090.62,-144.12 1256.35,-127.63 1305.01,-158.93 1463.62,-108.12 1466.6,-107.17 1469.6,-105.94 1472.53,-104.55"/>
<polygon fill="green" stroke="green" stroke-width="0.22" points="1474.34,-107.55 1481.51,-99.75 1471.04,-101.38 1474.34,-107.55"/>
</g>
<!-- 327 -->
<g id="node32" class="node">
<title>327</title>
<ellipse fill="white" stroke="black" cx="828.62" cy="-86.91" rx="21.43" ry="21.43"/>
<text text-anchor="middle" x="828.62" y="-84.71" font-family="Times New Roman,serif" font-size="9.00">327</text>
</g>
<!-- &#45;1&#45;&gt;327 -->
<g id="edge153" class="edge">
<title>&#45;1&#45;&gt;327</title>
<path fill="none" stroke="green" stroke-width="0.62" d="M1000.58,-150.02C974.02,-145.11 908.79,-131.47 858.62,-108.12 857.06,-107.4 855.48,-106.59 853.92,-105.73"/>
<polygon fill="green" stroke="green" stroke-width="0.62" points="855.57,-102.64 845.21,-100.43 851.93,-108.62 855.57,-102.64"/>
</g>
<!-- 328 -->
<g id="node33" class="node">
<title>328</title>
<ellipse fill="white" stroke="black" cx="534.62" cy="-86.91" rx="21.43" ry="21.43"/>
<text text-anchor="middle" x="534.62" y="-84.71" font-family="Times New Roman,serif" font-size="9.00">328</text>
</g>
<!-- &#45;1&#45;&gt;328 -->
<g id="edge61" class="edge">
<title>&#45;1&#45;&gt;328</title>
<path fill="none" stroke="green" stroke-width="0.12" d="M1000.62,-150.31C989.29,-148.62 971.82,-146.08 956.62,-144.12 816.42,-126.13 780.37,-129.38 640.62,-108.12 615.11,-104.25 586.37,-98.69 565.26,-94.38"/>
<polygon fill="green" stroke="green" stroke-width="0.12" points="565.76,-90.91 555.26,-92.32 564.35,-97.77 565.76,-90.91"/>
</g>
<!-- 329 -->
<g id="node34" class="node">
<title>329</title>
<ellipse fill="white" stroke="black" cx="730.62" cy="-86.91" rx="21.43" ry="21.43"/>
<text text-anchor="middle" x="730.62" y="-84.71" font-family="Times New Roman,serif" font-size="9.00">329</text>
</g>
<!-- &#45;1&#45;&gt;329 -->
<g id="edge55" class="edge">
<title>&#45;1&#45;&gt;329</title>
<path fill="none" stroke="red" stroke-width="0.48" d="M1000.47,-150.01C967.7,-144.21 874.78,-127.23 798.62,-108.12 786.06,-104.97 772.34,-101 760.53,-97.41"/>
<polygon fill="red" stroke="red" stroke-width="0.48" points="761.32,-93.99 750.73,-94.38 759.26,-100.68 761.32,-93.99"/>
</g>
<!-- 330 -->
<g id="node35" class="node">
<title>330</title>
<ellipse fill="white" stroke="black" cx="888.62" cy="-86.91" rx="21.43" ry="21.43"/>
<text text-anchor="middle" x="888.62" y="-84.71" font-family="Times New Roman,serif" font-size="9.00">330</text>
</g>
<!-- &#45;1&#45;&gt;330 -->
<g id="edge140" class="edge">
<title>&#45;1&#45;&gt;330</title>
<path fill="none" stroke="red" stroke-width="1.02" d="M1000.45,-147.15C982.24,-139.54 947,-124.2 918.62,-108.12 917.12,-107.27 915.6,-106.37 914.07,-105.44"/>
<polygon fill="red" stroke="red" stroke-width="1.02" points="915.77,-102.38 905.47,-99.93 912,-108.27 915.77,-102.38"/>
</g>
<!-- 334 -->
<g id="node39" class="node">
<title>334</title>
<ellipse fill="white" stroke="black" cx="1046.62" cy="-86.91" rx="21.43" ry="21.43"/>
<text text-anchor="middle" x="1046.62" y="-84.71" font-family="Times New Roman,serif" font-size="9.00">334</text>
</g>
<!-- &#45;1&#45;&gt;334 -->
<g id="edge11" class="edge">
<title>&#45;1&#45;&gt;334</title>
<path fill="none" stroke="green" stroke-width="0.19" d="M1016.93,-143.99C1020.83,-136.63 1026.79,-125.37 1032.36,-114.86"/>
<polygon fill="green" stroke="green" stroke-width="0.19" points="1035.5,-116.41 1037.08,-105.93 1029.31,-113.13 1035.5,-116.41"/>
</g>
<!-- &#45;2 -->
<g id="node2" class="node">
<title>&#45;2</title>
<polygon fill="lightgray" stroke="black" points="682.62,-162.12 658.62,-162.12 658.62,-144.12 682.62,-144.12 682.62,-162.12"/>
<text text-anchor="middle" x="670.62" y="-150.92" font-family="Times New Roman,serif" font-size="9.00">&#45;2</text>
</g>
<!-- 1 -->
<g id="node22" class="node">
<title>1</title>
<ellipse fill="lightblue" stroke="black" cx="548.62" cy="-14.85" rx="14.7" ry="14.7"/>
<text text-anchor="middle" x="548.62" y="-12.65" font-family="Times New Roman,serif" font-size="9.00">1</text>
</g>
<!-- &#45;2&#45;&gt;1 -->
<g id="edge53" class="edge">
<title>&#45;2&#45;&gt;1</title>
<path fill="none" stroke="green" stroke-width="0.27" d="M658.61,-150.5C645.04,-148.72 622.28,-145.88 602.62,-144.12 536.87,-138.27 54.86,-156.19 9.62,-108.12 -3.3,-94.39 -3.08,-79.63 9.62,-65.7 44.64,-27.3 421.59,-18.04 523.4,-16.23"/>
<polygon fill="green" stroke="green" stroke-width="0.27" points="523.72,-19.73 533.66,-16.06 523.6,-12.73 523.72,-19.73"/>
</g>
<!-- 2 -->
<g id="node23" class="node">
<title>2</title>
<ellipse fill="lightblue" stroke="black" cx="754.62" cy="-14.85" rx="14.7" ry="14.7"/>
<text text-anchor="middle" x="754.62" y="-12.65" font-family="Times New Roman,serif" font-size="9.00">2</text>
</g>
<!-- &#45;2&#45;&gt;2 -->
<g id="edge150" class="edge">
<title>&#45;2&#45;&gt;2</title>
<path fill="none" stroke="red" stroke-width="0.58" d="M658.6,-150.63C645.01,-148.96 622.25,-146.21 602.62,-144.12 560.67,-139.66 253.01,-139.34 224.62,-108.12 211.94,-94.17 211.93,-79.64 224.62,-65.7 233.26,-56.21 626.03,-25.65 729.74,-17.74"/>
<polygon fill="red" stroke="red" stroke-width="0.58" points="730.18,-21.21 739.89,-16.96 729.65,-14.23 730.18,-21.21"/>
</g>
<!-- &#45;2&#45;&gt;322 -->
<g id="edge72" class="edge">
<title>&#45;2&#45;&gt;322</title>
<path fill="none" stroke="red" stroke-width="0.1" d="M670.62,-143.99C670.62,-137.45 670.62,-127.82 670.62,-118.38"/>
<polygon fill="red" stroke="red" stroke-width="0.1" points="674.12,-118.37 670.62,-108.37 667.12,-118.37 674.12,-118.37"/>
</g>
<!-- 324 -->
<g id="node30" class="node">
<title>324</title>
<ellipse fill="white" stroke="black" cx="1166.62" cy="-86.91" rx="21.43" ry="21.43"/>
<text text-anchor="middle" x="1166.62" y="-84.71" font-family="Times New Roman,serif" font-size="9.00">324</text>
</g>
<!-- &#45;2&#45;&gt;324 -->
<g id="edge132" class="edge">
<title>&#45;2&#45;&gt;324</title>
<path fill="none" stroke="green" stroke-width="0.59" d="M682.88,-146.79C685.71,-145.75 688.73,-144.78 691.62,-144.12 885.16,-100.37 949.35,-173.7 1136.62,-108.12 1138.29,-107.54 1139.96,-106.84 1141.6,-106.05"/>
<polygon fill="green" stroke="green" stroke-width="0.59" points="1143.69,-108.89 1150.62,-100.87 1140.21,-102.82 1143.69,-108.89"/>
</g>
<!-- &#45;2&#45;&gt;327 -->
<g id="edge50" class="edge">
<title>&#45;2&#45;&gt;327</title>
<path fill="none" stroke="green" stroke-width="0.12" d="M682.76,-147.19C707.55,-137.12 764.63,-113.92 799.58,-99.72"/>
<polygon fill="green" stroke="green" stroke-width="0.12" points="801.28,-102.8 809.23,-95.79 798.65,-96.32 801.28,-102.8"/>
</g>
<!-- &#45;2&#45;&gt;329 -->
<g id="edge22" class="edge">
<title>&#45;2&#45;&gt;329</title>
<path fill="none" stroke="green" stroke-width="1.09" d="M678.22,-143.99C686.09,-135.58 698.72,-122.05 709.61,-110.4"/>
<polygon fill="green" stroke="green" stroke-width="1.09" points="712.18,-112.77 716.45,-103.08 707.07,-108 712.18,-112.77"/>
</g>
<!-- 331 -->
<g id="node36" class="node">
<title>331</title>
<ellipse fill="white" stroke="black" cx="338.62" cy="-86.91" rx="21.43" ry="21.43"/>
<text text-anchor="middle" x="338.62" y="-84.71" font-family="Times New Roman,serif" font-size="9.00">331</text>
</g>
<!-- &#45;2&#45;&gt;331 -->
<g id="edge54" class="edge">
<title>&#45;2&#45;&gt;331</title>
<path fill="none" stroke="green" stroke-width="0.34" d="M658.46,-150.6C606.06,-143.98 401.06,-117.69 373.62,-108.12 370.67,-107.1 367.69,-105.81 364.77,-104.39"/>
<polygon fill="green" stroke="green" stroke-width="0.34" points="366.27,-101.23 355.81,-99.55 362.94,-107.39 366.27,-101.23"/>
</g>
<!-- 332 -->
<g id="node37" class="node">
<title>332</title>
<ellipse fill="white" stroke="black" cx="1302.62" cy="-86.91" rx="21.43" ry="21.43"/>
<text text-anchor="middle" x="1302.62" y="-84.71" font-family="Times New Roman,serif" font-size="9.00">332</text>
</g>
<!-- &#45;2&#45;&gt;332 -->
<g id="edge23" class="edge">
<title>&#45;2&#45;&gt;332</title>
<path fill="none" stroke="green" stroke-width="0.41" d="M682.88,-146.77C685.7,-145.73 688.73,-144.76 691.62,-144.12 911.33,-95.55 973.5,-137.25 1196.62,-108.12 1222.21,-104.79 1250.95,-99.19 1272.04,-94.73"/>
<polygon fill="green" stroke="green" stroke-width="0.41" points="1272.98,-98.11 1282.02,-92.58 1271.51,-91.26 1272.98,-98.11"/>
</g>
<!-- 333 -->
<g id="node38" class="node">
<title>333</title>
<ellipse fill="white" stroke="black" cx="474.62" cy="-86.91" rx="21.43" ry="21.43"/>
<text text-anchor="middle" x="474.62" y="-84.71" font-family="Times New Roman,serif" font-size="9.00">333</text>
</g>
<!-- &#45;2&#45;&gt;333 -->
<g id="edge6" class="edge">
<title>&#45;2&#45;&gt;333</title>
<path fill="none" stroke="red" stroke-width="0.53" d="M658.49,-150.33C630.41,-145.89 559.2,-132.89 504.62,-108.12 503.05,-107.41 501.47,-106.62 499.9,-105.77"/>
<polygon fill="red" stroke="red" stroke-width="0.53" points="501.55,-102.67 491.18,-100.49 497.92,-108.66 501.55,-102.67"/>
</g>
<!-- &#45;2&#45;&gt;334 -->
<g id="edge64" class="edge">
<title>&#45;2&#45;&gt;334</title>
<path fill="none" stroke="green" stroke-width="0.43" d="M682.9,-146.89C685.73,-145.84 688.75,-144.84 691.62,-144.12 816.36,-113.02 852.81,-134.53 978.62,-108.12 991.3,-105.46 1005.04,-101.58 1016.83,-97.92"/>
<polygon fill="green" stroke="green" stroke-width="0.43" points="1018.15,-101.18 1026.61,-94.8 1016.02,-94.51 1018.15,-101.18"/>
</g>
<!-- &#45;3 -->
<g id="node3" class="node">
<title>&#45;3</title>
<polygon fill="lightgray" stroke="black" points="947.62,-162.12 923.62,-162.12 923.62,-144.12 947.62,-144.12 947.62,-162.12"/>
<text text-anchor="middle" x="935.62" y="-150.92" font-family="Times New Roman,serif" font-size="9.00">&#45;3</text>
</g>
<!-- &#45;3&#45;&gt;0 -->
<g id="edge91" class="edge">
<title>&#45;3&#45;&gt;0</title>
<path fill="none" stroke="green" stroke-width="0.44" d="M948.06,-150.16C959.39,-148.41 976.6,-145.87 991.62,-144.12 1036.06,-138.96 1362.44,-141.14 1392.62,-108.12 1468.43,-25.21 1214.36,-16.49 1131.72,-15.82"/>
<polygon fill="green" stroke="green" stroke-width="0.44" points="1131.69,-12.32 1121.67,-15.77 1131.66,-19.32 1131.69,-12.32"/>
</g>
<!-- &#45;3&#45;&gt;1 -->
<g id="edge173" class="edge">
<title>&#45;3&#45;&gt;1</title>
<path fill="none" stroke="red" stroke-width="0.11" d="M923.37,-149.05C916.68,-147.44 908.23,-145.52 900.62,-144.12 785.87,-123.11 745.04,-160.15 640.62,-108.12 606.99,-91.37 578.27,-57.5 562.25,-35.79"/>
<polygon fill="red" stroke="red" stroke-width="0.11" points="565.04,-33.68 556.37,-27.58 559.35,-37.75 565.04,-33.68"/>
</g>
<!-- &#45;3&#45;&gt;2 -->
<g id="edge14" class="edge">
<title>&#45;3&#45;&gt;2</title>
<path fill="none" stroke="red" stroke-width="0.54" d="M923.56,-148.84C891.92,-140.15 808.36,-116.63 798.62,-108.12 777.93,-90.04 766.17,-60.07 760.11,-39.22"/>
<polygon fill="red" stroke="red" stroke-width="0.54" points="763.48,-38.28 757.51,-29.53 756.72,-40.09 763.48,-38.28"/>
</g>
<!-- 3 -->
<g id="node24" class="node">
<title>3</title>
<ellipse fill="lightblue" stroke="black" cx="1021.62" cy="-14.85" rx="14.7" ry="14.7"/>
<text text-anchor="middle" x="1021.62" y="-12.65" font-family="Times New Roman,serif" font-size="9.00">3</text>
</g>
<!-- &#45;3&#45;&gt;3 -->
<g id="edge74" class="edge">
<title>&#45;3&#45;&gt;3</title>
<path fill="none" stroke="green" stroke-width="0.22" d="M947.65,-150.31C998.38,-142.64 1192.5,-113 1196.62,-108.12 1208.8,-93.73 1207.99,-80.75 1196.62,-65.7 1191.98,-59.54 1092.58,-33.77 1045.7,-21.89"/>
<polygon fill="green" stroke="green" stroke-width="0.22" points="1046.32,-18.44 1035.77,-19.38 1044.61,-25.23 1046.32,-18.44"/>
</g>
<!-- &#45;3&#45;&gt;320 -->
<g id="edge84" class="edge">
<title>&#45;3&#45;&gt;320</title>
<path fill="none" stroke="red" stroke-width="0.43" d="M937.27,-143.99C938.63,-137.28 940.65,-127.32 942.6,-117.65"/>
<polygon fill="red" stroke="red" stroke-width="0.43" points="946.04,-118.32 944.59,-107.82 939.18,-116.93 946.04,-118.32"/>
</g>
<!-- &#45;3&#45;&gt;321 -->
<g id="edge79" class="edge">
<title>&#45;3&#45;&gt;321</title>
<path fill="none" stroke="red" stroke-width="0.35" d="M947.76,-149.59C972.73,-144.12 1031.32,-129.88 1076.62,-108.12 1078.18,-107.38 1079.75,-106.56 1081.31,-105.69"/>
<polygon fill="red" stroke="red" stroke-width="0.35" points="1083.31,-108.57 1090,-100.35 1079.65,-102.6 1083.31,-108.57"/>
</g>
<!-- &#45;3&#45;&gt;322 -->
<g id="edge117" class="edge">
<title>&#45;3&#45;&gt;322</title>
<path fill="none" stroke="red" stroke-width="0.4" d="M923.34,-149.17C916.65,-147.6 908.2,-145.67 900.62,-144.12 812.13,-126.06 784.31,-142.09 700.62,-108.12 699.02,-107.48 697.42,-106.73 695.83,-105.92"/>
<polygon fill="red" stroke="red" stroke-width="0.4" points="697.46,-102.82 687.06,-100.76 693.91,-108.85 697.46,-102.82"/>
</g>
<!-- &#45;3&#45;&gt;323 -->
<g id="edge176" class="edge">
<title>&#45;3&#45;&gt;323</title>
<path fill="none" stroke="green" stroke-width="0.19" d="M948.06,-150.21C959.4,-148.51 976.62,-145.99 991.62,-144.12 1142.86,-125.35 1189.42,-160.24 1332.62,-108.12 1334.25,-107.53 1335.87,-106.84 1337.47,-106.06"/>
<polygon fill="green" stroke="green" stroke-width="0.19" points="1339.35,-109.02 1346.28,-101 1335.86,-102.95 1339.35,-109.02"/>
</g>
<!-- &#45;3&#45;&gt;324 -->
<g id="edge149" class="edge">
<title>&#45;3&#45;&gt;324</title>
<path fill="none" stroke="red" stroke-width="0.59" d="M947.77,-150.08C985.73,-143.61 1101.65,-123.09 1136.62,-108.12 1138.21,-107.45 1139.8,-106.68 1141.38,-105.85"/>
<polygon fill="red" stroke="red" stroke-width="0.59" points="1143.34,-108.76 1150.13,-100.63 1139.75,-102.75 1143.34,-108.76"/>
</g>
<!-- &#45;3&#45;&gt;326 -->
<g id="edge21" class="edge">
<title>&#45;3&#45;&gt;326</title>
<path fill="none" stroke="red" stroke-width="0.29" d="M948.05,-150.11C959.38,-148.33 976.59,-145.77 991.62,-144.12 1200.76,-121.24 1262.63,-170.28 1463.62,-108.12 1466.61,-107.2 1469.62,-105.99 1472.55,-104.61"/>
<polygon fill="red" stroke="red" stroke-width="0.29" points="1474.35,-107.62 1481.53,-99.82 1471.06,-101.44 1474.35,-107.62"/>
</g>
<!-- &#45;3&#45;&gt;327 -->
<g id="edge5" class="edge">
<title>&#45;3&#45;&gt;327</title>
<path fill="none" stroke="green" stroke-width="0.24" d="M923.46,-145.54C908.14,-137.16 881.12,-122.1 858.62,-108.12 857.16,-107.21 855.66,-106.26 854.15,-105.3"/>
<polygon fill="green" stroke="green" stroke-width="0.24" points="855.89,-102.25 845.62,-99.68 852.04,-108.1 855.89,-102.25"/>
</g>
<!-- &#45;3&#45;&gt;328 -->
<g id="edge152" class="edge">
<title>&#45;3&#45;&gt;328</title>
<path fill="none" stroke="green" stroke-width="0.14" d="M923.38,-149C916.69,-147.38 908.24,-145.46 900.62,-144.12 771.39,-121.48 736.31,-133.7 607.62,-108.12 593.27,-105.27 577.61,-101.08 564.48,-97.25"/>
<polygon fill="green" stroke="green" stroke-width="0.14" points="565.16,-93.8 554.57,-94.3 563.15,-100.51 565.16,-93.8"/>
</g>
<!-- &#45;3&#45;&gt;329 -->
<g id="edge95" class="edge">
<title>&#45;3&#45;&gt;329</title>
<path fill="none" stroke="red" stroke-width="0.19" d="M923.61,-149.21C887.35,-140.4 780.58,-114.25 765.62,-108.12 762.73,-106.94 759.78,-105.56 756.89,-104.08"/>
<polygon fill="red" stroke="red" stroke-width="0.19" points="758.4,-100.92 747.96,-99.16 755.03,-107.05 758.4,-100.92"/>
</g>
<!-- &#45;3&#45;&gt;330 -->
<g id="edge63" class="edge">
<title>&#45;3&#45;&gt;330</title>
<path fill="none" stroke="green" stroke-width="0.45" d="M929.67,-143.99C923.92,-136.14 914.92,-123.84 906.81,-112.76"/>
<polygon fill="green" stroke="green" stroke-width="0.45" points="909.58,-110.62 900.85,-104.62 903.93,-114.75 909.58,-110.62"/>
</g>
<!-- &#45;3&#45;&gt;331 -->
<g id="edge40" class="edge">
<title>&#45;3&#45;&gt;331</title>
<path fill="none" stroke="green" stroke-width="0.16" d="M923.4,-148.87C916.71,-147.21 908.26,-145.29 900.62,-144.12 699.66,-113.39 646.11,-135.21 444.62,-108.12 419.05,-104.69 390.31,-99.1 369.22,-94.67"/>
<polygon fill="green" stroke="green" stroke-width="0.16" points="369.74,-91.2 359.23,-92.54 368.28,-98.05 369.74,-91.2"/>
</g>
<!-- &#45;3&#45;&gt;332 -->
<g id="edge73" class="edge">
<title>&#45;3&#45;&gt;332</title>
<path fill="none" stroke="red" stroke-width="0.17" d="M947.63,-150.37C958.97,-148.72 976.44,-146.2 991.62,-144.12 1114.19,-127.38 1150.46,-147.83 1267.62,-108.12 1270.59,-107.12 1273.58,-105.85 1276.5,-104.45"/>
<polygon fill="red" stroke="red" stroke-width="0.17" points="1278.32,-107.44 1285.46,-99.62 1275,-101.28 1278.32,-107.44"/>
</g>
<!-- &#45;3&#45;&gt;333 -->
<g id="edge98" class="edge">
<title>&#45;3&#45;&gt;333</title>
<path fill="none" stroke="green" stroke-width="0.77" stroke-dasharray="1,5" d="M923.39,-148.91C916.71,-147.25 908.26,-145.34 900.62,-144.12 726.09,-116.37 671.13,-167.36 504.62,-108.12 502.96,-107.53 501.29,-106.82 499.65,-106.03"/>
<polygon fill="green" stroke="green" stroke-width="0.77" points="501.05,-102.8 490.64,-100.84 497.55,-108.87 501.05,-102.8"/>
</g>
<!-- &#45;3&#45;&gt;334 -->
<g id="edge147" class="edge">
<title>&#45;3&#45;&gt;334</title>
<path fill="none" stroke="green" stroke-width="0.15" d="M947.93,-145.01C965.09,-135.08 996.68,-116.8 1019.51,-103.6"/>
<polygon fill="green" stroke="green" stroke-width="0.15" points="1021.48,-106.5 1028.39,-98.46 1017.98,-100.44 1021.48,-106.5"/>
</g>
<!-- &#45;4 -->
<g id="node4" class="node">
<title>&#45;4</title>
<polygon fill="lightgray" stroke="black" points="724.62,-162.12 700.62,-162.12 700.62,-144.12 724.62,-144.12 724.62,-162.12"/>
<text text-anchor="middle" x="712.62" y="-150.92" font-family="Times New Roman,serif" font-size="9.00">&#45;4</text>
</g>
<!-- &#45;4&#45;&gt;1 -->
<g id="edge87" class="edge">
<title>&#45;4&#45;&gt;1</title>
<path fill="none" stroke="green" stroke-width="0.19" d="M700.37,-146.78C697.54,-145.74 694.52,-144.77 691.62,-144.12 640.84,-132.74 259.98,-146.31 224.62,-108.12 211.81,-94.29 212.35,-80.01 224.62,-65.7 263.32,-20.6 454.48,-15.91 523.62,-15.71"/>
<polygon fill="green" stroke="green" stroke-width="0.19" points="523.62,-19.21 533.62,-15.71 523.62,-12.21 523.62,-19.21"/>
</g>
<!-- &#45;4&#45;&gt;2 -->
<g id="edge161" class="edge">
<title>&#45;4&#45;&gt;2</title>
<path fill="none" stroke="green" stroke-width="0.31" d="M700.37,-146.79C697.54,-145.75 694.52,-144.78 691.62,-144.12 642.26,-133.01 271.96,-145.29 237.62,-108.12 224.83,-94.27 224.95,-79.66 237.62,-65.7 246.02,-56.45 627.52,-25.84 729.68,-17.8"/>
<polygon fill="green" stroke="green" stroke-width="0.31" points="730.01,-21.28 739.71,-17.01 729.46,-14.31 730.01,-21.28"/>
</g>
<!-- &#45;4&#45;&gt;3 -->
<g id="edge78" class="edge">
<title>&#45;4&#45;&gt;3</title>
<path fill="none" stroke="green" stroke-width="0.24" d="M700.36,-146.82C697.54,-145.78 694.51,-144.8 691.62,-144.12 608.37,-124.73 366.17,-171.34 308.62,-108.12 295.93,-94.18 295.71,-79.44 308.62,-65.7 352.37,-19.12 818.93,-34.87 882.62,-29.7 922.53,-26.46 968.77,-21.64 996.58,-18.62"/>
<polygon fill="green" stroke="green" stroke-width="0.24" points="997.06,-22.09 1006.62,-17.53 996.3,-15.13 997.06,-22.09"/>
</g>
<!-- &#45;4&#45;&gt;320 -->
<g id="edge81" class="edge">
<title>&#45;4&#45;&gt;320</title>
<path fill="none" stroke="green" stroke-width="0.22" d="M724.72,-151.16C757.26,-148.22 848.95,-137.72 918.62,-108.12 920.21,-107.45 921.81,-106.69 923.39,-105.86"/>
<polygon fill="green" stroke="green" stroke-width="0.22" points="925.34,-108.77 932.14,-100.65 921.76,-102.76 925.34,-108.77"/>
</g>
<!-- &#45;4&#45;&gt;322 -->
<g id="edge69" class="edge">
<title>&#45;4&#45;&gt;322</title>
<path fill="none" stroke="green" stroke-width="0.29" d="M707.3,-143.99C702.29,-136.32 694.5,-124.41 687.39,-113.54"/>
<polygon fill="green" stroke="green" stroke-width="0.29" points="690.3,-111.59 681.89,-105.14 684.44,-115.43 690.3,-111.59"/>
</g>
<!-- &#45;4&#45;&gt;323 -->
<g id="edge123" class="edge">
<title>&#45;4&#45;&gt;323</title>
<path fill="none" stroke="red" stroke-width="0.3" d="M724.92,-151.03C743.02,-149.43 777.92,-146.39 807.62,-144.12 924.22,-135.22 1222.02,-146.09 1332.62,-108.12 1334.3,-107.55 1335.97,-106.86 1337.61,-106.08"/>
<polygon fill="red" stroke="red" stroke-width="0.3" points="1339.7,-108.92 1346.64,-100.91 1336.22,-102.84 1339.7,-108.92"/>
</g>
<!-- &#45;4&#45;&gt;326 -->
<g id="edge101" class="edge">
<title>&#45;4&#45;&gt;326</title>
<path fill="none" stroke="green" stroke-width="0.49" d="M724.91,-151C743.01,-149.37 777.91,-146.29 807.62,-144.12 1067.43,-125.19 1134.16,-140.59 1392.62,-108.12 1418.23,-104.91 1446.96,-99.3 1468.05,-94.81"/>
<polygon fill="green" stroke="green" stroke-width="0.49" points="1469,-98.18 1478.03,-92.64 1467.52,-91.34 1469,-98.18"/>
</g>
<!-- &#45;4&#45;&gt;328 -->
<g id="edge25" class="edge">
<title>&#45;4&#45;&gt;328</title>
<path fill="none" stroke="green" stroke-width="0.27" d="M700.24,-147.23C697.43,-146.16 694.43,-145.07 691.62,-144.12 638.06,-126.05 621.58,-130.42 569.62,-108.12 566.9,-106.96 564.13,-105.63 561.39,-104.22"/>
<polygon fill="green" stroke="green" stroke-width="0.27" points="562.82,-101 552.37,-99.25 559.44,-107.14 562.82,-101"/>
</g>
<!-- &#45;4&#45;&gt;329 -->
<g id="edge36" class="edge">
<title>&#45;4&#45;&gt;329</title>
<path fill="none" stroke="red" stroke-width="0.22" d="M714.9,-143.99C716.8,-137.23 719.62,-127.17 722.35,-117.43"/>
<polygon fill="red" stroke="red" stroke-width="0.22" points="725.79,-118.12 725.12,-107.55 719.05,-116.23 725.79,-118.12"/>
</g>
<!-- &#45;4&#45;&gt;330 -->
<g id="edge99" class="edge">
<title>&#45;4&#45;&gt;330</title>
<path fill="none" stroke="red" stroke-width="0.49" d="M724.81,-149.75C750.45,-144.48 811.5,-130.47 858.62,-108.12 860.18,-107.38 861.76,-106.57 863.32,-105.71"/>
<polygon fill="red" stroke="red" stroke-width="0.49" points="865.31,-108.59 872.02,-100.38 861.66,-102.62 865.31,-108.59"/>
</g>
<!-- &#45;4&#45;&gt;331 -->
<g id="edge30" class="edge">
<title>&#45;4&#45;&gt;331</title>
<path fill="none" stroke="red" stroke-width="0.18" d="M700.35,-146.86C697.53,-145.81 694.51,-144.82 691.62,-144.12 553.41,-110.54 508.72,-152.63 373.62,-108.12 370.65,-107.15 367.66,-105.9 364.73,-104.5"/>
<polygon fill="red" stroke="red" stroke-width="0.18" points="366.23,-101.33 355.76,-99.68 362.92,-107.5 366.23,-101.33"/>
</g>
<!-- &#45;4&#45;&gt;333 -->
<g id="edge12" class="edge">
<title>&#45;4&#45;&gt;333</title>
<path fill="none" stroke="red" stroke-width="0.27" d="M700.31,-147.02C697.49,-145.97 694.48,-144.94 691.62,-144.12 610.22,-120.97 582.86,-140.42 504.62,-108.12 503.03,-107.47 501.43,-106.72 499.84,-105.9"/>
<polygon fill="red" stroke="red" stroke-width="0.27" points="501.47,-102.8 491.08,-100.72 497.91,-108.82 501.47,-102.8"/>
</g>
<!-- &#45;4&#45;&gt;334 -->
<g id="edge177" class="edge">
<title>&#45;4&#45;&gt;334</title>
<path fill="none" stroke="green" stroke-width="0.18" d="M724.66,-150.68C762.4,-146.03 881.7,-130.46 978.62,-108.12 991.25,-105.22 1004.98,-101.29 1016.77,-97.66"/>
<polygon fill="green" stroke="green" stroke-width="0.18" points="1018.07,-100.92 1026.57,-94.59 1015.98,-94.25 1018.07,-100.92"/>
</g>
<!-- &#45;5 -->
<g id="node5" class="node">
<title>&#45;5</title>
<polygon fill="lightgray" stroke="black" points="1178.62,-162.12 1154.62,-162.12 1154.62,-144.12 1178.62,-144.12 1178.62,-162.12"/>
<text text-anchor="middle" x="1166.62" y="-150.92" font-family="Times New Roman,serif" font-size="9.00">&#45;5</text>
</g>
<!-- &#45;5&#45;&gt;0 -->
<g id="edge172" class="edge">
<title>&#45;5&#45;&gt;0</title>
<path fill="none" stroke="red" stroke-width="0.5" d="M1178.65,-150.56C1192.22,-148.82 1214.98,-146.02 1234.62,-144.12 1287.75,-139.01 1677.33,-147.25 1713.62,-108.12 1726.45,-94.3 1726.4,-79.57 1713.62,-65.7 1673.62,-22.28 1241.46,-16.68 1131.8,-15.96"/>
<polygon fill="red" stroke="red" stroke-width="0.5" points="1131.7,-12.46 1121.68,-15.9 1131.66,-19.46 1131.7,-12.46"/>
</g>
<!-- &#45;5&#45;&gt;3 -->
<g id="edge75" class="edge">
<title>&#45;5&#45;&gt;3</title>
<path fill="none" stroke="green" stroke-width="0.25" d="M1178.66,-150.7C1192.25,-149.09 1215.02,-146.41 1234.62,-144.12 1376.64,-127.58 1643.74,-170.64 1546.62,-65.7 1511.5,-27.75 1133.75,-37.44 1082.62,-29.7 1070.42,-27.85 1057.03,-24.91 1045.91,-22.22"/>
<polygon fill="green" stroke="green" stroke-width="0.25" points="1046.6,-18.78 1036.05,-19.75 1044.91,-25.57 1046.6,-18.78"/>
</g>
<!-- &#45;5&#45;&gt;320 -->
<g id="edge68" class="edge">
<title>&#45;5&#45;&gt;320</title>
<path fill="none" stroke="green" stroke-width="0.2" d="M1154.56,-148.6C1129.09,-141.16 1067.9,-123.27 1016.62,-108.12 1004.2,-104.46 990.5,-100.39 978.68,-96.87"/>
<polygon fill="green" stroke="green" stroke-width="0.2" points="979.43,-93.44 968.85,-93.95 977.44,-100.15 979.43,-93.44"/>
</g>
<!-- &#45;5&#45;&gt;324 -->
<g id="edge162" class="edge">
<title>&#45;5&#45;&gt;324</title>
<path fill="none" stroke="red" stroke-width="0.11" d="M1166.62,-143.99C1166.62,-137.45 1166.62,-127.82 1166.62,-118.38"/>
<polygon fill="red" stroke="red" stroke-width="0.11" points="1170.12,-118.37 1166.62,-108.37 1163.12,-118.37 1170.12,-118.37"/>
</g>
<!-- &#45;5&#45;&gt;326 -->
<g id="edge37" class="edge">
<title>&#45;5&#45;&gt;326</title>
<path fill="none" stroke="green" stroke-width="0.13" d="M1178.79,-150.6C1231.18,-143.98 1436.18,-117.69 1463.62,-108.12 1466.58,-107.1 1469.56,-105.81 1472.48,-104.39"/>
<polygon fill="green" stroke="green" stroke-width="0.13" points="1474.31,-107.39 1481.44,-99.55 1470.98,-101.23 1474.31,-107.39"/>
</g>
<!-- &#45;5&#45;&gt;327 -->
<g id="edge141" class="edge">
<title>&#45;5&#45;&gt;327</title>
<path fill="none" stroke="green" stroke-width="0.33" d="M1154.58,-148.39C1149.4,-146.9 1143.26,-145.26 1137.62,-144.12 1015.06,-119.44 975.61,-152.24 858.62,-108.12 857.01,-107.52 855.39,-106.8 853.8,-106.02"/>
<polygon fill="green" stroke="green" stroke-width="0.33" points="855.41,-102.91 845,-100.92 851.9,-108.96 855.41,-102.91"/>
</g>
<!-- &#45;5&#45;&gt;332 -->
<g id="edge107" class="edge">
<title>&#45;5&#45;&gt;332</title>
<path fill="none" stroke="red" stroke-width="0.38" d="M1178.64,-147.4C1197.77,-139.77 1236.2,-123.98 1267.62,-108.12 1270.36,-106.75 1273.17,-105.25 1275.96,-103.72"/>
<polygon fill="red" stroke="red" stroke-width="0.38" points="1277.69,-106.77 1284.67,-98.8 1274.24,-100.67 1277.69,-106.77"/>
</g>
<!-- &#45;5&#45;&gt;333 -->
<g id="edge133" class="edge">
<title>&#45;5&#45;&gt;333</title>
<path fill="none" stroke="green" stroke-width="0.36" d="M1154.62,-148.2C1149.44,-146.67 1143.29,-145.06 1137.62,-144.12 998.6,-121.26 638.15,-153.09 504.62,-108.12 502.95,-107.56 501.27,-106.87 499.63,-106.1"/>
<polygon fill="green" stroke="green" stroke-width="0.36" points="501.02,-102.87 490.6,-100.95 497.55,-108.95 501.02,-102.87"/>
</g>
<!-- &#45;5&#45;&gt;334 -->
<g id="edge56" class="edge">
<title>&#45;5&#45;&gt;334</title>
<path fill="none" stroke="red" stroke-width="0.11" d="M1154.41,-146.8C1136.84,-139 1103.58,-123.7 1076.62,-108.12 1075.13,-107.26 1073.61,-106.35 1072.09,-105.41"/>
<polygon fill="red" stroke="red" stroke-width="0.11" points="1073.8,-102.35 1063.5,-99.87 1070.01,-108.23 1073.8,-102.35"/>
</g>
<!-- &#45;6 -->
<g id="node6" class="node">
<title>&#45;6</title>
<polygon fill="lightgray" stroke="black" points="840.62,-162.12 816.62,-162.12 816.62,-144.12 840.62,-144.12 840.62,-162.12"/>
<text text-anchor="middle" x="828.62" y="-150.92" font-family="Times New Roman,serif" font-size="9.00">&#45;6</text>
</g>
<!-- &#45;6&#45;&gt;1 -->
<g id="edge82" class="edge">
<title>&#45;6&#45;&gt;1</title>
<path fill="none" stroke="red" stroke-width="0.19" d="M816.54,-151.1C738.46,-144.5 308.62,-108.12 308.62,-108.12 244.84,-38.72 449.57,-21.03 523.24,-16.96"/>
<polygon fill="red" stroke="red" stroke-width="0.19" points="523.69,-20.44 533.5,-16.44 523.33,-13.45 523.69,-20.44"/>
</g>
<!-- &#45;6&#45;&gt;4 -->
<g id="edge15" class="edge">
<title>&#45;6&#45;&gt;4</title>
<path fill="none" stroke="red" stroke-width="0.34" d="M816.5,-150.96C751.93,-144.72 451,-115.28 444.62,-108.12 432.07,-94.05 432.03,-79.73 444.62,-65.7 494.5,-10.16 704.7,-40.07 778.62,-29.7 797.34,-27.07 818.39,-23.4 834.2,-20.5"/>
<polygon fill="red" stroke="red" stroke-width="0.34" points="835.03,-23.9 844.22,-18.63 833.74,-17.02 835.03,-23.9"/>
</g>
<!-- &#45;6&#45;&gt;320 -->
<g id="edge96" class="edge">
<title>&#45;6&#45;&gt;320</title>
<path fill="none" stroke="red" stroke-width="0.62" d="M840.84,-146.8C858.41,-139 891.67,-123.7 918.62,-108.12 920.12,-107.26 921.64,-106.35 923.16,-105.41"/>
<polygon fill="red" stroke="red" stroke-width="0.62" points="925.24,-108.23 931.75,-99.87 921.45,-102.35 925.24,-108.23"/>
</g>
<!-- &#45;6&#45;&gt;321 -->
<g id="edge51" class="edge">
<title>&#45;6&#45;&gt;321</title>
<path fill="none" stroke="red" stroke-width="0.34" d="M840.82,-148.59C846.24,-147.09 852.72,-145.4 858.62,-144.12 954.62,-123.45 985.37,-144.39 1076.62,-108.12 1078.23,-107.49 1079.84,-106.75 1081.42,-105.95"/>
<polygon fill="red" stroke="red" stroke-width="0.34" points="1083.34,-108.88 1090.2,-100.81 1079.81,-102.84 1083.34,-108.88"/>
</g>
<!-- &#45;6&#45;&gt;322 -->
<g id="edge102" class="edge">
<title>&#45;6&#45;&gt;322</title>
<path fill="none" stroke="red" stroke-width="0.22" d="M816.56,-149.12C793.36,-143.08 741.22,-128.34 700.62,-108.12 699.08,-107.36 697.52,-106.52 695.96,-105.64"/>
<polygon fill="red" stroke="red" stroke-width="0.22" points="697.63,-102.55 687.29,-100.26 693.95,-108.5 697.63,-102.55"/>
</g>
<!-- &#45;6&#45;&gt;324 -->
<g id="edge111" class="edge">
<title>&#45;6&#45;&gt;324</title>
<path fill="none" stroke="green" stroke-width="0.3" stroke-dasharray="1,5" d="M840.8,-148.49C846.22,-146.97 852.7,-145.29 858.62,-144.12 980.86,-120.02 1020.06,-152.11 1136.62,-108.12 1138.24,-107.52 1139.85,-106.8 1141.45,-106.02"/>
<polygon fill="green" stroke="green" stroke-width="0.3" points="1143.35,-108.96 1150.25,-100.92 1139.84,-102.91 1143.35,-108.96"/>
</g>
<!-- &#45;6&#45;&gt;326 -->
<g id="edge83" class="edge">
<title>&#45;6&#45;&gt;326</title>
<path fill="none" stroke="red" stroke-width="0.11" d="M840.77,-148.31C846.18,-146.76 852.67,-145.11 858.62,-144.12 1093.31,-105.3 1156.69,-138.46 1392.62,-108.12 1418.22,-104.83 1446.95,-99.23 1468.04,-94.76"/>
<polygon fill="red" stroke="red" stroke-width="0.11" points="1468.99,-98.14 1478.03,-92.61 1467.51,-91.3 1468.99,-98.14"/>
</g>
<!-- &#45;6&#45;&gt;327 -->
<g id="edge126" class="edge">
<title>&#45;6&#45;&gt;327</title>
<path fill="none" stroke="red" stroke-width="0.37" d="M828.62,-143.99C828.62,-137.45 828.62,-127.82 828.62,-118.38"/>
<polygon fill="red" stroke="red" stroke-width="0.37" points="832.12,-118.37 828.62,-108.37 825.12,-118.37 832.12,-118.37"/>
</g>
<!-- &#45;6&#45;&gt;328 -->
<g id="edge127" class="edge">
<title>&#45;6&#45;&gt;328</title>
<path fill="none" stroke="green" stroke-width="0.17" d="M816.6,-150.66C772.04,-145.13 616.5,-125.02 569.62,-108.12 566.68,-107.06 563.7,-105.76 560.79,-104.33"/>
<polygon fill="green" stroke="green" stroke-width="0.17" points="562.29,-101.16 551.84,-99.47 558.96,-107.32 562.29,-101.16"/>
</g>
<!-- &#45;6&#45;&gt;330 -->
<g id="edge175" class="edge">
<title>&#45;6&#45;&gt;330</title>
<path fill="none" stroke="red" stroke-width="0.11" d="M836.22,-143.99C844.09,-135.58 856.72,-122.05 867.61,-110.4"/>
<polygon fill="red" stroke="red" stroke-width="0.11" points="870.18,-112.77 874.45,-103.08 865.07,-108 870.18,-112.77"/>
</g>
<!-- &#45;6&#45;&gt;331 -->
<g id="edge90" class="edge">
<title>&#45;6&#45;&gt;331</title>
<path fill="none" stroke="green" stroke-width="0.28" d="M816.17,-151.07C745.31,-145.06 395.35,-115.09 373.62,-108.12 370.65,-107.17 367.64,-105.94 364.72,-104.55"/>
<polygon fill="green" stroke="green" stroke-width="0.28" points="366.21,-101.38 355.74,-99.74 362.91,-107.55 366.21,-101.38"/>
</g>
<!-- &#45;6&#45;&gt;333 -->
<g id="edge119" class="edge">
<title>&#45;6&#45;&gt;333</title>
<path fill="none" stroke="green" stroke-width="0.37" d="M816.46,-151.22C764.82,-147.25 563.64,-130.6 504.62,-108.12 503.01,-107.51 501.4,-106.79 499.8,-106.01"/>
<polygon fill="green" stroke="green" stroke-width="0.37" points="501.41,-102.89 491.01,-100.9 497.9,-108.95 501.41,-102.89"/>
</g>
<!-- &#45;6&#45;&gt;334 -->
<g id="edge77" class="edge">
<title>&#45;6&#45;&gt;334</title>
<path fill="none" stroke="red" stroke-width="0.13" d="M840.68,-148.6C866.16,-141.16 927.35,-123.27 978.62,-108.12 991.05,-104.46 1004.74,-100.39 1016.57,-96.87"/>
<polygon fill="red" stroke="red" stroke-width="0.13" points="1017.81,-100.15 1026.4,-93.95 1015.81,-93.44 1017.81,-100.15"/>
</g>
<!-- &#45;7 -->
<g id="node7" class="node">
<title>&#45;7</title>
<polygon fill="lightgray" stroke="black" points="891.62,-162.12 867.62,-162.12 867.62,-144.12 891.62,-144.12 891.62,-162.12"/>
<text text-anchor="middle" x="879.62" y="-150.92" font-family="Times New Roman,serif" font-size="9.00">&#45;7</text>
</g>
<!-- &#45;7&#45;&gt;0 -->
<g id="edge70" class="edge">
<title>&#45;7&#45;&gt;0</title>
<path fill="none" stroke="red" stroke-width="0.27" d="M891.87,-149.02C898.56,-147.4 907.01,-145.48 914.62,-144.12 976.83,-133.07 1154.88,-155.54 1196.62,-108.12 1209.08,-93.97 1206.2,-81.94 1196.62,-65.7 1182.52,-41.76 1152.33,-28.51 1130.81,-21.8"/>
<polygon fill="red" stroke="red" stroke-width="0.27" points="1131.62,-18.39 1121.05,-19.01 1129.7,-25.12 1131.62,-18.39"/>
</g>
<!-- &#45;7&#45;&gt;2 -->
<g id="edge62" class="edge">
<title>&#45;7&#45;&gt;2</title>
<path fill="none" stroke="red" stroke-width="0.21" d="M867.47,-148.37C862.05,-146.84 855.57,-145.17 849.62,-144.12 805.13,-136.28 475.12,-141.45 444.62,-108.12 431.89,-94.21 432.39,-80.05 444.62,-65.7 463.16,-43.94 659.48,-24.37 729.77,-18.01"/>
<polygon fill="red" stroke="red" stroke-width="0.21" points="730.27,-21.48 739.92,-17.1 729.65,-14.51 730.27,-21.48"/>
</g>
<!-- &#45;7&#45;&gt;3 -->
<g id="edge85" class="edge">
<title>&#45;7&#45;&gt;3</title>
<path fill="none" stroke="green" stroke-width="0.54" d="M891.85,-149.63C912.27,-144.89 953.53,-132.77 978.62,-108.12 997.95,-89.14 1009.55,-59.81 1015.75,-39.33"/>
<polygon fill="green" stroke="green" stroke-width="0.54" points="1019.16,-40.1 1018.51,-29.52 1012.43,-38.2 1019.16,-40.1"/>
</g>
<!-- &#45;7&#45;&gt;4 -->
<g id="edge113" class="edge">
<title>&#45;7&#45;&gt;4</title>
<path fill="none" stroke="red" stroke-width="0.26" d="M867.42,-148.6C862,-147.11 855.52,-145.42 849.62,-144.12 803.59,-134.04 670.99,-144.17 640.62,-108.12 628.47,-93.7 628.87,-80.44 640.62,-65.7 646.72,-58.05 778.36,-31.54 834.07,-20.62"/>
<polygon fill="red" stroke="red" stroke-width="0.26" points="835,-24 844.14,-18.65 833.65,-17.13 835,-24"/>
</g>
<!-- &#45;7&#45;&gt;320 -->
<g id="edge148" class="edge">
<title>&#45;7&#45;&gt;320</title>
<path fill="none" stroke="green" stroke-width="0.35" d="M888.36,-143.99C897.73,-135.27 912.99,-121.07 925.81,-109.14"/>
<polygon fill="green" stroke="green" stroke-width="0.35" points="928.47,-111.45 933.4,-102.08 923.7,-106.33 928.47,-111.45"/>
</g>
<!-- &#45;7&#45;&gt;321 -->
<g id="edge146" class="edge">
<title>&#45;7&#45;&gt;321</title>
<path fill="none" stroke="red" stroke-width="0.74" d="M891.93,-149.29C898.64,-147.75 907.08,-145.82 914.62,-144.12 986.58,-127.91 1008.86,-137.24 1076.62,-108.12 1078.21,-107.44 1079.8,-106.67 1081.38,-105.85"/>
<polygon fill="red" stroke="red" stroke-width="0.74" points="1083.34,-108.76 1090.13,-100.62 1079.75,-102.74 1083.34,-108.76"/>
</g>
<!-- &#45;7&#45;&gt;322 -->
<g id="edge120" class="edge">
<title>&#45;7&#45;&gt;322</title>
<path fill="none" stroke="red" stroke-width="0.46" d="M867.38,-148.79C861.95,-147.33 855.48,-145.61 849.62,-144.12 783.59,-127.35 762.97,-135.59 700.62,-108.12 699.04,-107.43 697.46,-106.65 695.88,-105.81"/>
<polygon fill="red" stroke="red" stroke-width="0.46" points="697.52,-102.71 687.15,-100.56 693.92,-108.71 697.52,-102.71"/>
</g>
<!-- &#45;7&#45;&gt;323 -->
<g id="edge93" class="edge">
<title>&#45;7&#45;&gt;323</title>
<path fill="none" stroke="red" stroke-width="0.26" d="M891.85,-148.89C898.54,-147.23 906.99,-145.32 914.62,-144.12 1098.85,-115.28 1156.8,-170.2 1332.62,-108.12 1334.29,-107.54 1335.96,-106.83 1337.6,-106.04"/>
<polygon fill="red" stroke="red" stroke-width="0.26" points="1339.69,-108.88 1346.62,-100.86 1336.2,-102.81 1339.69,-108.88"/>
</g>
<!-- &#45;7&#45;&gt;324 -->
<g id="edge35" class="edge">
<title>&#45;7&#45;&gt;324</title>
<path fill="none" stroke="green" stroke-width="0.47" d="M891.89,-149.12C898.59,-147.53 907.04,-145.61 914.62,-144.12 1012.73,-124.98 1043.68,-144.91 1136.62,-108.12 1138.23,-107.49 1139.84,-106.76 1141.43,-105.96"/>
<polygon fill="green" stroke="green" stroke-width="0.47" points="1143.35,-108.89 1150.21,-100.82 1139.81,-102.85 1143.35,-108.89"/>
</g>
<!-- &#45;7&#45;&gt;327 -->
<g id="edge160" class="edge">
<title>&#45;7&#45;&gt;327</title>
<path fill="none" stroke="red" stroke-width="0.45" d="M873.16,-143.99C866.78,-135.95 856.7,-123.26 847.74,-111.98"/>
<polygon fill="red" stroke="red" stroke-width="0.45" points="850.44,-109.75 841.48,-104.1 844.96,-114.11 850.44,-109.75"/>
</g>
<!-- &#45;7&#45;&gt;328 -->
<g id="edge29" class="edge">
<title>&#45;7&#45;&gt;328</title>
<path fill="none" stroke="red" stroke-width="0.27" d="M867.45,-148.48C862.03,-146.97 855.55,-145.29 849.62,-144.12 726.51,-119.91 688.49,-148.28 569.62,-108.12 566.66,-107.12 563.67,-105.86 560.75,-104.45"/>
<polygon fill="red" stroke="red" stroke-width="0.27" points="562.25,-101.28 551.78,-99.63 558.93,-107.45 562.25,-101.28"/>
</g>
<!-- &#45;7&#45;&gt;329 -->
<g id="edge41" class="edge">
<title>&#45;7&#45;&gt;329</title>
<path fill="none" stroke="green" stroke-width="0.1" d="M867.38,-148.1C846.22,-140.99 801.61,-125.33 765.62,-108.12 762.86,-106.81 760.03,-105.35 757.23,-103.84"/>
<polygon fill="green" stroke="green" stroke-width="0.1" points="758.94,-100.79 748.5,-98.95 755.51,-106.89 758.94,-100.79"/>
</g>
<!-- &#45;7&#45;&gt;330 -->
<g id="edge2" class="edge">
<title>&#45;7&#45;&gt;330</title>
<path fill="none" stroke="red" stroke-width="0.45" d="M880.76,-143.99C881.69,-137.4 883.05,-127.67 884.38,-118.17"/>
<polygon fill="red" stroke="red" stroke-width="0.45" points="887.87,-118.48 885.8,-108.09 880.94,-117.51 887.87,-118.48"/>
</g>
<!-- &#45;7&#45;&gt;331 -->
<g id="edge154" class="edge">
<title>&#45;7&#45;&gt;331</title>
<path fill="none" stroke="green" stroke-width="0.33" d="M867.48,-148.34C862.06,-146.79 855.58,-145.13 849.62,-144.12 640.45,-108.64 576.33,-170.74 373.62,-108.12 370.64,-107.2 367.63,-105.99 364.7,-104.61"/>
<polygon fill="green" stroke="green" stroke-width="0.33" points="366.19,-101.44 355.72,-99.82 362.9,-107.62 366.19,-101.44"/>
</g>
<!-- &#45;7&#45;&gt;332 -->
<g id="edge86" class="edge">
<title>&#45;7&#45;&gt;332</title>
<path fill="none" stroke="green" stroke-width="0.28" d="M891.87,-148.98C898.56,-147.34 907.01,-145.43 914.62,-144.12 1053.52,-120.39 1091.3,-135.01 1229.62,-108.12 1243.99,-105.33 1259.65,-101.15 1272.78,-97.31"/>
<polygon fill="green" stroke="green" stroke-width="0.28" points="1274.11,-100.57 1282.68,-94.34 1272.1,-93.86 1274.11,-100.57"/>
</g>
<!-- &#45;7&#45;&gt;333 -->
<g id="edge124" class="edge">
<title>&#45;7&#45;&gt;333</title>
<path fill="none" stroke="red" stroke-width="0.15" d="M867.46,-148.42C862.05,-146.89 855.56,-145.22 849.62,-144.12 698.01,-116.18 649.53,-160.76 504.62,-108.12 503,-107.54 501.38,-106.84 499.78,-106.07"/>
<polygon fill="red" stroke="red" stroke-width="0.15" points="501.38,-102.95 490.97,-101 497.9,-109.02 501.38,-102.95"/>
</g>
<!-- &#45;8 -->
<g id="node8" class="node">
<title>&#45;8</title>
<polygon fill="lightgray" stroke="black" points="593.62,-162.12 569.62,-162.12 569.62,-144.12 593.62,-144.12 593.62,-162.12"/>
<text text-anchor="middle" x="581.62" y="-150.92" font-family="Times New Roman,serif" font-size="9.00">&#45;8</text>
</g>
<!-- &#45;8&#45;&gt;0 -->
<g id="edge167" class="edge">
<title>&#45;8&#45;&gt;0</title>
<path fill="none" stroke="green" stroke-width="0.36" d="M569.33,-152.2C506.86,-152.19 230.63,-147.6 308.62,-65.7 336.89,-36.01 1005.01,-35.26 1045.62,-29.7 1057.85,-28.02 1071.25,-25.11 1082.37,-22.38"/>
<polygon fill="green" stroke="green" stroke-width="0.36" points="1083.39,-25.73 1092.21,-19.87 1081.66,-18.95 1083.39,-25.73"/>
</g>
<!-- &#45;8&#45;&gt;2 -->
<g id="edge58" class="edge">
<title>&#45;8&#45;&gt;2</title>
<path fill="none" stroke="green" stroke-width="0.68" d="M569.39,-152.08C493.05,-151.7 84.17,-147.81 47.62,-108.12 34.85,-94.25 34.75,-79.48 47.62,-65.7 87.53,-22.96 514.31,-33.92 572.62,-29.7 628.52,-25.66 694.05,-20.59 729.22,-17.84"/>
<polygon fill="green" stroke="green" stroke-width="0.68" points="729.83,-21.31 739.53,-17.04 729.28,-14.33 729.83,-21.31"/>
</g>
<!-- &#45;8&#45;&gt;3 -->
<g id="edge104" class="edge">
<title>&#45;8&#45;&gt;3</title>
<path fill="none" stroke="green" stroke-width="1.12" d="M569.37,-151.91C499.59,-150.55 154.51,-142.12 123.62,-108.12 110.94,-94.17 110.61,-79.34 123.62,-65.7 152.76,-35.15 840.52,-32.79 882.62,-29.7 922.55,-26.76 968.79,-21.86 996.59,-18.74"/>
<polygon fill="green" stroke="green" stroke-width="1.12" points="997.09,-22.2 1006.63,-17.6 996.3,-15.25 997.09,-22.2"/>
</g>
<!-- &#45;8&#45;&gt;4 -->
<g id="edge80" class="edge">
<title>&#45;8&#45;&gt;4</title>
<path fill="none" stroke="red" stroke-width="0.61" d="M569.32,-152C496.06,-151.14 119.33,-144.95 85.62,-108.12 72.89,-94.21 72.64,-79.37 85.62,-65.7 138.71,-9.78 702,-38.29 778.62,-29.7 797.4,-27.59 818.45,-23.89 834.25,-20.85"/>
<polygon fill="red" stroke="red" stroke-width="0.61" points="835.11,-24.25 844.25,-18.87 833.76,-17.38 835.11,-24.25"/>
</g>
<!-- &#45;8&#45;&gt;320 -->
<g id="edge89" class="edge">
<title>&#45;8&#45;&gt;320</title>
<path fill="none" stroke="green" stroke-width="0.39" d="M593.78,-150.7C652.33,-143.8 903.03,-114.02 918.62,-108.12 920.24,-107.51 921.85,-106.8 923.45,-106.02"/>
<polygon fill="green" stroke="green" stroke-width="0.39" points="925.35,-108.96 932.25,-100.92 921.84,-102.9 925.35,-108.96"/>
</g>
<!-- &#45;8&#45;&gt;321 -->
<g id="edge145" class="edge">
<title>&#45;8&#45;&gt;321</title>
<path fill="none" stroke="green" stroke-width="0.3" d="M593.65,-150.59C607.23,-148.88 629.99,-146.11 649.62,-144.12 839.11,-125 896.98,-171.37 1076.62,-108.12 1078.29,-107.54 1079.96,-106.83 1081.6,-106.05"/>
<polygon fill="green" stroke="green" stroke-width="0.3" points="1083.69,-108.88 1090.62,-100.86 1080.2,-102.81 1083.69,-108.88"/>
</g>
<!-- &#45;8&#45;&gt;322 -->
<g id="edge168" class="edge">
<title>&#45;8&#45;&gt;322</title>
<path fill="none" stroke="green" stroke-width="0.44" d="M592.9,-143.99C605.96,-134.57 627.9,-118.73 645.15,-106.29"/>
<polygon fill="green" stroke="green" stroke-width="0.44" points="647.61,-108.84 653.67,-100.15 643.51,-103.16 647.61,-108.84"/>
</g>
<!-- &#45;8&#45;&gt;327 -->
<g id="edge94" class="edge">
<title>&#45;8&#45;&gt;327</title>
<path fill="none" stroke="green" stroke-width="0.37" d="M593.83,-149.34C622.86,-142.66 698.24,-125.05 760.62,-108.12 773.13,-104.73 786.84,-100.71 798.65,-97.16"/>
<polygon fill="green" stroke="green" stroke-width="0.37" points="799.91,-100.43 808.46,-94.18 797.88,-93.74 799.91,-100.43"/>
</g>
<!-- &#45;8&#45;&gt;328 -->
<g id="edge34" class="edge">
<title>&#45;8&#45;&gt;328</title>
<path fill="none" stroke="red" stroke-width="0.24" d="M575.67,-143.99C569.92,-136.14 560.92,-123.84 552.81,-112.76"/>
<polygon fill="red" stroke="red" stroke-width="0.24" points="555.58,-110.62 546.85,-104.62 549.93,-114.75 555.58,-110.62"/>
</g>
<!-- &#45;8&#45;&gt;329 -->
<g id="edge49" class="edge">
<title>&#45;8&#45;&gt;329</title>
<path fill="none" stroke="red" stroke-width="0.37" d="M593.85,-148.66C615.87,-142.2 663.38,-127.21 700.62,-108.12 702.16,-107.34 703.71,-106.49 705.26,-105.59"/>
<polygon fill="red" stroke="red" stroke-width="0.37" points="707.29,-108.45 713.92,-100.19 703.59,-102.51 707.29,-108.45"/>
</g>
<!-- &#45;8&#45;&gt;330 -->
<g id="edge71" class="edge">
<title>&#45;8&#45;&gt;330</title>
<path fill="none" stroke="green" stroke-width="0.43" d="M593.65,-150.53C643.64,-143.84 833.48,-118.03 858.62,-108.12 860.23,-107.49 861.84,-106.76 863.43,-105.96"/>
<polygon fill="green" stroke="green" stroke-width="0.43" points="865.35,-108.9 872.21,-100.83 861.81,-102.85 865.35,-108.9"/>
</g>
<!-- &#45;8&#45;&gt;331 -->
<g id="edge45" class="edge">
<title>&#45;8&#45;&gt;331</title>
<path fill="none" stroke="green" stroke-width="0.32" d="M569.52,-150.91C536.93,-147.36 444.97,-135.48 373.62,-108.12 370.7,-107.01 367.74,-105.66 364.84,-104.21"/>
<polygon fill="green" stroke="green" stroke-width="0.32" points="366.34,-101.05 355.89,-99.32 362.99,-107.19 366.34,-101.05"/>
</g>
<!-- &#45;8&#45;&gt;332 -->
<g id="edge19" class="edge">
<title>&#45;8&#45;&gt;332</title>
<path fill="none" stroke="green" stroke-width="0.38" d="M593.64,-150.52C607.22,-148.76 629.97,-145.93 649.62,-144.12 892.24,-121.88 954.95,-139 1196.62,-108.12 1222.22,-104.85 1250.96,-99.25 1272.04,-94.77"/>
<polygon fill="green" stroke="green" stroke-width="0.38" points="1272.99,-98.15 1282.03,-92.62 1271.51,-91.31 1272.99,-98.15"/>
</g>
<!-- &#45;8&#45;&gt;333 -->
<g id="edge13" class="edge">
<title>&#45;8&#45;&gt;333</title>
<path fill="none" stroke="red" stroke-width="0.18" d="M569.46,-145.54C554.14,-137.16 527.12,-122.1 504.62,-108.12 503.16,-107.21 501.66,-106.26 500.15,-105.3"/>
<polygon fill="red" stroke="red" stroke-width="0.18" points="501.89,-102.25 491.62,-99.68 498.04,-108.1 501.89,-102.25"/>
</g>
<!-- &#45;9 -->
<g id="node9" class="node">
<title>&#45;9</title>
<polygon fill="lightgray" stroke="black" points="1267.62,-162.12 1243.62,-162.12 1243.62,-144.12 1267.62,-144.12 1267.62,-162.12"/>
<text text-anchor="middle" x="1255.62" y="-150.92" font-family="Times New Roman,serif" font-size="9.00">&#45;9</text>
</g>
<!-- &#45;9&#45;&gt;0 -->
<g id="edge139" class="edge">
<title>&#45;9&#45;&gt;0</title>
<path fill="none" stroke="green" stroke-width="0.53" d="M1268.02,-146.96C1271.11,-145.86 1274.45,-144.82 1277.62,-144.12 1327.07,-133.38 1697.29,-145.29 1731.62,-108.12 1744.42,-94.27 1744.42,-79.55 1731.62,-65.7 1690.3,-20.95 1243.51,-16.34 1131.82,-15.89"/>
<polygon fill="green" stroke="green" stroke-width="0.53" points="1131.54,-12.39 1121.53,-15.86 1131.52,-19.39 1131.54,-12.39"/>
</g>
<!-- &#45;9&#45;&gt;2 -->
<g id="edge60" class="edge">
<title>&#45;9&#45;&gt;2</title>
<path fill="none" stroke="green" stroke-width="0.26" d="M1268.05,-147.1C1271.14,-145.99 1274.47,-144.92 1277.62,-144.12 1332.28,-130.42 1491.72,-150.7 1528.62,-108.12 1540.97,-93.88 1541.61,-79.37 1528.62,-65.7 1475.46,-9.7 911.36,-38.3 834.62,-29.7 815.84,-27.59 794.79,-23.9 779,-20.85"/>
<polygon fill="green" stroke="green" stroke-width="0.26" points="779.49,-17.38 769,-18.87 778.13,-24.25 779.49,-17.38"/>
</g>
<!-- &#45;9&#45;&gt;3 -->
<g id="edge116" class="edge">
<title>&#45;9&#45;&gt;3</title>
<path fill="none" stroke="green" stroke-width="0.24" d="M1268.01,-146.95C1271.11,-145.85 1274.45,-144.81 1277.62,-144.12 1329.26,-133 1715.72,-146.86 1751.62,-108.12 1764.44,-94.3 1764.59,-79.39 1751.62,-65.7 1700.42,-11.67 1156.35,-39.98 1082.62,-29.7 1070.4,-27.99 1057,-25.07 1045.89,-22.35"/>
<polygon fill="green" stroke="green" stroke-width="0.24" points="1046.59,-18.92 1036.04,-19.85 1044.87,-25.7 1046.59,-18.92"/>
</g>
<!-- &#45;9&#45;&gt;4 -->
<g id="edge125" class="edge">
<title>&#45;9&#45;&gt;4</title>
<path fill="none" stroke="green" stroke-width="0.34" d="M1268.02,-146.98C1271.11,-145.88 1274.45,-144.83 1277.62,-144.12 1364.3,-124.79 1615.72,-173.69 1675.62,-108.12 1688.34,-94.2 1688.6,-79.38 1675.62,-65.7 1649.67,-38.33 1035.23,-32.57 997.62,-29.7 957.7,-26.65 911.47,-21.78 883.66,-18.7"/>
<polygon fill="green" stroke="green" stroke-width="0.34" points="883.95,-15.21 873.62,-17.57 883.17,-22.16 883.95,-15.21"/>
</g>
<!-- &#45;9&#45;&gt;320 -->
<g id="edge174" class="edge">
<title>&#45;9&#45;&gt;320</title>
<path fill="none" stroke="green" stroke-width="0.58" d="M1243.59,-150.38C1208.41,-145.16 1102.78,-128.8 1016.62,-108.12 1004.03,-105.1 990.3,-101.15 978.5,-97.54"/>
<polygon fill="green" stroke="green" stroke-width="0.58" points="979.29,-94.13 968.7,-94.5 977.21,-100.81 979.29,-94.13"/>
</g>
<!-- &#45;9&#45;&gt;321 -->
<g id="edge114" class="edge">
<title>&#45;9&#45;&gt;321</title>
<path fill="none" stroke="red" stroke-width="0.28" d="M1243.4,-148.66C1221.38,-142.2 1173.87,-127.21 1136.62,-108.12 1135.09,-107.34 1133.53,-106.49 1131.99,-105.59"/>
<polygon fill="red" stroke="red" stroke-width="0.28" points="1133.66,-102.51 1123.33,-100.19 1129.96,-108.45 1133.66,-102.51"/>
</g>
<!-- &#45;9&#45;&gt;323 -->
<g id="edge158" class="edge">
<title>&#45;9&#45;&gt;323</title>
<path fill="none" stroke="red" stroke-width="0.45" d="M1267.79,-145.54C1283.1,-137.16 1310.13,-122.1 1332.62,-108.12 1334.09,-107.21 1335.59,-106.26 1337.09,-105.3"/>
<polygon fill="red" stroke="red" stroke-width="0.45" points="1339.2,-108.1 1345.63,-99.68 1335.36,-102.25 1339.2,-108.1"/>
</g>
<!-- &#45;9&#45;&gt;324 -->
<g id="edge48" class="edge">
<title>&#45;9&#45;&gt;324</title>
<path fill="none" stroke="green" stroke-width="0.36" d="M1244.35,-143.99C1231.29,-134.57 1209.34,-118.73 1192.1,-106.29"/>
<polygon fill="green" stroke="green" stroke-width="0.36" points="1193.74,-103.16 1183.58,-100.15 1189.64,-108.84 1193.74,-103.16"/>
</g>
<!-- &#45;9&#45;&gt;326 -->
<g id="edge67" class="edge">
<title>&#45;9&#45;&gt;326</title>
<path fill="none" stroke="red" stroke-width="0.23" stroke-dasharray="1,5" d="M1268.08,-147.21C1271.17,-146.1 1274.49,-144.99 1277.62,-144.12 1358.77,-121.67 1384.75,-137.59 1463.62,-108.12 1466.55,-107.03 1469.52,-105.71 1472.43,-104.26"/>
<polygon fill="red" stroke="red" stroke-width="0.23" points="1474.27,-107.24 1481.38,-99.39 1470.93,-101.1 1474.27,-107.24"/>
</g>
<!-- &#45;9&#45;&gt;327 -->
<g id="edge156" class="edge">
<title>&#45;9&#45;&gt;327</title>
<path fill="none" stroke="red" stroke-width="0.13" d="M1243.59,-150.68C1230,-149.05 1207.23,-146.35 1187.62,-144.12 1041.47,-127.53 996.75,-158.69 858.62,-108.12 857,-107.53 855.38,-106.83 853.78,-106.06"/>
<polygon fill="red" stroke="red" stroke-width="0.13" points="855.39,-102.94 844.98,-100.99 851.9,-109.01 855.39,-102.94"/>
</g>
<!-- &#45;9&#45;&gt;329 -->
<g id="edge66" class="edge">
<title>&#45;9&#45;&gt;329</title>
<path fill="none" stroke="red" stroke-width="0.18" d="M1243.6,-150.62C1230.01,-148.94 1207.25,-146.19 1187.62,-144.12 1014.95,-125.98 969.11,-141.02 798.62,-108.12 785.81,-105.65 771.95,-101.76 760.11,-98.05"/>
<polygon fill="red" stroke="red" stroke-width="0.18" points="760.9,-94.63 750.3,-94.88 758.74,-101.29 760.9,-94.63"/>
</g>
<!-- &#45;9&#45;&gt;330 -->
<g id="edge110" class="edge">
<title>&#45;9&#45;&gt;330</title>
<path fill="none" stroke="red" stroke-width="0.39" stroke-dasharray="1,5" d="M1243.47,-150.7C1184.92,-143.8 934.22,-114.02 918.62,-108.12 917.01,-107.51 915.39,-106.8 913.8,-106.02"/>
<polygon fill="red" stroke="red" stroke-width="0.39" points="915.41,-102.9 905,-100.92 911.9,-108.96 915.41,-102.9"/>
</g>
<!-- &#45;9&#45;&gt;332 -->
<g id="edge92" class="edge">
<title>&#45;9&#45;&gt;332</title>
<path fill="none" stroke="red" stroke-width="0.39" d="M1261.58,-143.99C1267.32,-136.14 1276.33,-123.84 1284.44,-112.76"/>
<polygon fill="red" stroke="red" stroke-width="0.39" points="1287.31,-114.75 1290.4,-104.62 1281.67,-110.62 1287.31,-114.75"/>
</g>
<!-- &#45;9&#45;&gt;334 -->
<g id="edge109" class="edge">
<title>&#45;9&#45;&gt;334</title>
<path fill="none" stroke="red" stroke-width="0.39" d="M1243.42,-150.63C1213.77,-146.69 1136.02,-134.43 1076.62,-108.12 1075.04,-107.43 1073.46,-106.64 1071.89,-105.8"/>
<polygon fill="red" stroke="red" stroke-width="0.39" points="1073.53,-102.71 1063.15,-100.55 1069.92,-108.7 1073.53,-102.71"/>
</g>
<!-- &#45;10 -->
<g id="node10" class="node">
<title>&#45;10</title>
<polygon fill="lightgray" stroke="black" points="1128.12,-162.12 1099.12,-162.12 1099.12,-144.12 1128.12,-144.12 1128.12,-162.12"/>
<text text-anchor="middle" x="1113.62" y="-150.92" font-family="Times New Roman,serif" font-size="9.00">&#45;10</text>
</g>
<!-- &#45;10&#45;&gt;0 -->
<g id="edge164" class="edge">
<title>&#45;10&#45;&gt;0</title>
<path fill="none" stroke="red" stroke-width="0.72" d="M1128.17,-147.95C1133.61,-146.53 1139.86,-145.07 1145.62,-144.12 1195.56,-135.96 1565.29,-145.29 1599.62,-108.12 1612.42,-94.27 1612.27,-79.69 1599.62,-65.7 1567.96,-30.67 1227.98,-19.06 1131.83,-16.46"/>
<polygon fill="red" stroke="red" stroke-width="0.72" points="1131.67,-12.96 1121.59,-16.2 1131.49,-19.96 1131.67,-12.96"/>
</g>
<!-- &#45;10&#45;&gt;3 -->
<g id="edge112" class="edge">
<title>&#45;10&#45;&gt;3</title>
<path fill="none" stroke="green" stroke-width="0.13" d="M1128.18,-147.99C1133.62,-146.58 1139.87,-145.11 1145.62,-144.12 1187.76,-136.92 1499.85,-139.73 1528.62,-108.12 1541.32,-94.18 1541.41,-79.56 1528.62,-65.7 1494.91,-29.16 1131.77,-37.22 1082.62,-29.7 1070.42,-27.83 1057.03,-24.89 1045.91,-22.2"/>
<polygon fill="green" stroke="green" stroke-width="0.13" points="1046.61,-18.77 1036.06,-19.74 1044.91,-25.56 1046.61,-18.77"/>
</g>
<!-- &#45;10&#45;&gt;320 -->
<g id="edge3" class="edge">
<title>&#45;10&#45;&gt;320</title>
<path fill="none" stroke="red" stroke-width="0.85" d="M1098.98,-146.43C1071.8,-135.85 1013.1,-113 977.62,-99.19"/>
<polygon fill="red" stroke="red" stroke-width="0.85" points="978.86,-95.92 968.27,-95.56 976.32,-102.45 978.86,-95.92"/>
</g>
<!-- &#45;10&#45;&gt;321 -->
<g id="edge134" class="edge">
<title>&#45;10&#45;&gt;321</title>
<path fill="none" stroke="red" stroke-width="0.97" d="M1112.74,-143.99C1112.02,-137.4 1110.96,-127.67 1109.92,-118.17"/>
<polygon fill="red" stroke="red" stroke-width="0.97" points="1113.39,-117.65 1108.82,-108.09 1106.43,-118.41 1113.39,-117.65"/>
</g>
<!-- &#45;10&#45;&gt;322 -->
<g id="edge8" class="edge">
<title>&#45;10&#45;&gt;322</title>
<path fill="none" stroke="red" stroke-width="0.38" d="M1098.82,-150.65C1026.13,-143.37 710.21,-111.62 700.62,-108.12 699,-107.53 697.38,-106.84 695.78,-106.06"/>
<polygon fill="red" stroke="red" stroke-width="0.38" points="697.39,-102.95 686.97,-101 693.9,-109.02 697.39,-102.95"/>
</g>
<!-- &#45;10&#45;&gt;323 -->
<g id="edge39" class="edge">
<title>&#45;10&#45;&gt;323</title>
<path fill="none" stroke="green" stroke-width="0.27" d="M1128.24,-148.29C1133.68,-146.91 1139.92,-145.39 1145.62,-144.12 1228.27,-125.85 1254.39,-140.42 1332.62,-108.12 1334.22,-107.47 1335.82,-106.72 1337.4,-105.9"/>
<polygon fill="green" stroke="green" stroke-width="0.27" points="1339.34,-108.82 1346.17,-100.72 1335.78,-102.8 1339.34,-108.82"/>
</g>
<!-- &#45;10&#45;&gt;324 -->
<g id="edge32" class="edge">
<title>&#45;10&#45;&gt;324</title>
<path fill="none" stroke="red" stroke-width="0.16" d="M1120.34,-143.99C1127.02,-135.9 1137.59,-123.09 1146.95,-111.75"/>
<polygon fill="red" stroke="red" stroke-width="0.16" points="1149.81,-113.78 1153.48,-103.84 1144.41,-109.33 1149.81,-113.78"/>
</g>
<!-- &#45;10&#45;&gt;326 -->
<g id="edge137" class="edge">
<title>&#45;10&#45;&gt;326</title>
<path fill="none" stroke="red" stroke-width="0.53" d="M1128.19,-148.05C1133.63,-146.65 1139.88,-145.16 1145.62,-144.12 1285.59,-118.82 1328.53,-152.63 1463.62,-108.12 1466.59,-107.15 1469.59,-105.9 1472.51,-104.5"/>
<polygon fill="red" stroke="red" stroke-width="0.53" points="1474.33,-107.5 1481.48,-99.68 1471.02,-101.33 1474.33,-107.5"/>
</g>
<!-- &#45;10&#45;&gt;330 -->
<g id="edge136" class="edge">
<title>&#45;10&#45;&gt;330</title>
<path fill="none" stroke="red" stroke-width="0.12" d="M1098.86,-150.68C1065.52,-147.01 982.35,-135.63 918.62,-108.12 917.04,-107.44 915.45,-106.67 913.87,-105.84"/>
<polygon fill="red" stroke="red" stroke-width="0.12" points="915.5,-102.74 905.12,-100.61 911.91,-108.75 915.5,-102.74"/>
</g>
<!-- &#45;10&#45;&gt;331 -->
<g id="edge24" class="edge">
<title>&#45;10&#45;&gt;331</title>
<path fill="none" stroke="red" stroke-width="0.27" d="M1098.89,-150.48C1082.86,-148.73 1056.44,-145.96 1033.62,-144.12 772.2,-123.07 704.85,-140.75 444.62,-108.12 419.02,-104.91 390.29,-99.31 369.2,-94.81"/>
<polygon fill="red" stroke="red" stroke-width="0.27" points="369.73,-91.35 359.22,-92.65 368.25,-98.19 369.73,-91.35"/>
</g>
<!-- &#45;10&#45;&gt;332 -->
<g id="edge106" class="edge">
<title>&#45;10&#45;&gt;332</title>
<path fill="none" stroke="green" stroke-width="0.2" d="M1128.33,-148.42C1161.63,-139.94 1241.9,-119.03 1267.62,-108.12 1270.35,-106.97 1273.13,-105.65 1275.87,-104.24"/>
<polygon fill="green" stroke="green" stroke-width="0.2" points="1277.82,-107.16 1284.89,-99.28 1274.44,-101.03 1277.82,-107.16"/>
</g>
<!-- &#45;10&#45;&gt;333 -->
<g id="edge28" class="edge">
<title>&#45;10&#45;&gt;333</title>
<path fill="none" stroke="green" stroke-width="0.29" d="M1098.89,-150.51C1082.85,-148.79 1056.44,-146.04 1033.62,-144.12 916.21,-134.26 616.08,-146.35 504.62,-108.12 502.95,-107.55 501.28,-106.86 499.63,-106.08"/>
<polygon fill="green" stroke="green" stroke-width="0.29" points="501.03,-102.84 490.61,-100.92 497.55,-108.92 501.03,-102.84"/>
</g>
<!-- &#45;11 -->
<g id="node11" class="node">
<title>&#45;11</title>
<polygon fill="lightgray" stroke="black" points="1315.12,-162.12 1286.12,-162.12 1286.12,-144.12 1315.12,-144.12 1315.12,-162.12"/>
<text text-anchor="middle" x="1300.62" y="-150.92" font-family="Times New Roman,serif" font-size="9.00">&#45;11</text>
</g>
<!-- &#45;12 -->
<g id="node12" class="node">
<title>&#45;12</title>
<polygon fill="lightgray" stroke="black" points="1362.12,-162.12 1333.12,-162.12 1333.12,-144.12 1362.12,-144.12 1362.12,-162.12"/>
<text text-anchor="middle" x="1347.62" y="-150.92" font-family="Times New Roman,serif" font-size="9.00">&#45;12</text>
</g>
<!-- &#45;13 -->
<g id="node13" class="node">
<title>&#45;13</title>
<polygon fill="lightgray" stroke="black" points="1409.12,-162.12 1380.12,-162.12 1380.12,-144.12 1409.12,-144.12 1409.12,-162.12"/>
<text text-anchor="middle" x="1394.62" y="-150.92" font-family="Times New Roman,serif" font-size="9.00">&#45;13</text>
</g>
<!-- &#45;14 -->
<g id="node14" class="node">
<title>&#45;14</title>
<polygon fill="lightgray" stroke="black" points="1456.12,-162.12 1427.12,-162.12 1427.12,-144.12 1456.12,-144.12 1456.12,-162.12"/>
<text text-anchor="middle" x="1441.62" y="-150.92" font-family="Times New Roman,serif" font-size="9.00">&#45;14</text>
</g>
<!-- &#45;15 -->
<g id="node15" class="node">
<title>&#45;15</title>
<polygon fill="lightgray" stroke="black" points="1503.12,-162.12 1474.12,-162.12 1474.12,-144.12 1503.12,-144.12 1503.12,-162.12"/>
<text text-anchor="middle" x="1488.62" y="-150.92" font-family="Times New Roman,serif" font-size="9.00">&#45;15</text>
</g>
<!-- &#45;16 -->
<g id="node16" class="node">
<title>&#45;16</title>
<polygon fill="lightgray" stroke="black" points="1550.12,-162.12 1521.12,-162.12 1521.12,-144.12 1550.12,-144.12 1550.12,-162.12"/>
<text text-anchor="middle" x="1535.62" y="-150.92" font-family="Times New Roman,serif" font-size="9.00">&#45;16</text>
</g>
<!-- &#45;17 -->
<g id="node17" class="node">
<title>&#45;17</title>
<polygon fill="lightgray" stroke="black" points="1597.12,-162.12 1568.12,-162.12 1568.12,-144.12 1597.12,-144.12 1597.12,-162.12"/>
<text text-anchor="middle" x="1582.62" y="-150.92" font-family="Times New Roman,serif" font-size="9.00">&#45;17</text>
</g>
<!-- &#45;18 -->
<g id="node18" class="node">
<title>&#45;18</title>
<polygon fill="lightgray" stroke="black" points="1644.12,-162.12 1615.12,-162.12 1615.12,-144.12 1644.12,-144.12 1644.12,-162.12"/>
<text text-anchor="middle" x="1629.62" y="-150.92" font-family="Times New Roman,serif" font-size="9.00">&#45;18</text>
</g>
<!-- &#45;19 -->
<g id="node19" class="node">
<title>&#45;19</title>
<polygon fill="lightgray" stroke="black" points="1691.12,-162.12 1662.12,-162.12 1662.12,-144.12 1691.12,-144.12 1691.12,-162.12"/>
<text text-anchor="middle" x="1676.62" y="-150.92" font-family="Times New Roman,serif" font-size="9.00">&#45;19</text>
</g>
<!-- &#45;20 -->
<g id="node20" class="node">
<title>&#45;20</title>
<polygon fill="lightgray" stroke="black" points="1738.12,-162.12 1709.12,-162.12 1709.12,-144.12 1738.12,-144.12 1738.12,-162.12"/>
<text text-anchor="middle" x="1723.62" y="-150.92" font-family="Times New Roman,serif" font-size="9.00">&#45;20</text>
</g>
<!-- 320&#45;&gt;1 -->
<g id="edge122" class="edge">
<title>320&#45;&gt;1</title>
<path fill="none" stroke="red" stroke-width="0.13" d="M932.24,-72.92C928.01,-70.13 923.32,-67.48 918.62,-65.7 854.95,-41.48 646.37,-23.42 573.79,-17.74"/>
<polygon fill="red" stroke="red" stroke-width="0.13" points="573.97,-14.24 563.73,-16.96 573.43,-21.22 573.97,-14.24"/>
</g>
<!-- 320&#45;&gt;2 -->
<g id="edge115" class="edge">
<title>320&#45;&gt;2</title>
<path fill="none" stroke="red" stroke-width="0.64" d="M932.02,-73.45C927.79,-70.64 923.16,-67.86 918.62,-65.7 871.54,-43.3 812.09,-28.21 779.26,-20.92"/>
<polygon fill="red" stroke="red" stroke-width="0.64" points="779.71,-17.44 769.2,-18.75 778.23,-24.28 779.71,-17.44"/>
</g>
<!-- 320&#45;&gt;3 -->
<g id="edge155" class="edge">
<title>320&#45;&gt;3</title>
<path fill="none" stroke="red" stroke-width="0.61" d="M963.75,-71.39C975.4,-60.22 991.53,-44.73 1003.8,-32.95"/>
<polygon fill="red" stroke="red" stroke-width="0.61" points="1006.43,-35.28 1011.23,-25.83 1001.59,-30.23 1006.43,-35.28"/>
</g>
<!-- 321&#45;&gt;0 -->
<g id="edge97" class="edge">
<title>321&#45;&gt;0</title>
<path fill="none" stroke="green" stroke-width="0.43" d="M1106.62,-65.65C1106.62,-57.67 1106.62,-48.43 1106.62,-40.1"/>
<polygon fill="green" stroke="green" stroke-width="0.43" points="1110.12,-39.85 1106.62,-29.85 1103.12,-39.85 1110.12,-39.85"/>
</g>
<!-- 321&#45;&gt;1 -->
<g id="edge57" class="edge">
<title>321&#45;&gt;1</title>
<path fill="none" stroke="green" stroke-width="0.32" d="M1090.61,-73C1086.29,-70.13 1081.47,-67.43 1076.62,-65.7 1052.63,-57.11 675.05,-26.08 573.57,-17.86"/>
<polygon fill="green" stroke="green" stroke-width="0.32" points="573.6,-14.35 563.35,-17.03 573.04,-21.33 573.6,-14.35"/>
</g>
<!-- 321&#45;&gt;2 -->
<g id="edge138" class="edge">
<title>321&#45;&gt;2</title>
<path fill="none" stroke="green" stroke-width="0.39" d="M1090.22,-72.96C1085.99,-70.17 1081.31,-67.52 1076.62,-65.7 975.26,-26.35 941.98,-46.97 834.62,-29.7 815.97,-26.7 794.91,-23.04 779.09,-20.24"/>
<polygon fill="green" stroke="green" stroke-width="0.39" points="779.52,-16.76 769.06,-18.45 778.29,-23.65 779.52,-16.76"/>
</g>
<!-- 321&#45;&gt;3 -->
<g id="edge38" class="edge">
<title>321&#45;&gt;3</title>
<path fill="none" stroke="red" stroke-width="0.23" d="M1090.64,-72.73C1076.49,-61.07 1055.81,-44.02 1040.78,-31.64"/>
<polygon fill="red" stroke="red" stroke-width="0.23" points="1042.61,-28.61 1032.67,-24.95 1038.16,-34.02 1042.61,-28.61"/>
</g>
<!-- 322&#45;&gt;0 -->
<g id="edge135" class="edge">
<title>322&#45;&gt;0</title>
<path fill="none" stroke="green" stroke-width="0.24" d="M686.97,-72.82C691.2,-70.03 695.9,-67.41 700.62,-65.7 845.53,-13.06 893.52,-54.81 1045.62,-29.7 1057.8,-27.69 1071.19,-24.73 1082.32,-22.07"/>
<polygon fill="green" stroke="green" stroke-width="0.24" points="1083.3,-25.43 1092.18,-19.64 1081.63,-18.63 1083.3,-25.43"/>
</g>
<!-- 322&#45;&gt;2 -->
<g id="edge20" class="edge">
<title>322&#45;&gt;2</title>
<path fill="none" stroke="red" stroke-width="0.24" d="M686.42,-72.73C700.41,-61.07 720.84,-44.02 735.7,-31.64"/>
<polygon fill="red" stroke="red" stroke-width="0.24" points="738.27,-34.05 743.71,-24.95 733.79,-28.67 738.27,-34.05"/>
</g>
<!-- 322&#45;&gt;3 -->
<g id="edge171" class="edge">
<title>322&#45;&gt;3</title>
<path fill="none" stroke="red" stroke-width="0.44" d="M687.03,-72.99C691.26,-70.19 695.95,-67.53 700.62,-65.7 754.85,-44.45 930.54,-25.04 996.39,-18.33"/>
<polygon fill="red" stroke="red" stroke-width="0.44" points="997.07,-21.78 1006.67,-17.3 996.37,-14.82 997.07,-21.78"/>
</g>
<!-- 323&#45;&gt;0 -->
<g id="edge44" class="edge">
<title>323&#45;&gt;0</title>
<path fill="none" stroke="red" stroke-width="0.32" d="M1346.13,-73.19C1341.9,-70.39 1337.24,-67.68 1332.62,-65.7 1263.32,-35.99 1174.18,-23.05 1131.52,-18.26"/>
<polygon fill="red" stroke="red" stroke-width="0.32" points="1131.8,-14.77 1121.49,-17.19 1131.06,-21.73 1131.8,-14.77"/>
</g>
<!-- 323&#45;&gt;2 -->
<g id="edge159" class="edge">
<title>323&#45;&gt;2</title>
<path fill="none" stroke="red" stroke-width="0.2" d="M1346.63,-72.92C1342.32,-70.06 1337.49,-67.38 1332.62,-65.7 1227.75,-29.48 944.76,-43.18 834.62,-29.7 815.87,-27.4 794.82,-23.71 779.02,-20.72"/>
<polygon fill="red" stroke="red" stroke-width="0.2" points="779.5,-17.25 769.01,-18.78 778.17,-24.12 779.5,-17.25"/>
</g>
<!-- 323&#45;&gt;4 -->
<g id="edge10" class="edge">
<title>323&#45;&gt;4</title>
<path fill="none" stroke="green" stroke-width="0.24" d="M1346.28,-72.82C1342.05,-70.03 1337.35,-67.42 1332.62,-65.7 1327.27,-63.75 980.24,-28.25 883.45,-18.38"/>
<polygon fill="green" stroke="green" stroke-width="0.24" points="883.71,-14.89 873.4,-17.35 883,-21.85 883.71,-14.89"/>
</g>
<!-- 324&#45;&gt;2 -->
<g id="edge18" class="edge">
<title>324&#45;&gt;2</title>
<path fill="none" stroke="red" stroke-width="0.17" d="M1150.26,-72.87C1146.03,-70.08 1141.33,-67.45 1136.62,-65.7 1009.92,-18.62 968.38,-49.23 834.62,-29.7 815.93,-26.97 794.87,-23.3 779.06,-20.42"/>
<polygon fill="red" stroke="red" stroke-width="0.17" points="779.51,-16.95 769.04,-18.58 778.24,-23.83 779.51,-16.95"/>
</g>
<!-- 324&#45;&gt;3 -->
<g id="edge142" class="edge">
<title>324&#45;&gt;3</title>
<path fill="none" stroke="red" stroke-width="0.28" d="M1149.83,-73.81C1145.61,-70.99 1141.03,-68.11 1136.62,-65.7 1106.03,-48.95 1068.67,-33.63 1045,-24.52"/>
<polygon fill="red" stroke="red" stroke-width="0.28" points="1046.05,-21.18 1035.46,-20.9 1043.57,-27.72 1046.05,-21.18"/>
</g>
<!-- 324&#45;&gt;4 -->
<g id="edge4" class="edge">
<title>324&#45;&gt;4</title>
<path fill="none" stroke="green" stroke-width="0.15" d="M1150.18,-73.06C1145.96,-70.27 1141.28,-67.59 1136.62,-65.7 1090.42,-46.97 942.22,-26.54 883.21,-18.93"/>
<polygon fill="green" stroke="green" stroke-width="0.15" points="883.63,-15.46 873.27,-17.66 882.75,-22.4 883.63,-15.46"/>
</g>
<!-- 326&#45;&gt;0 -->
<g id="edge76" class="edge">
<title>326&#45;&gt;0</title>
<path fill="none" stroke="red" stroke-width="0.14" d="M1481.45,-74.24C1475.97,-71 1469.73,-67.8 1463.62,-65.7 1344.37,-24.69 1191.66,-17.35 1132.05,-16.09"/>
<polygon fill="red" stroke="red" stroke-width="0.14" points="1131.78,-12.58 1121.72,-15.91 1131.66,-19.58 1131.78,-12.58"/>
</g>
<!-- 326&#45;&gt;2 -->
<g id="edge47" class="edge">
<title>326&#45;&gt;2</title>
<path fill="none" stroke="red" stroke-width="0.18" d="M1478.03,-81.2C1456.76,-76.52 1422.55,-69.5 1392.62,-65.7 1146.09,-34.36 1081.41,-58.94 834.62,-29.7 815.86,-27.48 794.81,-23.78 779.01,-20.77"/>
<polygon fill="red" stroke="red" stroke-width="0.18" points="779.49,-17.3 769.01,-18.82 778.15,-24.17 779.49,-17.3"/>
</g>
<!-- 326&#45;&gt;3 -->
<g id="edge9" class="edge">
<title>326&#45;&gt;3</title>
<path fill="none" stroke="green" stroke-width="0.13" d="M1478.69,-79.43C1464.14,-74.93 1443.84,-69.15 1425.62,-65.7 1275.02,-37.15 1233.85,-54.71 1082.62,-29.7 1070.44,-27.68 1057.05,-24.73 1045.93,-22.06"/>
<polygon fill="green" stroke="green" stroke-width="0.13" points="1046.62,-18.63 1036.07,-19.64 1044.95,-25.43 1046.62,-18.63"/>
</g>
<!-- 327&#45;&gt;0 -->
<g id="edge33" class="edge">
<title>327&#45;&gt;0</title>
<path fill="none" stroke="red" stroke-width="0.57" d="M845.08,-73.11C849.31,-70.31 853.98,-67.62 858.62,-65.7 936.86,-33.4 962.79,-47.07 1045.62,-29.7 1057.71,-27.16 1071.09,-24.15 1082.23,-21.58"/>
<polygon fill="red" stroke="red" stroke-width="0.57" points="1083.16,-24.96 1092.11,-19.29 1081.58,-18.14 1083.16,-24.96"/>
</g>
<!-- 327&#45;&gt;1 -->
<g id="edge121" class="edge">
<title>327&#45;&gt;1</title>
<path fill="none" stroke="green" stroke-width="0.31" d="M808.48,-79.59C794.99,-75.44 776.81,-70 760.62,-65.7 693.01,-47.72 612.38,-29.69 572.88,-21.07"/>
<polygon fill="green" stroke="green" stroke-width="0.31" points="573.61,-17.65 563.09,-18.95 572.12,-24.49 573.61,-17.65"/>
</g>
<!-- 327&#45;&gt;2 -->
<g id="edge100" class="edge">
<title>327&#45;&gt;2</title>
<path fill="none" stroke="green" stroke-width="0.11" d="M813.65,-71.73C801.87,-60.58 785.41,-45 772.86,-33.12"/>
<polygon fill="green" stroke="green" stroke-width="0.11" points="774.94,-30.26 765.27,-25.93 770.13,-35.35 774.94,-30.26"/>
</g>
<!-- 327&#45;&gt;3 -->
<g id="edge163" class="edge">
<title>327&#45;&gt;3</title>
<path fill="none" stroke="red" stroke-width="0.11" d="M845.24,-73.45C849.46,-70.65 854.09,-67.86 858.62,-65.7 905.42,-43.39 964.51,-28.27 997.14,-20.95"/>
<polygon fill="red" stroke="red" stroke-width="0.11" points="998.12,-24.31 1007.14,-18.76 996.63,-17.48 998.12,-24.31"/>
</g>
<!-- 327&#45;&gt;4 -->
<g id="edge27" class="edge">
<title>327&#45;&gt;4</title>
<path fill="none" stroke="green" stroke-width="0.33" d="M836.66,-67.14C840.49,-58.21 845.09,-47.47 849.09,-38.13"/>
<polygon fill="green" stroke="green" stroke-width="0.33" points="852.41,-39.26 853.12,-28.69 845.97,-36.51 852.41,-39.26"/>
</g>
<!-- 328&#45;&gt;0 -->
<g id="edge169" class="edge">
<title>328&#45;&gt;0</title>
<path fill="none" stroke="green" stroke-width="0.16" d="M555.24,-81.35C576.53,-76.78 610.75,-69.86 640.62,-65.7 819.6,-40.74 867.11,-57.77 1045.62,-29.7 1057.82,-27.78 1071.21,-24.84 1082.33,-22.15"/>
<polygon fill="green" stroke="green" stroke-width="0.16" points="1083.33,-25.51 1092.19,-19.7 1081.64,-18.72 1083.33,-25.51"/>
</g>
<!-- 328&#45;&gt;2 -->
<g id="edge31" class="edge">
<title>328&#45;&gt;2</title>
<path fill="none" stroke="green" stroke-width="0.33" d="M551.97,-74.7C557.46,-71.48 563.66,-68.17 569.62,-65.7 624.75,-42.81 693.49,-27.52 729.67,-20.42"/>
<polygon fill="green" stroke="green" stroke-width="0.33" points="730.64,-23.8 739.81,-18.48 729.33,-16.92 730.64,-23.8"/>
</g>
<!-- 328&#45;&gt;3 -->
<g id="edge103" class="edge">
<title>328&#45;&gt;3</title>
<path fill="none" stroke="red" stroke-width="0.26" d="M555.28,-81.6C576.6,-77.24 610.84,-70.48 640.62,-65.7 774.25,-44.24 935.36,-25.48 996.47,-18.63"/>
<polygon fill="red" stroke="red" stroke-width="0.26" points="997.14,-22.07 1006.69,-17.49 996.36,-15.12 997.14,-22.07"/>
</g>
<!-- 328&#45;&gt;4 -->
<g id="edge129" class="edge">
<title>328&#45;&gt;4</title>
<path fill="none" stroke="green" stroke-width="0.31" d="M551.84,-74.36C557.33,-71.12 563.55,-67.89 569.62,-65.7 658.26,-33.63 685.74,-45.74 778.62,-29.7 797.25,-26.48 818.3,-22.84 834.14,-20.09"/>
<polygon fill="green" stroke="green" stroke-width="0.31" points="834.92,-23.51 844.17,-18.35 833.72,-16.61 834.92,-23.51"/>
</g>
<!-- 329&#45;&gt;2 -->
<g id="edge131" class="edge">
<title>329&#45;&gt;2</title>
<path fill="none" stroke="red" stroke-width="0.26" d="M737.31,-66.4C740.22,-57.9 743.65,-47.87 746.69,-39"/>
<polygon fill="red" stroke="red" stroke-width="0.26" points="750.09,-39.87 750.02,-29.28 743.47,-37.6 750.09,-39.87"/>
</g>
<!-- 329&#45;&gt;3 -->
<g id="edge42" class="edge">
<title>329&#45;&gt;3</title>
<path fill="none" stroke="red" stroke-width="0.53" d="M750.75,-79.53C764.24,-75.36 782.41,-69.91 798.62,-65.7 870.35,-47.05 956.14,-29.07 997.28,-20.72"/>
<polygon fill="red" stroke="red" stroke-width="0.53" points="998.08,-24.13 1007.19,-18.72 996.7,-17.26 998.08,-24.13"/>
</g>
<!-- 330&#45;&gt;0 -->
<g id="edge1" class="edge">
<title>330&#45;&gt;0</title>
<path fill="none" stroke="green" stroke-width="0.12" d="M905.18,-73.33C909.4,-70.53 914.05,-67.77 918.62,-65.7 948.02,-52.36 1038.41,-31.13 1082.26,-21.24"/>
<polygon fill="green" stroke="green" stroke-width="0.12" points="1083.1,-24.64 1092.1,-19.04 1081.57,-17.81 1083.1,-24.64"/>
</g>
<!-- 330&#45;&gt;2 -->
<g id="edge46" class="edge">
<title>330&#45;&gt;2</title>
<path fill="none" stroke="red" stroke-width="0.13" d="M871.76,-73.93C867.55,-71.1 862.98,-68.19 858.62,-65.7 831.47,-50.15 798.72,-35.01 777.32,-25.58"/>
<polygon fill="red" stroke="red" stroke-width="0.13" points="778.64,-22.33 768.07,-21.54 775.84,-28.75 778.64,-22.33"/>
</g>
<!-- 330&#45;&gt;4 -->
<g id="edge88" class="edge">
<title>330&#45;&gt;4</title>
<path fill="none" stroke="green" stroke-width="0.6" d="M880.58,-67.14C876.76,-58.21 872.16,-47.47 868.16,-38.13"/>
<polygon fill="green" stroke="green" stroke-width="0.6" points="871.28,-36.51 864.12,-28.69 864.84,-39.26 871.28,-36.51"/>
</g>
<!-- 331&#45;&gt;0 -->
<g id="edge128" class="edge">
<title>331&#45;&gt;0</title>
<path fill="none" stroke="green" stroke-width="0.17" d="M359.22,-81.17C380.48,-76.46 414.69,-69.43 444.62,-65.7 710.16,-32.57 780.71,-67.45 1045.62,-29.7 1057.85,-27.96 1071.24,-25.03 1082.36,-22.32"/>
<polygon fill="green" stroke="green" stroke-width="0.17" points="1083.37,-25.67 1092.2,-19.82 1081.65,-18.89 1083.37,-25.67"/>
</g>
<!-- 331&#45;&gt;1 -->
<g id="edge170" class="edge">
<title>331&#45;&gt;1</title>
<path fill="none" stroke="green" stroke-width="0.49" d="M356.35,-74.54C361.76,-71.39 367.81,-68.16 373.62,-65.7 425.33,-43.8 489.61,-28.28 524.07,-20.83"/>
<polygon fill="green" stroke="green" stroke-width="0.49" points="525.09,-24.2 534.15,-18.7 523.65,-17.35 525.09,-24.2"/>
</g>
<!-- 331&#45;&gt;2 -->
<g id="edge151" class="edge">
<title>331&#45;&gt;2</title>
<path fill="none" stroke="green" stroke-width="0.79" d="M355.78,-74.21C361.27,-70.97 367.51,-67.77 373.62,-65.7 440.18,-43.13 655.24,-23.95 729.29,-17.86"/>
<polygon fill="green" stroke="green" stroke-width="0.79" points="729.86,-21.33 739.54,-17.03 729.29,-14.35 729.86,-21.33"/>
</g>
<!-- 332&#45;&gt;3 -->
<g id="edge43" class="edge">
<title>332&#45;&gt;3</title>
<path fill="none" stroke="red" stroke-width="0.45" d="M1285.38,-74.44C1279.89,-71.21 1273.67,-67.96 1267.62,-65.7 1189.17,-36.35 1164.59,-46.97 1082.62,-29.7 1070.54,-27.15 1057.17,-24.14 1046.02,-21.57"/>
<polygon fill="red" stroke="red" stroke-width="0.45" points="1046.67,-18.13 1036.14,-19.28 1045.09,-24.95 1046.67,-18.13"/>
</g>
<!-- 333&#45;&gt;0 -->
<g id="edge118" class="edge">
<title>333&#45;&gt;0</title>
<path fill="none" stroke="red" stroke-width="0.42" d="M490.61,-72.9C494.92,-70.04 499.75,-67.37 504.62,-65.7 618.62,-26.69 926.4,-47.09 1045.62,-29.7 1057.84,-27.92 1071.23,-24.99 1082.35,-22.28"/>
<polygon fill="red" stroke="red" stroke-width="0.42" points="1083.36,-25.63 1092.2,-19.8 1081.65,-18.85 1083.36,-25.63"/>
</g>
<!-- 333&#45;&gt;1 -->
<g id="edge65" class="edge">
<title>333&#45;&gt;1</title>
<path fill="none" stroke="red" stroke-width="0.28" d="M489.6,-71.73C501.38,-60.58 517.84,-45 530.39,-33.12"/>
<polygon fill="red" stroke="red" stroke-width="0.28" points="533.12,-35.35 537.98,-25.93 528.31,-30.26 533.12,-35.35"/>
</g>
<!-- 333&#45;&gt;2 -->
<g id="edge143" class="edge">
<title>333&#45;&gt;2</title>
<path fill="none" stroke="green" stroke-width="0.59" d="M491.09,-73.13C495.32,-70.33 499.99,-67.63 504.62,-65.7 582.72,-33.15 683.59,-21.42 729.67,-17.56"/>
<polygon fill="green" stroke="green" stroke-width="0.59" points="729.96,-21.05 739.66,-16.78 729.42,-14.07 729.96,-21.05"/>
</g>
<!-- 333&#45;&gt;3 -->
<g id="edge166" class="edge">
<title>333&#45;&gt;3</title>
<path fill="none" stroke="red" stroke-width="0.51" d="M490.64,-73C494.96,-70.13 499.78,-67.43 504.62,-65.7 663.5,-8.79 714.66,-46.06 882.62,-29.7 922.47,-25.82 968.73,-21.18 996.56,-18.38"/>
<polygon fill="red" stroke="red" stroke-width="0.51" points="997.01,-21.85 1006.61,-17.37 996.31,-14.89 997.01,-21.85"/>
</g>
<!-- 333&#45;&gt;4 -->
<g id="edge17" class="edge">
<title>333&#45;&gt;4</title>
<path fill="none" stroke="red" stroke-width="0.53" d="M491,-72.91C495.23,-70.12 499.93,-67.48 504.62,-65.7 619.5,-22.23 657.2,-48.18 778.62,-29.7 797.31,-26.86 818.36,-23.19 834.18,-20.35"/>
<polygon fill="red" stroke="red" stroke-width="0.53" points="834.99,-23.76 844.2,-18.53 833.74,-16.87 834.99,-23.76"/>
</g>
<!-- 334&#45;&gt;0 -->
<g id="edge157" class="edge">
<title>334&#45;&gt;0</title>
<path fill="none" stroke="red" stroke-width="0.35" d="M1059.94,-70.36C1068.96,-59.83 1080.94,-45.84 1090.5,-34.67"/>
<polygon fill="red" stroke="red" stroke-width="0.35" points="1093.41,-36.66 1097.26,-26.79 1088.09,-32.11 1093.41,-36.66"/>
</g>
<!-- 334&#45;&gt;1 -->
<g id="edge130" class="edge">
<title>334&#45;&gt;1</title>
<path fill="none" stroke="green" stroke-width="0.11" d="M1026.62,-78.97C1013.2,-74.56 995.03,-69.06 978.62,-65.7 826.91,-34.6 640.81,-21.27 573.99,-17.25"/>
<polygon fill="green" stroke="green" stroke-width="0.11" points="573.81,-13.73 563.63,-16.64 573.4,-20.72 573.81,-13.73"/>
</g>
<!-- 334&#45;&gt;3 -->
<g id="edge26" class="edge">
<title>334&#45;&gt;3</title>
<path fill="none" stroke="green" stroke-width="0.35" d="M1039.79,-66.77C1036.68,-58.05 1032.98,-47.68 1029.73,-38.57"/>
<polygon fill="green" stroke="green" stroke-width="0.35" points="1032.97,-37.23 1026.31,-28.99 1026.38,-39.58 1032.97,-37.23"/>
</g>
<!-- 334&#45;&gt;4 -->
<g id="edge52" class="edge">
<title>334&#45;&gt;4</title>
<path fill="none" stroke="red" stroke-width="0.19" d="M1026.86,-78.55C991.87,-65.51 919.22,-38.43 881.88,-24.52"/>
<polygon fill="red" stroke="red" stroke-width="0.19" points="882.94,-21.18 872.35,-20.96 880.5,-27.74 882.94,-21.18"/>
</g>
</g>
</svg>
