<?xml version="1.0" encoding="utf-8" standalone="no"?>
<!DOCTYPE svg PUBLIC "-//W3C//DTD SVG 1.1//EN"
  "http://www.w3.org/Graphics/SVG/1.1/DTD/svg11.dtd">
<svg height="345.6pt" version="1.1" viewBox="0 0 460.8 345.6" width="460.8pt" xmlns="http://www.w3.org/2000/svg" xmlns:xlink="http://www.w3.org/1999/xlink">
 <metadata>
  <rdf:RDF xmlns:cc="http://creativecommons.org/ns#" xmlns:dc="http://purl.org/dc/elements/1.1/" xmlns:rdf="http://www.w3.org/1999/02/22-rdf-syntax-ns#">
   <cc:Work>
    <dc:type rdf:resource="http://purl.org/dc/dcmitype/StillImage"/>
    <dc:date>2021-09-27T12:52:34.182182</dc:date>
    <dc:format>image/svg+xml</dc:format>
    <dc:creator>
     <cc:Agent>
      <dc:title>Matplotlib v3.4.2, https://matplotlib.org/</dc:title>
     </cc:Agent>
    </dc:creator>
   </cc:Work>
  </rdf:RDF>
 </metadata>
 <defs>
  <style type="text/css">*{stroke-linecap:butt;stroke-linejoin:round;}</style>
 </defs>
 <g id="figure_1">
  <g id="patch_1">
   <path d="M 0 345.6 
L 460.8 345.6 
L 460.8 0 
L 0 0 
z
" style="fill:#ffffff;"/>
  </g>
  <g id="axes_1">
   <g id="patch_2">
    <path d="M 57.6 307.584 
L 414.72 307.584 
L 414.72 41.472 
L 57.6 41.472 
z
" style="fill:#ffffff;"/>
   </g>
   <g id="PolyCollection_1">
    <path clip-path="url(#pbffe820f13)" d="M 73.832727 248.530019 
L 73.832727 307.584 
L 77.112066 307.584 
L 80.391405 307.584 
L 83.670744 307.584 
L 86.950083 307.584 
L 90.229421 307.584 
L 93.50876 307.584 
L 96.788099 307.584 
L 100.067438 307.584 
L 103.346777 307.584 
L 106.626116 307.584 
L 109.905455 307.584 
L 113.184793 307.584 
L 116.464132 307.584 
L 119.743471 307.584 
L 123.02281 307.584 
L 126.302149 307.584 
L 129.581488 307.584 
L 132.860826 307.584 
L 136.140165 307.584 
L 139.419504 307.584 
L 142.698843 307.584 
L 145.978182 307.584 
L 149.257521 307.584 
L 152.53686 307.584 
L 155.816198 307.584 
L 159.095537 307.584 
L 162.374876 307.584 
L 165.654215 307.584 
L 168.933554 307.584 
L 172.212893 307.584 
L 175.492231 307.584 
L 178.77157 307.584 
L 182.050909 307.584 
L 185.330248 307.584 
L 188.609587 307.584 
L 191.888926 307.584 
L 195.168264 307.584 
L 198.447603 307.584 
L 201.726942 307.584 
L 205.006281 307.584 
L 208.28562 307.584 
L 211.564959 307.584 
L 214.844298 307.584 
L 218.123636 307.584 
L 221.402975 307.584 
L 224.682314 307.584 
L 227.961653 307.584 
L 231.240992 307.584 
L 234.520331 307.584 
L 237.799669 307.584 
L 241.079008 307.584 
L 244.358347 307.584 
L 247.637686 307.584 
L 250.917025 307.584 
L 254.196364 307.584 
L 257.475702 307.584 
L 260.755041 307.584 
L 264.03438 307.584 
L 267.313719 307.584 
L 270.593058 307.584 
L 273.872397 307.584 
L 277.151736 307.584 
L 280.431074 307.584 
L 283.710413 307.584 
L 286.989752 307.584 
L 290.269091 307.584 
L 293.54843 307.584 
L 296.827769 307.584 
L 300.107107 307.584 
L 303.386446 307.584 
L 306.665785 307.584 
L 309.945124 307.584 
L 313.224463 307.584 
L 316.503802 307.584 
L 319.78314 307.584 
L 323.062479 307.584 
L 326.341818 307.584 
L 329.621157 307.584 
L 332.900496 307.584 
L 336.179835 307.584 
L 339.459174 307.584 
L 342.738512 307.584 
L 346.017851 307.584 
L 349.29719 307.584 
L 352.576529 307.584 
L 355.855868 307.584 
L 359.135207 307.584 
L 362.414545 307.584 
L 365.693884 307.584 
L 368.973223 307.584 
L 372.252562 307.584 
L 375.531901 307.584 
L 378.81124 307.584 
L 382.090579 307.584 
L 385.369917 307.584 
L 388.649256 307.584 
L 391.928595 307.584 
L 395.207934 307.584 
L 398.487273 307.584 
L 398.487273 307.584 
L 398.487273 307.584 
L 395.207934 307.584 
L 391.928595 307.584 
L 388.649256 307.584 
L 385.369917 307.584 
L 382.090579 307.584 
L 378.81124 307.584 
L 375.531901 307.584 
L 372.252562 307.584 
L 368.973223 307.584 
L 365.693884 307.584 
L 362.414545 307.584 
L 359.135207 307.584 
L 355.855868 307.584 
L 352.576529 307.584 
L 349.29719 307.584 
L 346.017851 307.584 
L 342.738512 307.584 
L 339.459174 307.584 
L 336.179835 307.584 
L 332.900496 307.584 
L 329.621157 307.584 
L 326.341818 307.584 
L 323.062479 307.584 
L 319.78314 307.584 
L 316.503802 307.584 
L 313.224463 307.584 
L 309.945124 307.584 
L 306.665785 307.584 
L 303.386446 307.584 
L 300.107107 307.584 
L 296.827769 307.584 
L 293.54843 307.584 
L 290.269091 307.584 
L 286.989752 307.584 
L 283.710413 307.584 
L 280.431074 307.584 
L 277.151736 307.584 
L 273.872397 307.584 
L 270.593058 307.584 
L 267.313719 307.584 
L 264.03438 307.584 
L 260.755041 307.584 
L 257.475702 307.584 
L 254.196364 307.584 
L 250.917025 307.584 
L 247.637686 307.584 
L 244.358347 307.584 
L 241.079008 307.584 
L 237.799669 307.584 
L 234.520331 307.584 
L 231.240992 307.584 
L 227.961653 307.584 
L 224.682314 307.584 
L 221.402975 307.584 
L 218.123636 307.584 
L 214.844298 307.584 
L 211.564959 307.584 
L 208.28562 307.584 
L 205.006281 307.584 
L 201.726942 307.584 
L 198.447603 307.584 
L 195.168264 307.584 
L 191.888926 307.584 
L 188.609587 307.584 
L 185.330248 307.584 
L 182.050909 307.584 
L 178.77157 307.584 
L 175.492231 307.584 
L 172.212893 307.584 
L 168.933554 307.584 
L 165.654215 307.584 
L 162.374876 307.584 
L 159.095537 307.584 
L 155.816198 307.584 
L 152.53686 307.584 
L 149.257521 307.584 
L 145.978182 307.584 
L 142.698843 307.584 
L 139.419504 290.359922 
L 136.140165 292.820505 
L 132.860826 295.281087 
L 129.581488 297.74167 
L 126.302149 300.202252 
L 123.02281 297.74167 
L 119.743471 300.202252 
L 116.464132 297.74167 
L 113.184793 300.202252 
L 109.905455 297.74167 
L 106.626116 300.202252 
L 103.346777 297.74167 
L 100.067438 300.202252 
L 96.788099 302.662835 
L 93.50876 305.123417 
L 90.229421 275.596427 
L 86.950083 302.662835 
L 83.670744 297.74167 
L 80.391405 260.832932 
L 77.112066 297.74167 
L 73.832727 248.530019 
z
" style="fill:#1f77b4;"/>
   </g>
   <g id="PolyCollection_2">
    <path clip-path="url(#pbffe820f13)" d="M 73.832727 189.476039 
L 73.832727 248.530019 
L 77.112066 297.74167 
L 80.391405 260.832932 
L 83.670744 297.74167 
L 86.950083 302.662835 
L 90.229421 275.596427 
L 93.50876 305.123417 
L 96.788099 302.662835 
L 100.067438 300.202252 
L 103.346777 297.74167 
L 106.626116 300.202252 
L 109.905455 297.74167 
L 113.184793 300.202252 
L 116.464132 297.74167 
L 119.743471 300.202252 
L 123.02281 297.74167 
L 126.302149 300.202252 
L 129.581488 297.74167 
L 132.860826 295.281087 
L 136.140165 292.820505 
L 139.419504 290.359922 
L 142.698843 307.584 
L 145.978182 307.584 
L 149.257521 307.584 
L 152.53686 307.584 
L 155.816198 307.584 
L 159.095537 307.584 
L 162.374876 307.584 
L 165.654215 307.584 
L 168.933554 307.584 
L 172.212893 307.584 
L 175.492231 307.584 
L 178.77157 307.584 
L 182.050909 307.584 
L 185.330248 307.584 
L 188.609587 307.584 
L 191.888926 307.584 
L 195.168264 307.584 
L 198.447603 307.584 
L 201.726942 307.584 
L 205.006281 307.584 
L 208.28562 307.584 
L 211.564959 307.584 
L 214.844298 307.584 
L 218.123636 307.584 
L 221.402975 307.584 
L 224.682314 307.584 
L 227.961653 307.584 
L 231.240992 307.584 
L 234.520331 307.584 
L 237.799669 307.584 
L 241.079008 307.584 
L 244.358347 307.584 
L 247.637686 307.584 
L 250.917025 307.584 
L 254.196364 307.584 
L 257.475702 307.584 
L 260.755041 307.584 
L 264.03438 307.584 
L 267.313719 307.584 
L 270.593058 307.584 
L 273.872397 307.584 
L 277.151736 307.584 
L 280.431074 307.584 
L 283.710413 307.584 
L 286.989752 307.584 
L 290.269091 307.584 
L 293.54843 307.584 
L 296.827769 307.584 
L 300.107107 307.584 
L 303.386446 307.584 
L 306.665785 307.584 
L 309.945124 307.584 
L 313.224463 307.584 
L 316.503802 307.584 
L 319.78314 307.584 
L 323.062479 307.584 
L 326.341818 307.584 
L 329.621157 307.584 
L 332.900496 307.584 
L 336.179835 307.584 
L 339.459174 307.584 
L 342.738512 307.584 
L 346.017851 307.584 
L 349.29719 307.584 
L 352.576529 307.584 
L 355.855868 307.584 
L 359.135207 307.584 
L 362.414545 307.584 
L 365.693884 307.584 
L 368.973223 307.584 
L 372.252562 307.584 
L 375.531901 307.584 
L 378.81124 307.584 
L 382.090579 307.584 
L 385.369917 307.584 
L 388.649256 307.584 
L 391.928595 307.584 
L 395.207934 307.584 
L 398.487273 307.584 
L 398.487273 307.584 
L 398.487273 307.584 
L 395.207934 307.584 
L 391.928595 307.584 
L 388.649256 307.584 
L 385.369917 307.584 
L 382.090579 307.584 
L 378.81124 307.584 
L 375.531901 307.584 
L 372.252562 307.584 
L 368.973223 307.584 
L 365.693884 307.584 
L 362.414545 307.584 
L 359.135207 307.584 
L 355.855868 307.584 
L 352.576529 307.584 
L 349.29719 307.584 
L 346.017851 307.584 
L 342.738512 307.584 
L 339.459174 307.584 
L 336.179835 307.584 
L 332.900496 307.584 
L 329.621157 307.584 
L 326.341818 307.584 
L 323.062479 307.584 
L 319.78314 307.584 
L 316.503802 307.584 
L 313.224463 307.584 
L 309.945124 307.584 
L 306.665785 307.584 
L 303.386446 307.584 
L 300.107107 307.584 
L 296.827769 307.584 
L 293.54843 307.584 
L 290.269091 307.584 
L 286.989752 307.584 
L 283.710413 307.584 
L 280.431074 307.584 
L 277.151736 307.584 
L 273.872397 307.584 
L 270.593058 307.584 
L 267.313719 307.584 
L 264.03438 307.584 
L 260.755041 307.584 
L 257.475702 307.584 
L 254.196364 307.584 
L 250.917025 307.584 
L 247.637686 307.584 
L 244.358347 307.584 
L 241.079008 307.584 
L 237.799669 307.584 
L 234.520331 307.584 
L 231.240992 307.584 
L 227.961653 307.584 
L 224.682314 307.584 
L 221.402975 307.584 
L 218.123636 307.584 
L 214.844298 307.584 
L 211.564959 307.584 
L 208.28562 307.584 
L 205.006281 307.584 
L 201.726942 307.584 
L 198.447603 307.584 
L 195.168264 307.584 
L 191.888926 307.584 
L 188.609587 307.584 
L 185.330248 307.584 
L 182.050909 307.584 
L 178.77157 307.584 
L 175.492231 307.584 
L 172.212893 307.584 
L 168.933554 307.584 
L 165.654215 307.584 
L 162.374876 307.584 
L 159.095537 307.584 
L 155.816198 307.584 
L 152.53686 307.584 
L 149.257521 307.584 
L 145.978182 307.584 
L 142.698843 307.584 
L 139.419504 290.359922 
L 136.140165 292.820505 
L 132.860826 282.978175 
L 129.581488 280.517592 
L 126.302149 285.438757 
L 123.02281 280.517592 
L 119.743471 285.438757 
L 116.464132 285.438757 
L 113.184793 285.438757 
L 109.905455 285.438757 
L 106.626116 290.359922 
L 103.346777 285.438757 
L 100.067438 290.359922 
L 96.788099 295.281087 
L 93.50876 300.202252 
L 90.229421 265.754097 
L 86.950083 297.74167 
L 83.670744 263.293515 
L 80.391405 253.451184 
L 77.112066 238.687689 
L 73.832727 189.476039 
z
" style="fill:#ff7f0e;"/>
   </g>
   <g id="PolyCollection_3">
    <path clip-path="url(#pbffe820f13)" d="M 73.832727 184.554874 
L 73.832727 189.476039 
L 77.112066 238.687689 
L 80.391405 253.451184 
L 83.670744 263.293515 
L 86.950083 297.74167 
L 90.229421 265.754097 
L 93.50876 300.202252 
L 96.788099 295.281087 
L 100.067438 290.359922 
L 103.346777 285.438757 
L 106.626116 290.359922 
L 109.905455 285.438757 
L 113.184793 285.438757 
L 116.464132 285.438757 
L 119.743471 285.438757 
L 123.02281 280.517592 
L 126.302149 285.438757 
L 129.581488 280.517592 
L 132.860826 282.978175 
L 136.140165 292.820505 
L 139.419504 290.359922 
L 142.698843 307.584 
L 145.978182 307.584 
L 149.257521 307.584 
L 152.53686 307.584 
L 155.816198 307.584 
L 159.095537 307.584 
L 162.374876 307.584 
L 165.654215 307.584 
L 168.933554 307.584 
L 172.212893 307.584 
L 175.492231 307.584 
L 178.77157 307.584 
L 182.050909 307.584 
L 185.330248 307.584 
L 188.609587 307.584 
L 191.888926 307.584 
L 195.168264 307.584 
L 198.447603 307.584 
L 201.726942 307.584 
L 205.006281 307.584 
L 208.28562 307.584 
L 211.564959 307.584 
L 214.844298 307.584 
L 218.123636 307.584 
L 221.402975 307.584 
L 224.682314 307.584 
L 227.961653 307.584 
L 231.240992 307.584 
L 234.520331 307.584 
L 237.799669 307.584 
L 241.079008 307.584 
L 244.358347 307.584 
L 247.637686 307.584 
L 250.917025 307.584 
L 254.196364 307.584 
L 257.475702 307.584 
L 260.755041 307.584 
L 264.03438 307.584 
L 267.313719 307.584 
L 270.593058 307.584 
L 273.872397 307.584 
L 277.151736 307.584 
L 280.431074 307.584 
L 283.710413 307.584 
L 286.989752 307.584 
L 290.269091 307.584 
L 293.54843 307.584 
L 296.827769 307.584 
L 300.107107 307.584 
L 303.386446 307.584 
L 306.665785 307.584 
L 309.945124 307.584 
L 313.224463 307.584 
L 316.503802 307.584 
L 319.78314 307.584 
L 323.062479 307.584 
L 326.341818 307.584 
L 329.621157 307.584 
L 332.900496 307.584 
L 336.179835 307.584 
L 339.459174 307.584 
L 342.738512 307.584 
L 346.017851 307.584 
L 349.29719 307.584 
L 352.576529 307.584 
L 355.855868 307.584 
L 359.135207 307.584 
L 362.414545 307.584 
L 365.693884 307.584 
L 368.973223 307.584 
L 372.252562 307.584 
L 375.531901 307.584 
L 378.81124 307.584 
L 382.090579 307.584 
L 385.369917 307.584 
L 388.649256 307.584 
L 391.928595 307.584 
L 395.207934 307.584 
L 398.487273 307.584 
L 398.487273 307.584 
L 398.487273 307.584 
L 395.207934 307.584 
L 391.928595 307.584 
L 388.649256 307.584 
L 385.369917 307.584 
L 382.090579 307.584 
L 378.81124 307.584 
L 375.531901 307.584 
L 372.252562 307.584 
L 368.973223 307.584 
L 365.693884 307.584 
L 362.414545 307.584 
L 359.135207 307.584 
L 355.855868 307.584 
L 352.576529 307.584 
L 349.29719 307.584 
L 346.017851 307.584 
L 342.738512 307.584 
L 339.459174 307.584 
L 336.179835 307.584 
L 332.900496 307.584 
L 329.621157 307.584 
L 326.341818 307.584 
L 323.062479 307.584 
L 319.78314 307.584 
L 316.503802 307.584 
L 313.224463 307.584 
L 309.945124 307.584 
L 306.665785 307.584 
L 303.386446 307.584 
L 300.107107 307.584 
L 296.827769 307.584 
L 293.54843 307.584 
L 290.269091 307.584 
L 286.989752 307.584 
L 283.710413 307.584 
L 280.431074 307.584 
L 277.151736 307.584 
L 273.872397 307.584 
L 270.593058 307.584 
L 267.313719 307.584 
L 264.03438 307.584 
L 260.755041 307.584 
L 257.475702 307.584 
L 254.196364 307.584 
L 250.917025 307.584 
L 247.637686 307.584 
L 244.358347 307.584 
L 241.079008 307.584 
L 237.799669 307.584 
L 234.520331 307.584 
L 231.240992 307.584 
L 227.961653 307.584 
L 224.682314 307.584 
L 221.402975 307.584 
L 218.123636 307.584 
L 214.844298 282.978175 
L 211.564959 285.438757 
L 208.28562 287.89934 
L 205.006281 285.438757 
L 201.726942 282.978175 
L 198.447603 287.89934 
L 195.168264 290.359922 
L 191.888926 287.89934 
L 188.609587 290.359922 
L 185.330248 287.89934 
L 182.050909 282.978175 
L 178.77157 287.89934 
L 175.492231 285.438757 
L 172.212893 290.359922 
L 168.933554 287.89934 
L 165.654215 292.820505 
L 162.374876 295.281087 
L 159.095537 292.820505 
L 155.816198 297.74167 
L 152.53686 295.281087 
L 149.257521 292.820505 
L 145.978182 295.281087 
L 142.698843 297.74167 
L 139.419504 278.05701 
L 136.140165 282.978175 
L 132.860826 270.675262 
L 129.581488 270.675262 
L 126.302149 273.135845 
L 123.02281 265.754097 
L 119.743471 273.135845 
L 116.464132 275.596427 
L 113.184793 273.135845 
L 109.905455 275.596427 
L 106.626116 278.05701 
L 103.346777 278.05701 
L 100.067438 280.517592 
L 96.788099 287.89934 
L 93.50876 290.359922 
L 90.229421 258.37235 
L 86.950083 287.89934 
L 83.670744 250.990602 
L 80.391405 248.530019 
L 77.112066 236.227107 
L 73.832727 184.554874 
z
" style="fill:#2ca02c;"/>
   </g>
   <g id="PolyCollection_4">
    <path clip-path="url(#pbffe820f13)" d="M 73.832727 155.027883 
L 73.832727 184.554874 
L 77.112066 236.227107 
L 80.391405 248.530019 
L 83.670744 250.990602 
L 86.950083 287.89934 
L 90.229421 258.37235 
L 93.50876 290.359922 
L 96.788099 287.89934 
L 100.067438 280.517592 
L 103.346777 278.05701 
L 106.626116 278.05701 
L 109.905455 275.596427 
L 113.184793 273.135845 
L 116.464132 275.596427 
L 119.743471 273.135845 
L 123.02281 265.754097 
L 126.302149 273.135845 
L 129.581488 270.675262 
L 132.860826 270.675262 
L 136.140165 282.978175 
L 139.419504 278.05701 
L 142.698843 297.74167 
L 145.978182 295.281087 
L 149.257521 292.820505 
L 152.53686 295.281087 
L 155.816198 297.74167 
L 159.095537 292.820505 
L 162.374876 295.281087 
L 165.654215 292.820505 
L 168.933554 287.89934 
L 172.212893 290.359922 
L 175.492231 285.438757 
L 178.77157 287.89934 
L 182.050909 282.978175 
L 185.330248 287.89934 
L 188.609587 290.359922 
L 191.888926 287.89934 
L 195.168264 290.359922 
L 198.447603 287.89934 
L 201.726942 282.978175 
L 205.006281 285.438757 
L 208.28562 287.89934 
L 211.564959 285.438757 
L 214.844298 282.978175 
L 218.123636 307.584 
L 221.402975 307.584 
L 224.682314 307.584 
L 227.961653 307.584 
L 231.240992 307.584 
L 234.520331 307.584 
L 237.799669 307.584 
L 241.079008 307.584 
L 244.358347 307.584 
L 247.637686 307.584 
L 250.917025 307.584 
L 254.196364 307.584 
L 257.475702 307.584 
L 260.755041 307.584 
L 264.03438 307.584 
L 267.313719 307.584 
L 270.593058 307.584 
L 273.872397 307.584 
L 277.151736 307.584 
L 280.431074 307.584 
L 283.710413 307.584 
L 286.989752 307.584 
L 290.269091 307.584 
L 293.54843 307.584 
L 296.827769 307.584 
L 300.107107 307.584 
L 303.386446 307.584 
L 306.665785 307.584 
L 309.945124 307.584 
L 313.224463 307.584 
L 316.503802 307.584 
L 319.78314 307.584 
L 323.062479 307.584 
L 326.341818 307.584 
L 329.621157 307.584 
L 332.900496 307.584 
L 336.179835 307.584 
L 339.459174 307.584 
L 342.738512 307.584 
L 346.017851 307.584 
L 349.29719 307.584 
L 352.576529 307.584 
L 355.855868 307.584 
L 359.135207 307.584 
L 362.414545 307.584 
L 365.693884 307.584 
L 368.973223 307.584 
L 372.252562 307.584 
L 375.531901 307.584 
L 378.81124 307.584 
L 382.090579 307.584 
L 385.369917 307.584 
L 388.649256 307.584 
L 391.928595 307.584 
L 395.207934 307.584 
L 398.487273 307.584 
L 398.487273 199.318369 
L 398.487273 199.318369 
L 395.207934 187.015456 
L 391.928595 184.554874 
L 388.649256 182.094291 
L 385.369917 174.712544 
L 382.090579 179.633709 
L 378.81124 177.173126 
L 375.531901 182.094291 
L 372.252562 184.554874 
L 368.973223 177.173126 
L 365.693884 179.633709 
L 362.414545 184.554874 
L 359.135207 189.476039 
L 355.855868 191.936621 
L 352.576529 187.015456 
L 349.29719 182.094291 
L 346.017851 189.476039 
L 342.738512 187.015456 
L 339.459174 189.476039 
L 336.179835 187.015456 
L 332.900496 189.476039 
L 329.621157 187.015456 
L 326.341818 196.857786 
L 323.062479 191.936621 
L 319.78314 189.476039 
L 316.503802 194.397204 
L 313.224463 187.015456 
L 309.945124 182.094291 
L 306.665785 187.015456 
L 303.386446 189.476039 
L 300.107107 187.015456 
L 296.827769 182.094291 
L 293.54843 184.554874 
L 290.269091 172.251961 
L 286.989752 169.791379 
L 283.710413 167.330796 
L 280.431074 169.791379 
L 277.151736 172.251961 
L 273.872397 177.173126 
L 270.593058 174.712544 
L 267.313719 184.554874 
L 264.03438 179.633709 
L 260.755041 184.554874 
L 257.475702 187.015456 
L 254.196364 184.554874 
L 250.917025 187.015456 
L 247.637686 184.554874 
L 244.358347 182.094291 
L 241.079008 174.712544 
L 237.799669 179.633709 
L 234.520331 177.173126 
L 231.240992 189.476039 
L 227.961653 187.015456 
L 224.682314 226.384777 
L 221.402975 246.069437 
L 218.123636 253.451184 
L 214.844298 233.766524 
L 211.564959 238.687689 
L 208.28562 243.608854 
L 205.006281 241.148272 
L 201.726942 241.148272 
L 198.447603 255.911767 
L 195.168264 255.911767 
L 191.888926 250.990602 
L 188.609587 250.990602 
L 185.330248 246.069437 
L 182.050909 236.227107 
L 178.77157 258.37235 
L 175.492231 258.37235 
L 172.212893 260.832932 
L 168.933554 250.990602 
L 165.654215 250.990602 
L 162.374876 258.37235 
L 159.095537 250.990602 
L 155.816198 253.451184 
L 152.53686 263.293515 
L 149.257521 258.37235 
L 145.978182 258.37235 
L 142.698843 258.37235 
L 139.419504 243.608854 
L 136.140165 250.990602 
L 132.860826 241.148272 
L 129.581488 243.608854 
L 126.302149 246.069437 
L 123.02281 236.227107 
L 119.743471 238.687689 
L 116.464132 241.148272 
L 113.184793 238.687689 
L 109.905455 241.148272 
L 106.626116 246.069437 
L 103.346777 241.148272 
L 100.067438 248.530019 
L 96.788099 253.451184 
L 93.50876 263.293515 
L 90.229421 236.227107 
L 86.950083 221.463612 
L 83.670744 214.081864 
L 80.391405 196.857786 
L 77.112066 223.924194 
L 73.832727 155.027883 
z
" style="fill:#d62728;"/>
   </g>
   <g id="PolyCollection_5">
    <path clip-path="url(#pbffe820f13)" d="M 73.832727 108.276816 
L 73.832727 155.027883 
L 77.112066 223.924194 
L 80.391405 196.857786 
L 83.670744 214.081864 
L 86.950083 221.463612 
L 90.229421 236.227107 
L 93.50876 263.293515 
L 96.788099 253.451184 
L 100.067438 248.530019 
L 103.346777 241.148272 
L 106.626116 246.069437 
L 109.905455 241.148272 
L 113.184793 238.687689 
L 116.464132 241.148272 
L 119.743471 238.687689 
L 123.02281 236.227107 
L 126.302149 246.069437 
L 129.581488 243.608854 
L 132.860826 241.148272 
L 136.140165 250.990602 
L 139.419504 243.608854 
L 142.698843 258.37235 
L 145.978182 258.37235 
L 149.257521 258.37235 
L 152.53686 263.293515 
L 155.816198 253.451184 
L 159.095537 250.990602 
L 162.374876 258.37235 
L 165.654215 250.990602 
L 168.933554 250.990602 
L 172.212893 260.832932 
L 175.492231 258.37235 
L 178.77157 258.37235 
L 182.050909 236.227107 
L 185.330248 246.069437 
L 188.609587 250.990602 
L 191.888926 250.990602 
L 195.168264 255.911767 
L 198.447603 255.911767 
L 201.726942 241.148272 
L 205.006281 241.148272 
L 208.28562 243.608854 
L 211.564959 238.687689 
L 214.844298 233.766524 
L 218.123636 253.451184 
L 221.402975 246.069437 
L 224.682314 226.384777 
L 227.961653 187.015456 
L 231.240992 189.476039 
L 234.520331 177.173126 
L 237.799669 179.633709 
L 241.079008 174.712544 
L 244.358347 182.094291 
L 247.637686 184.554874 
L 250.917025 187.015456 
L 254.196364 184.554874 
L 257.475702 187.015456 
L 260.755041 184.554874 
L 264.03438 179.633709 
L 267.313719 184.554874 
L 270.593058 174.712544 
L 273.872397 177.173126 
L 277.151736 172.251961 
L 280.431074 169.791379 
L 283.710413 167.330796 
L 286.989752 169.791379 
L 290.269091 172.251961 
L 293.54843 184.554874 
L 296.827769 182.094291 
L 300.107107 187.015456 
L 303.386446 189.476039 
L 306.665785 187.015456 
L 309.945124 182.094291 
L 313.224463 187.015456 
L 316.503802 194.397204 
L 319.78314 189.476039 
L 323.062479 191.936621 
L 326.341818 196.857786 
L 329.621157 187.015456 
L 332.900496 189.476039 
L 336.179835 187.015456 
L 339.459174 189.476039 
L 342.738512 187.015456 
L 346.017851 189.476039 
L 349.29719 182.094291 
L 352.576529 187.015456 
L 355.855868 191.936621 
L 359.135207 189.476039 
L 362.414545 184.554874 
L 365.693884 179.633709 
L 368.973223 177.173126 
L 372.252562 184.554874 
L 375.531901 182.094291 
L 378.81124 177.173126 
L 382.090579 179.633709 
L 385.369917 174.712544 
L 388.649256 182.094291 
L 391.928595 184.554874 
L 395.207934 187.015456 
L 398.487273 199.318369 
L 398.487273 199.318369 
L 398.487273 199.318369 
L 395.207934 187.015456 
L 391.928595 184.554874 
L 388.649256 182.094291 
L 385.369917 174.712544 
L 382.090579 179.633709 
L 378.81124 177.173126 
L 375.531901 182.094291 
L 372.252562 184.554874 
L 368.973223 177.173126 
L 365.693884 179.633709 
L 362.414545 184.554874 
L 359.135207 189.476039 
L 355.855868 191.936621 
L 352.576529 187.015456 
L 349.29719 182.094291 
L 346.017851 189.476039 
L 342.738512 187.015456 
L 339.459174 189.476039 
L 336.179835 187.015456 
L 332.900496 189.476039 
L 329.621157 187.015456 
L 326.341818 196.857786 
L 323.062479 191.936621 
L 319.78314 189.476039 
L 316.503802 194.397204 
L 313.224463 187.015456 
L 309.945124 182.094291 
L 306.665785 187.015456 
L 303.386446 189.476039 
L 300.107107 187.015456 
L 296.827769 182.094291 
L 293.54843 184.554874 
L 290.269091 172.251961 
L 286.989752 169.791379 
L 283.710413 167.330796 
L 280.431074 169.791379 
L 277.151736 172.251961 
L 273.872397 177.173126 
L 270.593058 174.712544 
L 267.313719 184.554874 
L 264.03438 179.633709 
L 260.755041 184.554874 
L 257.475702 187.015456 
L 254.196364 184.554874 
L 250.917025 187.015456 
L 247.637686 184.554874 
L 244.358347 182.094291 
L 241.079008 174.712544 
L 237.799669 179.633709 
L 234.520331 177.173126 
L 231.240992 189.476039 
L 227.961653 187.015456 
L 224.682314 226.384777 
L 221.402975 246.069437 
L 218.123636 253.451184 
L 214.844298 233.766524 
L 211.564959 238.687689 
L 208.28562 243.608854 
L 205.006281 241.148272 
L 201.726942 241.148272 
L 198.447603 255.911767 
L 195.168264 255.911767 
L 191.888926 250.990602 
L 188.609587 250.990602 
L 185.330248 246.069437 
L 182.050909 236.227107 
L 178.77157 219.003029 
L 175.492231 216.542447 
L 172.212893 216.542447 
L 168.933554 209.160699 
L 165.654215 211.621282 
L 162.374876 214.081864 
L 159.095537 214.081864 
L 155.816198 214.081864 
L 152.53686 231.305942 
L 149.257521 221.463612 
L 145.978182 219.003029 
L 142.698843 223.924194 
L 139.419504 209.160699 
L 136.140165 216.542447 
L 132.860826 211.621282 
L 129.581488 216.542447 
L 126.302149 216.542447 
L 123.02281 209.160699 
L 119.743471 206.700117 
L 116.464132 209.160699 
L 113.184793 206.700117 
L 109.905455 209.160699 
L 106.626116 211.621282 
L 103.346777 209.160699 
L 100.067438 226.384777 
L 96.788099 228.845359 
L 93.50876 231.305942 
L 90.229421 201.778951 
L 86.950083 172.251961 
L 83.670744 184.554874 
L 80.391405 172.251961 
L 77.112066 140.264388 
L 73.832727 108.276816 
z
" style="fill:#9467bd;"/>
   </g>
   <g id="PolyCollection_6">
    <path clip-path="url(#pbffe820f13)" d="M 73.832727 105.816233 
L 73.832727 108.276816 
L 77.112066 140.264388 
L 80.391405 172.251961 
L 83.670744 184.554874 
L 86.950083 172.251961 
L 90.229421 201.778951 
L 93.50876 231.305942 
L 96.788099 228.845359 
L 100.067438 226.384777 
L 103.346777 209.160699 
L 106.626116 211.621282 
L 109.905455 209.160699 
L 113.184793 206.700117 
L 116.464132 209.160699 
L 119.743471 206.700117 
L 123.02281 209.160699 
L 126.302149 216.542447 
L 129.581488 216.542447 
L 132.860826 211.621282 
L 136.140165 216.542447 
L 139.419504 209.160699 
L 142.698843 223.924194 
L 145.978182 219.003029 
L 149.257521 221.463612 
L 152.53686 231.305942 
L 155.816198 214.081864 
L 159.095537 214.081864 
L 162.374876 214.081864 
L 165.654215 211.621282 
L 168.933554 209.160699 
L 172.212893 216.542447 
L 175.492231 216.542447 
L 178.77157 219.003029 
L 182.050909 236.227107 
L 185.330248 246.069437 
L 188.609587 250.990602 
L 191.888926 250.990602 
L 195.168264 255.911767 
L 198.447603 255.911767 
L 201.726942 241.148272 
L 205.006281 241.148272 
L 208.28562 243.608854 
L 211.564959 238.687689 
L 214.844298 233.766524 
L 218.123636 253.451184 
L 221.402975 246.069437 
L 224.682314 226.384777 
L 227.961653 187.015456 
L 231.240992 189.476039 
L 234.520331 177.173126 
L 237.799669 179.633709 
L 241.079008 174.712544 
L 244.358347 182.094291 
L 247.637686 184.554874 
L 250.917025 187.015456 
L 254.196364 184.554874 
L 257.475702 187.015456 
L 260.755041 184.554874 
L 264.03438 179.633709 
L 267.313719 184.554874 
L 270.593058 174.712544 
L 273.872397 177.173126 
L 277.151736 172.251961 
L 280.431074 169.791379 
L 283.710413 167.330796 
L 286.989752 169.791379 
L 290.269091 172.251961 
L 293.54843 184.554874 
L 296.827769 182.094291 
L 300.107107 187.015456 
L 303.386446 189.476039 
L 306.665785 187.015456 
L 309.945124 182.094291 
L 313.224463 187.015456 
L 316.503802 194.397204 
L 319.78314 189.476039 
L 323.062479 191.936621 
L 326.341818 196.857786 
L 329.621157 187.015456 
L 332.900496 189.476039 
L 336.179835 187.015456 
L 339.459174 189.476039 
L 342.738512 187.015456 
L 346.017851 189.476039 
L 349.29719 182.094291 
L 352.576529 187.015456 
L 355.855868 191.936621 
L 359.135207 189.476039 
L 362.414545 184.554874 
L 365.693884 179.633709 
L 368.973223 177.173126 
L 372.252562 184.554874 
L 375.531901 182.094291 
L 378.81124 177.173126 
L 382.090579 179.633709 
L 385.369917 174.712544 
L 388.649256 182.094291 
L 391.928595 184.554874 
L 395.207934 187.015456 
L 398.487273 199.318369 
L 398.487273 199.318369 
L 398.487273 199.318369 
L 395.207934 187.015456 
L 391.928595 184.554874 
L 388.649256 182.094291 
L 385.369917 174.712544 
L 382.090579 179.633709 
L 378.81124 177.173126 
L 375.531901 182.094291 
L 372.252562 184.554874 
L 368.973223 177.173126 
L 365.693884 179.633709 
L 362.414545 184.554874 
L 359.135207 189.476039 
L 355.855868 191.936621 
L 352.576529 187.015456 
L 349.29719 182.094291 
L 346.017851 189.476039 
L 342.738512 187.015456 
L 339.459174 189.476039 
L 336.179835 187.015456 
L 332.900496 189.476039 
L 329.621157 187.015456 
L 326.341818 196.857786 
L 323.062479 191.936621 
L 319.78314 189.476039 
L 316.503802 194.397204 
L 313.224463 187.015456 
L 309.945124 182.094291 
L 306.665785 187.015456 
L 303.386446 189.476039 
L 300.107107 187.015456 
L 296.827769 182.094291 
L 293.54843 184.554874 
L 290.269091 172.251961 
L 286.989752 169.791379 
L 283.710413 167.330796 
L 280.431074 169.791379 
L 277.151736 172.251961 
L 273.872397 177.173126 
L 270.593058 174.712544 
L 267.313719 184.554874 
L 264.03438 179.633709 
L 260.755041 184.554874 
L 257.475702 187.015456 
L 254.196364 184.554874 
L 250.917025 187.015456 
L 247.637686 184.554874 
L 244.358347 182.094291 
L 241.079008 174.712544 
L 237.799669 179.633709 
L 234.520331 177.173126 
L 231.240992 189.476039 
L 227.961653 187.015456 
L 224.682314 226.384777 
L 221.402975 177.173126 
L 218.123636 182.094291 
L 214.844298 179.633709 
L 211.564959 182.094291 
L 208.28562 179.633709 
L 205.006281 177.173126 
L 201.726942 179.633709 
L 198.447603 209.160699 
L 195.168264 204.239534 
L 191.888926 204.239534 
L 188.609587 206.700117 
L 185.330248 204.239534 
L 182.050909 191.936621 
L 178.77157 182.094291 
L 175.492231 172.251961 
L 172.212893 174.712544 
L 168.933554 172.251961 
L 165.654215 177.173126 
L 162.374876 182.094291 
L 159.095537 179.633709 
L 155.816198 187.015456 
L 152.53686 209.160699 
L 149.257521 204.239534 
L 145.978182 199.318369 
L 142.698843 206.700117 
L 139.419504 189.476039 
L 136.140165 194.397204 
L 132.860826 191.936621 
L 129.581488 191.936621 
L 126.302149 194.397204 
L 123.02281 189.476039 
L 119.743471 187.015456 
L 116.464132 187.015456 
L 113.184793 187.015456 
L 109.905455 189.476039 
L 106.626116 187.015456 
L 103.346777 187.015456 
L 100.067438 199.318369 
L 96.788099 204.239534 
L 93.50876 204.239534 
L 90.229421 179.633709 
L 86.950083 147.646136 
L 83.670744 167.330796 
L 80.391405 157.488466 
L 77.112066 120.579728 
L 73.832727 105.816233 
z
" style="fill:#8c564b;"/>
   </g>
   <g id="PolyCollection_7">
    <path clip-path="url(#pbffe820f13)" d="M 73.832727 86.131573 
L 73.832727 105.816233 
L 77.112066 120.579728 
L 80.391405 157.488466 
L 83.670744 167.330796 
L 86.950083 147.646136 
L 90.229421 179.633709 
L 93.50876 204.239534 
L 96.788099 204.239534 
L 100.067438 199.318369 
L 103.346777 187.015456 
L 106.626116 187.015456 
L 109.905455 189.476039 
L 113.184793 187.015456 
L 116.464132 187.015456 
L 119.743471 187.015456 
L 123.02281 189.476039 
L 126.302149 194.397204 
L 129.581488 191.936621 
L 132.860826 191.936621 
L 136.140165 194.397204 
L 139.419504 189.476039 
L 142.698843 206.700117 
L 145.978182 199.318369 
L 149.257521 204.239534 
L 152.53686 209.160699 
L 155.816198 187.015456 
L 159.095537 179.633709 
L 162.374876 182.094291 
L 165.654215 177.173126 
L 168.933554 172.251961 
L 172.212893 174.712544 
L 175.492231 172.251961 
L 178.77157 182.094291 
L 182.050909 191.936621 
L 185.330248 204.239534 
L 188.609587 206.700117 
L 191.888926 204.239534 
L 195.168264 204.239534 
L 198.447603 209.160699 
L 201.726942 179.633709 
L 205.006281 177.173126 
L 208.28562 179.633709 
L 211.564959 182.094291 
L 214.844298 179.633709 
L 218.123636 182.094291 
L 221.402975 177.173126 
L 224.682314 226.384777 
L 227.961653 187.015456 
L 231.240992 189.476039 
L 234.520331 177.173126 
L 237.799669 179.633709 
L 241.079008 174.712544 
L 244.358347 182.094291 
L 247.637686 184.554874 
L 250.917025 187.015456 
L 254.196364 184.554874 
L 257.475702 187.015456 
L 260.755041 184.554874 
L 264.03438 179.633709 
L 267.313719 184.554874 
L 270.593058 174.712544 
L 273.872397 177.173126 
L 277.151736 172.251961 
L 280.431074 169.791379 
L 283.710413 167.330796 
L 286.989752 169.791379 
L 290.269091 172.251961 
L 293.54843 184.554874 
L 296.827769 182.094291 
L 300.107107 187.015456 
L 303.386446 189.476039 
L 306.665785 187.015456 
L 309.945124 182.094291 
L 313.224463 187.015456 
L 316.503802 194.397204 
L 319.78314 189.476039 
L 323.062479 191.936621 
L 326.341818 196.857786 
L 329.621157 187.015456 
L 332.900496 189.476039 
L 336.179835 187.015456 
L 339.459174 189.476039 
L 342.738512 187.015456 
L 346.017851 189.476039 
L 349.29719 182.094291 
L 352.576529 187.015456 
L 355.855868 191.936621 
L 359.135207 189.476039 
L 362.414545 184.554874 
L 365.693884 179.633709 
L 368.973223 177.173126 
L 372.252562 184.554874 
L 375.531901 182.094291 
L 378.81124 177.173126 
L 382.090579 179.633709 
L 385.369917 174.712544 
L 388.649256 182.094291 
L 391.928595 184.554874 
L 395.207934 187.015456 
L 398.487273 199.318369 
L 398.487273 199.318369 
L 398.487273 199.318369 
L 395.207934 187.015456 
L 391.928595 184.554874 
L 388.649256 182.094291 
L 385.369917 174.712544 
L 382.090579 179.633709 
L 378.81124 177.173126 
L 375.531901 182.094291 
L 372.252562 184.554874 
L 368.973223 177.173126 
L 365.693884 179.633709 
L 362.414545 184.554874 
L 359.135207 189.476039 
L 355.855868 191.936621 
L 352.576529 187.015456 
L 349.29719 182.094291 
L 346.017851 189.476039 
L 342.738512 187.015456 
L 339.459174 189.476039 
L 336.179835 187.015456 
L 332.900496 189.476039 
L 329.621157 187.015456 
L 326.341818 196.857786 
L 323.062479 191.936621 
L 319.78314 189.476039 
L 316.503802 194.397204 
L 313.224463 187.015456 
L 309.945124 182.094291 
L 306.665785 187.015456 
L 303.386446 189.476039 
L 300.107107 187.015456 
L 296.827769 182.094291 
L 293.54843 184.554874 
L 290.269091 172.251961 
L 286.989752 169.791379 
L 283.710413 167.330796 
L 280.431074 169.791379 
L 277.151736 172.251961 
L 273.872397 177.173126 
L 270.593058 174.712544 
L 267.313719 184.554874 
L 264.03438 179.633709 
L 260.755041 184.554874 
L 257.475702 187.015456 
L 254.196364 184.554874 
L 250.917025 187.015456 
L 247.637686 184.554874 
L 244.358347 182.094291 
L 241.079008 174.712544 
L 237.799669 179.633709 
L 234.520331 177.173126 
L 231.240992 189.476039 
L 227.961653 187.015456 
L 224.682314 226.384777 
L 221.402975 177.173126 
L 218.123636 182.094291 
L 214.844298 179.633709 
L 211.564959 182.094291 
L 208.28562 179.633709 
L 205.006281 177.173126 
L 201.726942 179.633709 
L 198.447603 209.160699 
L 195.168264 204.239534 
L 191.888926 204.239534 
L 188.609587 206.700117 
L 185.330248 204.239534 
L 182.050909 191.936621 
L 178.77157 182.094291 
L 175.492231 172.251961 
L 172.212893 174.712544 
L 168.933554 172.251961 
L 165.654215 177.173126 
L 162.374876 182.094291 
L 159.095537 179.633709 
L 155.816198 187.015456 
L 152.53686 209.160699 
L 149.257521 204.239534 
L 145.978182 199.318369 
L 142.698843 206.700117 
L 139.419504 189.476039 
L 136.140165 194.397204 
L 132.860826 191.936621 
L 129.581488 191.936621 
L 126.302149 194.397204 
L 123.02281 184.554874 
L 119.743471 182.094291 
L 116.464132 182.094291 
L 113.184793 182.094291 
L 109.905455 184.554874 
L 106.626116 182.094291 
L 103.346777 182.094291 
L 100.067438 194.397204 
L 96.788099 199.318369 
L 93.50876 199.318369 
L 90.229421 174.712544 
L 86.950083 142.724971 
L 83.670744 162.409631 
L 80.391405 152.567301 
L 77.112066 118.119146 
L 73.832727 86.131573 
z
" style="fill:#e377c2;"/>
   </g>
   <g id="PolyCollection_8">
    <path clip-path="url(#pbffe820f13)" d="M 73.832727 76.289243 
L 73.832727 86.131573 
L 77.112066 118.119146 
L 80.391405 152.567301 
L 83.670744 162.409631 
L 86.950083 142.724971 
L 90.229421 174.712544 
L 93.50876 199.318369 
L 96.788099 199.318369 
L 100.067438 194.397204 
L 103.346777 182.094291 
L 106.626116 182.094291 
L 109.905455 184.554874 
L 113.184793 182.094291 
L 116.464132 182.094291 
L 119.743471 182.094291 
L 123.02281 184.554874 
L 126.302149 194.397204 
L 129.581488 191.936621 
L 132.860826 191.936621 
L 136.140165 194.397204 
L 139.419504 189.476039 
L 142.698843 206.700117 
L 145.978182 199.318369 
L 149.257521 204.239534 
L 152.53686 209.160699 
L 155.816198 187.015456 
L 159.095537 179.633709 
L 162.374876 182.094291 
L 165.654215 177.173126 
L 168.933554 172.251961 
L 172.212893 174.712544 
L 175.492231 172.251961 
L 178.77157 182.094291 
L 182.050909 191.936621 
L 185.330248 204.239534 
L 188.609587 206.700117 
L 191.888926 204.239534 
L 195.168264 204.239534 
L 198.447603 209.160699 
L 201.726942 179.633709 
L 205.006281 177.173126 
L 208.28562 179.633709 
L 211.564959 182.094291 
L 214.844298 179.633709 
L 218.123636 182.094291 
L 221.402975 177.173126 
L 224.682314 226.384777 
L 227.961653 187.015456 
L 231.240992 189.476039 
L 234.520331 177.173126 
L 237.799669 179.633709 
L 241.079008 174.712544 
L 244.358347 182.094291 
L 247.637686 184.554874 
L 250.917025 187.015456 
L 254.196364 184.554874 
L 257.475702 187.015456 
L 260.755041 184.554874 
L 264.03438 179.633709 
L 267.313719 184.554874 
L 270.593058 174.712544 
L 273.872397 177.173126 
L 277.151736 172.251961 
L 280.431074 169.791379 
L 283.710413 167.330796 
L 286.989752 169.791379 
L 290.269091 172.251961 
L 293.54843 184.554874 
L 296.827769 182.094291 
L 300.107107 187.015456 
L 303.386446 189.476039 
L 306.665785 187.015456 
L 309.945124 182.094291 
L 313.224463 187.015456 
L 316.503802 194.397204 
L 319.78314 189.476039 
L 323.062479 191.936621 
L 326.341818 196.857786 
L 329.621157 187.015456 
L 332.900496 189.476039 
L 336.179835 187.015456 
L 339.459174 189.476039 
L 342.738512 187.015456 
L 346.017851 189.476039 
L 349.29719 182.094291 
L 352.576529 187.015456 
L 355.855868 191.936621 
L 359.135207 189.476039 
L 362.414545 184.554874 
L 365.693884 179.633709 
L 368.973223 177.173126 
L 372.252562 184.554874 
L 375.531901 182.094291 
L 378.81124 177.173126 
L 382.090579 179.633709 
L 385.369917 174.712544 
L 388.649256 182.094291 
L 391.928595 184.554874 
L 395.207934 187.015456 
L 398.487273 199.318369 
L 398.487273 199.318369 
L 398.487273 199.318369 
L 395.207934 187.015456 
L 391.928595 184.554874 
L 388.649256 182.094291 
L 385.369917 174.712544 
L 382.090579 179.633709 
L 378.81124 177.173126 
L 375.531901 182.094291 
L 372.252562 184.554874 
L 368.973223 177.173126 
L 365.693884 179.633709 
L 362.414545 184.554874 
L 359.135207 189.476039 
L 355.855868 191.936621 
L 352.576529 187.015456 
L 349.29719 182.094291 
L 346.017851 189.476039 
L 342.738512 187.015456 
L 339.459174 189.476039 
L 336.179835 187.015456 
L 332.900496 189.476039 
L 329.621157 187.015456 
L 326.341818 196.857786 
L 323.062479 191.936621 
L 319.78314 189.476039 
L 316.503802 194.397204 
L 313.224463 187.015456 
L 309.945124 182.094291 
L 306.665785 187.015456 
L 303.386446 189.476039 
L 300.107107 187.015456 
L 296.827769 182.094291 
L 293.54843 184.554874 
L 290.269091 172.251961 
L 286.989752 169.791379 
L 283.710413 167.330796 
L 280.431074 169.791379 
L 277.151736 172.251961 
L 273.872397 177.173126 
L 270.593058 174.712544 
L 267.313719 184.554874 
L 264.03438 179.633709 
L 260.755041 184.554874 
L 257.475702 187.015456 
L 254.196364 184.554874 
L 250.917025 187.015456 
L 247.637686 184.554874 
L 244.358347 182.094291 
L 241.079008 174.712544 
L 237.799669 179.633709 
L 234.520331 177.173126 
L 231.240992 189.476039 
L 227.961653 187.015456 
L 224.682314 226.384777 
L 221.402975 177.173126 
L 218.123636 182.094291 
L 214.844298 179.633709 
L 211.564959 182.094291 
L 208.28562 179.633709 
L 205.006281 177.173126 
L 201.726942 179.633709 
L 198.447603 209.160699 
L 195.168264 204.239534 
L 191.888926 204.239534 
L 188.609587 206.700117 
L 185.330248 204.239534 
L 182.050909 191.936621 
L 178.77157 182.094291 
L 175.492231 172.251961 
L 172.212893 155.027883 
L 168.933554 159.949049 
L 165.654215 162.409631 
L 162.374876 164.870214 
L 159.095537 164.870214 
L 155.816198 169.791379 
L 152.53686 191.936621 
L 149.257521 191.936621 
L 145.978182 184.554874 
L 142.698843 189.476039 
L 139.419504 177.173126 
L 136.140165 179.633709 
L 132.860826 174.712544 
L 129.581488 177.173126 
L 126.302149 177.173126 
L 123.02281 169.791379 
L 119.743471 164.870214 
L 116.464132 169.791379 
L 113.184793 167.330796 
L 109.905455 172.251961 
L 106.626116 167.330796 
L 103.346777 169.791379 
L 100.067438 179.633709 
L 96.788099 187.015456 
L 93.50876 184.554874 
L 90.229421 157.488466 
L 86.950083 123.040311 
L 83.670744 137.803806 
L 80.391405 123.040311 
L 77.112066 110.737398 
L 73.832727 76.289243 
z
" style="fill:#7f7f7f;"/>
   </g>
   <g id="PolyCollection_9">
    <path clip-path="url(#pbffe820f13)" d="M 73.832727 68.907495 
L 73.832727 76.289243 
L 77.112066 110.737398 
L 80.391405 123.040311 
L 83.670744 137.803806 
L 86.950083 123.040311 
L 90.229421 157.488466 
L 93.50876 184.554874 
L 96.788099 187.015456 
L 100.067438 179.633709 
L 103.346777 169.791379 
L 106.626116 167.330796 
L 109.905455 172.251961 
L 113.184793 167.330796 
L 116.464132 169.791379 
L 119.743471 164.870214 
L 123.02281 169.791379 
L 126.302149 177.173126 
L 129.581488 177.173126 
L 132.860826 174.712544 
L 136.140165 179.633709 
L 139.419504 177.173126 
L 142.698843 189.476039 
L 145.978182 184.554874 
L 149.257521 191.936621 
L 152.53686 191.936621 
L 155.816198 169.791379 
L 159.095537 164.870214 
L 162.374876 164.870214 
L 165.654215 162.409631 
L 168.933554 159.949049 
L 172.212893 155.027883 
L 175.492231 172.251961 
L 178.77157 182.094291 
L 182.050909 191.936621 
L 185.330248 204.239534 
L 188.609587 206.700117 
L 191.888926 204.239534 
L 195.168264 204.239534 
L 198.447603 209.160699 
L 201.726942 179.633709 
L 205.006281 177.173126 
L 208.28562 179.633709 
L 211.564959 182.094291 
L 214.844298 179.633709 
L 218.123636 182.094291 
L 221.402975 177.173126 
L 224.682314 226.384777 
L 227.961653 187.015456 
L 231.240992 189.476039 
L 234.520331 177.173126 
L 237.799669 179.633709 
L 241.079008 174.712544 
L 244.358347 182.094291 
L 247.637686 184.554874 
L 250.917025 187.015456 
L 254.196364 184.554874 
L 257.475702 187.015456 
L 260.755041 184.554874 
L 264.03438 179.633709 
L 267.313719 184.554874 
L 270.593058 174.712544 
L 273.872397 177.173126 
L 277.151736 172.251961 
L 280.431074 169.791379 
L 283.710413 167.330796 
L 286.989752 169.791379 
L 290.269091 172.251961 
L 293.54843 184.554874 
L 296.827769 182.094291 
L 300.107107 187.015456 
L 303.386446 189.476039 
L 306.665785 187.015456 
L 309.945124 182.094291 
L 313.224463 187.015456 
L 316.503802 194.397204 
L 319.78314 189.476039 
L 323.062479 191.936621 
L 326.341818 196.857786 
L 329.621157 187.015456 
L 332.900496 189.476039 
L 336.179835 187.015456 
L 339.459174 189.476039 
L 342.738512 187.015456 
L 346.017851 189.476039 
L 349.29719 182.094291 
L 352.576529 187.015456 
L 355.855868 191.936621 
L 359.135207 189.476039 
L 362.414545 184.554874 
L 365.693884 179.633709 
L 368.973223 177.173126 
L 372.252562 184.554874 
L 375.531901 182.094291 
L 378.81124 177.173126 
L 382.090579 179.633709 
L 385.369917 174.712544 
L 388.649256 182.094291 
L 391.928595 184.554874 
L 395.207934 187.015456 
L 398.487273 199.318369 
L 398.487273 199.318369 
L 398.487273 199.318369 
L 395.207934 187.015456 
L 391.928595 184.554874 
L 388.649256 182.094291 
L 385.369917 174.712544 
L 382.090579 179.633709 
L 378.81124 177.173126 
L 375.531901 182.094291 
L 372.252562 184.554874 
L 368.973223 177.173126 
L 365.693884 179.633709 
L 362.414545 184.554874 
L 359.135207 189.476039 
L 355.855868 191.936621 
L 352.576529 187.015456 
L 349.29719 182.094291 
L 346.017851 189.476039 
L 342.738512 187.015456 
L 339.459174 189.476039 
L 336.179835 187.015456 
L 332.900496 189.476039 
L 329.621157 187.015456 
L 326.341818 196.857786 
L 323.062479 191.936621 
L 319.78314 189.476039 
L 316.503802 194.397204 
L 313.224463 187.015456 
L 309.945124 182.094291 
L 306.665785 187.015456 
L 303.386446 189.476039 
L 300.107107 187.015456 
L 296.827769 182.094291 
L 293.54843 184.554874 
L 290.269091 172.251961 
L 286.989752 169.791379 
L 283.710413 167.330796 
L 280.431074 169.791379 
L 277.151736 172.251961 
L 273.872397 177.173126 
L 270.593058 174.712544 
L 267.313719 184.554874 
L 264.03438 179.633709 
L 260.755041 184.554874 
L 257.475702 187.015456 
L 254.196364 184.554874 
L 250.917025 187.015456 
L 247.637686 184.554874 
L 244.358347 182.094291 
L 241.079008 174.712544 
L 237.799669 179.633709 
L 234.520331 177.173126 
L 231.240992 189.476039 
L 227.961653 187.015456 
L 224.682314 226.384777 
L 221.402975 177.173126 
L 218.123636 182.094291 
L 214.844298 179.633709 
L 211.564959 182.094291 
L 208.28562 179.633709 
L 205.006281 177.173126 
L 201.726942 179.633709 
L 198.447603 209.160699 
L 195.168264 204.239534 
L 191.888926 204.239534 
L 188.609587 206.700117 
L 185.330248 204.239534 
L 182.050909 191.936621 
L 178.77157 182.094291 
L 175.492231 172.251961 
L 172.212893 155.027883 
L 168.933554 159.949049 
L 165.654215 162.409631 
L 162.374876 164.870214 
L 159.095537 164.870214 
L 155.816198 169.791379 
L 152.53686 191.936621 
L 149.257521 191.936621 
L 145.978182 184.554874 
L 142.698843 189.476039 
L 139.419504 177.173126 
L 136.140165 179.633709 
L 132.860826 174.712544 
L 129.581488 177.173126 
L 126.302149 177.173126 
L 123.02281 164.870214 
L 119.743471 159.949049 
L 116.464132 164.870214 
L 113.184793 162.409631 
L 109.905455 167.330796 
L 106.626116 162.409631 
L 103.346777 164.870214 
L 100.067438 174.712544 
L 96.788099 182.094291 
L 93.50876 179.633709 
L 90.229421 152.567301 
L 86.950083 118.119146 
L 83.670744 132.882641 
L 80.391405 118.119146 
L 77.112066 108.276816 
L 73.832727 68.907495 
z
" style="fill:#bcbd22;"/>
   </g>
   <g id="PolyCollection_10">
    <path clip-path="url(#pbffe820f13)" d="M 73.832727 63.98633 
L 73.832727 68.907495 
L 77.112066 108.276816 
L 80.391405 118.119146 
L 83.670744 132.882641 
L 86.950083 118.119146 
L 90.229421 152.567301 
L 93.50876 179.633709 
L 96.788099 182.094291 
L 100.067438 174.712544 
L 103.346777 164.870214 
L 106.626116 162.409631 
L 109.905455 167.330796 
L 113.184793 162.409631 
L 116.464132 164.870214 
L 119.743471 159.949049 
L 123.02281 164.870214 
L 126.302149 177.173126 
L 129.581488 177.173126 
L 132.860826 174.712544 
L 136.140165 179.633709 
L 139.419504 177.173126 
L 142.698843 189.476039 
L 145.978182 184.554874 
L 149.257521 191.936621 
L 152.53686 191.936621 
L 155.816198 169.791379 
L 159.095537 164.870214 
L 162.374876 164.870214 
L 165.654215 162.409631 
L 168.933554 159.949049 
L 172.212893 155.027883 
L 175.492231 172.251961 
L 178.77157 182.094291 
L 182.050909 191.936621 
L 185.330248 204.239534 
L 188.609587 206.700117 
L 191.888926 204.239534 
L 195.168264 204.239534 
L 198.447603 209.160699 
L 201.726942 179.633709 
L 205.006281 177.173126 
L 208.28562 179.633709 
L 211.564959 182.094291 
L 214.844298 179.633709 
L 218.123636 182.094291 
L 221.402975 177.173126 
L 224.682314 226.384777 
L 227.961653 187.015456 
L 231.240992 189.476039 
L 234.520331 177.173126 
L 237.799669 179.633709 
L 241.079008 174.712544 
L 244.358347 182.094291 
L 247.637686 184.554874 
L 250.917025 187.015456 
L 254.196364 184.554874 
L 257.475702 187.015456 
L 260.755041 184.554874 
L 264.03438 179.633709 
L 267.313719 184.554874 
L 270.593058 174.712544 
L 273.872397 177.173126 
L 277.151736 172.251961 
L 280.431074 169.791379 
L 283.710413 167.330796 
L 286.989752 169.791379 
L 290.269091 172.251961 
L 293.54843 184.554874 
L 296.827769 182.094291 
L 300.107107 187.015456 
L 303.386446 189.476039 
L 306.665785 187.015456 
L 309.945124 182.094291 
L 313.224463 187.015456 
L 316.503802 194.397204 
L 319.78314 189.476039 
L 323.062479 191.936621 
L 326.341818 196.857786 
L 329.621157 187.015456 
L 332.900496 189.476039 
L 336.179835 187.015456 
L 339.459174 189.476039 
L 342.738512 187.015456 
L 346.017851 189.476039 
L 349.29719 182.094291 
L 352.576529 187.015456 
L 355.855868 191.936621 
L 359.135207 189.476039 
L 362.414545 184.554874 
L 365.693884 179.633709 
L 368.973223 177.173126 
L 372.252562 184.554874 
L 375.531901 182.094291 
L 378.81124 177.173126 
L 382.090579 179.633709 
L 385.369917 174.712544 
L 388.649256 182.094291 
L 391.928595 184.554874 
L 395.207934 187.015456 
L 398.487273 199.318369 
L 398.487273 199.318369 
L 398.487273 199.318369 
L 395.207934 187.015456 
L 391.928595 184.554874 
L 388.649256 182.094291 
L 385.369917 174.712544 
L 382.090579 179.633709 
L 378.81124 177.173126 
L 375.531901 182.094291 
L 372.252562 184.554874 
L 368.973223 177.173126 
L 365.693884 179.633709 
L 362.414545 184.554874 
L 359.135207 189.476039 
L 355.855868 191.936621 
L 352.576529 187.015456 
L 349.29719 182.094291 
L 346.017851 189.476039 
L 342.738512 187.015456 
L 339.459174 189.476039 
L 336.179835 187.015456 
L 332.900496 189.476039 
L 329.621157 187.015456 
L 326.341818 196.857786 
L 323.062479 191.936621 
L 319.78314 189.476039 
L 316.503802 194.397204 
L 313.224463 187.015456 
L 309.945124 182.094291 
L 306.665785 187.015456 
L 303.386446 189.476039 
L 300.107107 187.015456 
L 296.827769 182.094291 
L 293.54843 184.554874 
L 290.269091 172.251961 
L 286.989752 169.791379 
L 283.710413 167.330796 
L 280.431074 169.791379 
L 277.151736 172.251961 
L 273.872397 177.173126 
L 270.593058 174.712544 
L 267.313719 184.554874 
L 264.03438 179.633709 
L 260.755041 184.554874 
L 257.475702 187.015456 
L 254.196364 184.554874 
L 250.917025 187.015456 
L 247.637686 184.554874 
L 244.358347 182.094291 
L 241.079008 174.712544 
L 237.799669 179.633709 
L 234.520331 177.173126 
L 231.240992 189.476039 
L 227.961653 187.015456 
L 224.682314 226.384777 
L 221.402975 177.173126 
L 218.123636 182.094291 
L 214.844298 179.633709 
L 211.564959 182.094291 
L 208.28562 179.633709 
L 205.006281 177.173126 
L 201.726942 179.633709 
L 198.447603 209.160699 
L 195.168264 204.239534 
L 191.888926 204.239534 
L 188.609587 206.700117 
L 185.330248 204.239534 
L 182.050909 191.936621 
L 178.77157 182.094291 
L 175.492231 172.251961 
L 172.212893 155.027883 
L 168.933554 159.949049 
L 165.654215 162.409631 
L 162.374876 164.870214 
L 159.095537 164.870214 
L 155.816198 169.791379 
L 152.53686 157.488466 
L 149.257521 159.949049 
L 145.978182 155.027883 
L 142.698843 155.027883 
L 139.419504 150.106718 
L 136.140165 152.567301 
L 132.860826 137.803806 
L 129.581488 147.646136 
L 126.302149 145.185553 
L 123.02281 135.343223 
L 119.743471 132.882641 
L 116.464132 140.264388 
L 113.184793 137.803806 
L 109.905455 137.803806 
L 106.626116 135.343223 
L 103.346777 130.422058 
L 100.067438 132.882641 
L 96.788099 140.264388 
L 93.50876 145.185553 
L 90.229421 118.119146 
L 86.950083 100.895068 
L 83.670744 108.276816 
L 80.391405 98.434485 
L 77.112066 98.434485 
L 73.832727 63.98633 
z
" style="fill:#17becf;"/>
   </g>
   <g id="PolyCollection_11">
    <path clip-path="url(#pbffe820f13)" d="M 73.832727 61.525748 
L 73.832727 63.98633 
L 77.112066 98.434485 
L 80.391405 98.434485 
L 83.670744 108.276816 
L 86.950083 100.895068 
L 90.229421 118.119146 
L 93.50876 145.185553 
L 96.788099 140.264388 
L 100.067438 132.882641 
L 103.346777 130.422058 
L 106.626116 135.343223 
L 109.905455 137.803806 
L 113.184793 137.803806 
L 116.464132 140.264388 
L 119.743471 132.882641 
L 123.02281 135.343223 
L 126.302149 145.185553 
L 129.581488 147.646136 
L 132.860826 137.803806 
L 136.140165 152.567301 
L 139.419504 150.106718 
L 142.698843 155.027883 
L 145.978182 155.027883 
L 149.257521 159.949049 
L 152.53686 157.488466 
L 155.816198 169.791379 
L 159.095537 164.870214 
L 162.374876 164.870214 
L 165.654215 162.409631 
L 168.933554 159.949049 
L 172.212893 155.027883 
L 175.492231 172.251961 
L 178.77157 182.094291 
L 182.050909 191.936621 
L 185.330248 204.239534 
L 188.609587 206.700117 
L 191.888926 204.239534 
L 195.168264 204.239534 
L 198.447603 209.160699 
L 201.726942 179.633709 
L 205.006281 177.173126 
L 208.28562 179.633709 
L 211.564959 182.094291 
L 214.844298 179.633709 
L 218.123636 182.094291 
L 221.402975 177.173126 
L 224.682314 226.384777 
L 227.961653 187.015456 
L 231.240992 189.476039 
L 234.520331 177.173126 
L 237.799669 179.633709 
L 241.079008 174.712544 
L 244.358347 182.094291 
L 247.637686 184.554874 
L 250.917025 187.015456 
L 254.196364 184.554874 
L 257.475702 187.015456 
L 260.755041 184.554874 
L 264.03438 179.633709 
L 267.313719 184.554874 
L 270.593058 174.712544 
L 273.872397 177.173126 
L 277.151736 172.251961 
L 280.431074 169.791379 
L 283.710413 167.330796 
L 286.989752 169.791379 
L 290.269091 172.251961 
L 293.54843 184.554874 
L 296.827769 182.094291 
L 300.107107 187.015456 
L 303.386446 189.476039 
L 306.665785 187.015456 
L 309.945124 182.094291 
L 313.224463 187.015456 
L 316.503802 194.397204 
L 319.78314 189.476039 
L 323.062479 191.936621 
L 326.341818 196.857786 
L 329.621157 187.015456 
L 332.900496 189.476039 
L 336.179835 187.015456 
L 339.459174 189.476039 
L 342.738512 187.015456 
L 346.017851 189.476039 
L 349.29719 182.094291 
L 352.576529 187.015456 
L 355.855868 191.936621 
L 359.135207 189.476039 
L 362.414545 184.554874 
L 365.693884 179.633709 
L 368.973223 177.173126 
L 372.252562 184.554874 
L 375.531901 182.094291 
L 378.81124 177.173126 
L 382.090579 179.633709 
L 385.369917 174.712544 
L 388.649256 182.094291 
L 391.928595 184.554874 
L 395.207934 187.015456 
L 398.487273 199.318369 
L 398.487273 199.318369 
L 398.487273 199.318369 
L 395.207934 187.015456 
L 391.928595 184.554874 
L 388.649256 182.094291 
L 385.369917 174.712544 
L 382.090579 179.633709 
L 378.81124 177.173126 
L 375.531901 182.094291 
L 372.252562 184.554874 
L 368.973223 177.173126 
L 365.693884 179.633709 
L 362.414545 184.554874 
L 359.135207 189.476039 
L 355.855868 191.936621 
L 352.576529 187.015456 
L 349.29719 182.094291 
L 346.017851 189.476039 
L 342.738512 187.015456 
L 339.459174 189.476039 
L 336.179835 187.015456 
L 332.900496 189.476039 
L 329.621157 187.015456 
L 326.341818 196.857786 
L 323.062479 191.936621 
L 319.78314 189.476039 
L 316.503802 194.397204 
L 313.224463 187.015456 
L 309.945124 182.094291 
L 306.665785 187.015456 
L 303.386446 189.476039 
L 300.107107 187.015456 
L 296.827769 182.094291 
L 293.54843 184.554874 
L 290.269091 172.251961 
L 286.989752 169.791379 
L 283.710413 167.330796 
L 280.431074 169.791379 
L 277.151736 172.251961 
L 273.872397 177.173126 
L 270.593058 174.712544 
L 267.313719 184.554874 
L 264.03438 179.633709 
L 260.755041 184.554874 
L 257.475702 187.015456 
L 254.196364 184.554874 
L 250.917025 187.015456 
L 247.637686 184.554874 
L 244.358347 182.094291 
L 241.079008 174.712544 
L 237.799669 179.633709 
L 234.520331 177.173126 
L 231.240992 189.476039 
L 227.961653 187.015456 
L 224.682314 226.384777 
L 221.402975 177.173126 
L 218.123636 182.094291 
L 214.844298 179.633709 
L 211.564959 182.094291 
L 208.28562 179.633709 
L 205.006281 177.173126 
L 201.726942 179.633709 
L 198.447603 167.330796 
L 195.168264 157.488466 
L 191.888926 150.106718 
L 188.609587 150.106718 
L 185.330248 150.106718 
L 182.050909 140.264388 
L 178.77157 137.803806 
L 175.492231 130.422058 
L 172.212893 115.658563 
L 168.933554 118.119146 
L 165.654215 123.040311 
L 162.374876 127.961476 
L 159.095537 125.500893 
L 155.816198 132.882641 
L 152.53686 120.579728 
L 149.257521 127.961476 
L 145.978182 120.579728 
L 142.698843 125.500893 
L 139.419504 125.500893 
L 136.140165 125.500893 
L 132.860826 113.197981 
L 129.581488 120.579728 
L 126.302149 118.119146 
L 123.02281 113.197981 
L 119.743471 110.737398 
L 116.464132 110.737398 
L 113.184793 108.276816 
L 109.905455 108.276816 
L 106.626116 110.737398 
L 103.346777 108.276816 
L 100.067438 108.276816 
L 96.788099 123.040311 
L 93.50876 125.500893 
L 90.229421 95.973903 
L 86.950083 73.82866 
L 83.670744 73.82866 
L 80.391405 61.525748 
L 77.112066 61.525748 
L 73.832727 61.525748 
z
" style="fill:#1f77b4;"/>
   </g>
   <g id="PolyCollection_12">
    <path clip-path="url(#pbffe820f13)" d="M 73.832727 61.525748 
L 73.832727 61.525748 
L 77.112066 61.525748 
L 80.391405 61.525748 
L 83.670744 73.82866 
L 86.950083 73.82866 
L 90.229421 95.973903 
L 93.50876 125.500893 
L 96.788099 123.040311 
L 100.067438 108.276816 
L 103.346777 108.276816 
L 106.626116 110.737398 
L 109.905455 108.276816 
L 113.184793 108.276816 
L 116.464132 110.737398 
L 119.743471 110.737398 
L 123.02281 113.197981 
L 126.302149 118.119146 
L 129.581488 120.579728 
L 132.860826 113.197981 
L 136.140165 125.500893 
L 139.419504 125.500893 
L 142.698843 125.500893 
L 145.978182 120.579728 
L 149.257521 127.961476 
L 152.53686 120.579728 
L 155.816198 132.882641 
L 159.095537 125.500893 
L 162.374876 127.961476 
L 165.654215 123.040311 
L 168.933554 118.119146 
L 172.212893 115.658563 
L 175.492231 130.422058 
L 178.77157 137.803806 
L 182.050909 140.264388 
L 185.330248 150.106718 
L 188.609587 150.106718 
L 191.888926 150.106718 
L 195.168264 157.488466 
L 198.447603 167.330796 
L 201.726942 179.633709 
L 205.006281 177.173126 
L 208.28562 179.633709 
L 211.564959 182.094291 
L 214.844298 179.633709 
L 218.123636 182.094291 
L 221.402975 177.173126 
L 224.682314 226.384777 
L 227.961653 187.015456 
L 231.240992 189.476039 
L 234.520331 177.173126 
L 237.799669 179.633709 
L 241.079008 174.712544 
L 244.358347 182.094291 
L 247.637686 184.554874 
L 250.917025 187.015456 
L 254.196364 184.554874 
L 257.475702 187.015456 
L 260.755041 184.554874 
L 264.03438 179.633709 
L 267.313719 184.554874 
L 270.593058 174.712544 
L 273.872397 177.173126 
L 277.151736 172.251961 
L 280.431074 169.791379 
L 283.710413 167.330796 
L 286.989752 169.791379 
L 290.269091 172.251961 
L 293.54843 184.554874 
L 296.827769 182.094291 
L 300.107107 187.015456 
L 303.386446 189.476039 
L 306.665785 187.015456 
L 309.945124 182.094291 
L 313.224463 187.015456 
L 316.503802 194.397204 
L 319.78314 189.476039 
L 323.062479 191.936621 
L 326.341818 196.857786 
L 329.621157 187.015456 
L 332.900496 189.476039 
L 336.179835 187.015456 
L 339.459174 189.476039 
L 342.738512 187.015456 
L 346.017851 189.476039 
L 349.29719 182.094291 
L 352.576529 187.015456 
L 355.855868 191.936621 
L 359.135207 189.476039 
L 362.414545 184.554874 
L 365.693884 179.633709 
L 368.973223 177.173126 
L 372.252562 184.554874 
L 375.531901 182.094291 
L 378.81124 177.173126 
L 382.090579 179.633709 
L 385.369917 174.712544 
L 388.649256 182.094291 
L 391.928595 184.554874 
L 395.207934 187.015456 
L 398.487273 199.318369 
L 398.487273 199.318369 
L 398.487273 199.318369 
L 395.207934 187.015456 
L 391.928595 184.554874 
L 388.649256 182.094291 
L 385.369917 174.712544 
L 382.090579 179.633709 
L 378.81124 177.173126 
L 375.531901 182.094291 
L 372.252562 184.554874 
L 368.973223 177.173126 
L 365.693884 179.633709 
L 362.414545 184.554874 
L 359.135207 189.476039 
L 355.855868 191.936621 
L 352.576529 187.015456 
L 349.29719 182.094291 
L 346.017851 189.476039 
L 342.738512 187.015456 
L 339.459174 189.476039 
L 336.179835 187.015456 
L 332.900496 189.476039 
L 329.621157 187.015456 
L 326.341818 196.857786 
L 323.062479 191.936621 
L 319.78314 189.476039 
L 316.503802 194.397204 
L 313.224463 187.015456 
L 309.945124 182.094291 
L 306.665785 187.015456 
L 303.386446 189.476039 
L 300.107107 187.015456 
L 296.827769 182.094291 
L 293.54843 184.554874 
L 290.269091 172.251961 
L 286.989752 169.791379 
L 283.710413 167.330796 
L 280.431074 169.791379 
L 277.151736 172.251961 
L 273.872397 177.173126 
L 270.593058 174.712544 
L 267.313719 184.554874 
L 264.03438 179.633709 
L 260.755041 184.554874 
L 257.475702 187.015456 
L 254.196364 184.554874 
L 250.917025 187.015456 
L 247.637686 184.554874 
L 244.358347 182.094291 
L 241.079008 174.712544 
L 237.799669 179.633709 
L 234.520331 177.173126 
L 231.240992 189.476039 
L 227.961653 187.015456 
L 224.682314 226.384777 
L 221.402975 177.173126 
L 218.123636 182.094291 
L 214.844298 179.633709 
L 211.564959 182.094291 
L 208.28562 179.633709 
L 205.006281 177.173126 
L 201.726942 179.633709 
L 198.447603 167.330796 
L 195.168264 157.488466 
L 191.888926 150.106718 
L 188.609587 150.106718 
L 185.330248 150.106718 
L 182.050909 140.264388 
L 178.77157 137.803806 
L 175.492231 130.422058 
L 172.212893 115.658563 
L 168.933554 118.119146 
L 165.654215 123.040311 
L 162.374876 127.961476 
L 159.095537 125.500893 
L 155.816198 132.882641 
L 152.53686 120.579728 
L 149.257521 127.961476 
L 145.978182 120.579728 
L 142.698843 125.500893 
L 139.419504 125.500893 
L 136.140165 125.500893 
L 132.860826 113.197981 
L 129.581488 115.658563 
L 126.302149 113.197981 
L 123.02281 108.276816 
L 119.743471 105.816233 
L 116.464132 105.816233 
L 113.184793 103.35565 
L 109.905455 103.35565 
L 106.626116 105.816233 
L 103.346777 103.35565 
L 100.067438 103.35565 
L 96.788099 118.119146 
L 93.50876 120.579728 
L 90.229421 91.052738 
L 86.950083 68.907495 
L 83.670744 68.907495 
L 80.391405 56.604583 
L 77.112066 61.525748 
L 73.832727 61.525748 
z
" style="fill:#ff7f0e;"/>
   </g>
   <g id="PolyCollection_13">
    <path clip-path="url(#pbffe820f13)" d="M 73.832727 61.525748 
L 73.832727 61.525748 
L 77.112066 61.525748 
L 80.391405 56.604583 
L 83.670744 68.907495 
L 86.950083 68.907495 
L 90.229421 91.052738 
L 93.50876 120.579728 
L 96.788099 118.119146 
L 100.067438 103.35565 
L 103.346777 103.35565 
L 106.626116 105.816233 
L 109.905455 103.35565 
L 113.184793 103.35565 
L 116.464132 105.816233 
L 119.743471 105.816233 
L 123.02281 108.276816 
L 126.302149 113.197981 
L 129.581488 115.658563 
L 132.860826 113.197981 
L 136.140165 125.500893 
L 139.419504 125.500893 
L 142.698843 125.500893 
L 145.978182 120.579728 
L 149.257521 127.961476 
L 152.53686 120.579728 
L 155.816198 132.882641 
L 159.095537 125.500893 
L 162.374876 127.961476 
L 165.654215 123.040311 
L 168.933554 118.119146 
L 172.212893 115.658563 
L 175.492231 130.422058 
L 178.77157 137.803806 
L 182.050909 140.264388 
L 185.330248 150.106718 
L 188.609587 150.106718 
L 191.888926 150.106718 
L 195.168264 157.488466 
L 198.447603 167.330796 
L 201.726942 179.633709 
L 205.006281 177.173126 
L 208.28562 179.633709 
L 211.564959 182.094291 
L 214.844298 179.633709 
L 218.123636 182.094291 
L 221.402975 177.173126 
L 224.682314 226.384777 
L 227.961653 187.015456 
L 231.240992 189.476039 
L 234.520331 177.173126 
L 237.799669 179.633709 
L 241.079008 174.712544 
L 244.358347 182.094291 
L 247.637686 184.554874 
L 250.917025 187.015456 
L 254.196364 184.554874 
L 257.475702 187.015456 
L 260.755041 184.554874 
L 264.03438 179.633709 
L 267.313719 184.554874 
L 270.593058 174.712544 
L 273.872397 177.173126 
L 277.151736 172.251961 
L 280.431074 169.791379 
L 283.710413 167.330796 
L 286.989752 169.791379 
L 290.269091 172.251961 
L 293.54843 184.554874 
L 296.827769 182.094291 
L 300.107107 187.015456 
L 303.386446 189.476039 
L 306.665785 187.015456 
L 309.945124 182.094291 
L 313.224463 187.015456 
L 316.503802 194.397204 
L 319.78314 189.476039 
L 323.062479 191.936621 
L 326.341818 196.857786 
L 329.621157 187.015456 
L 332.900496 189.476039 
L 336.179835 187.015456 
L 339.459174 189.476039 
L 342.738512 187.015456 
L 346.017851 189.476039 
L 349.29719 182.094291 
L 352.576529 187.015456 
L 355.855868 191.936621 
L 359.135207 189.476039 
L 362.414545 184.554874 
L 365.693884 179.633709 
L 368.973223 177.173126 
L 372.252562 184.554874 
L 375.531901 182.094291 
L 378.81124 177.173126 
L 382.090579 179.633709 
L 385.369917 174.712544 
L 388.649256 182.094291 
L 391.928595 184.554874 
L 395.207934 187.015456 
L 398.487273 199.318369 
L 398.487273 199.318369 
L 398.487273 199.318369 
L 395.207934 187.015456 
L 391.928595 184.554874 
L 388.649256 182.094291 
L 385.369917 174.712544 
L 382.090579 179.633709 
L 378.81124 177.173126 
L 375.531901 182.094291 
L 372.252562 184.554874 
L 368.973223 177.173126 
L 365.693884 179.633709 
L 362.414545 184.554874 
L 359.135207 189.476039 
L 355.855868 191.936621 
L 352.576529 187.015456 
L 349.29719 182.094291 
L 346.017851 189.476039 
L 342.738512 187.015456 
L 339.459174 189.476039 
L 336.179835 187.015456 
L 332.900496 189.476039 
L 329.621157 187.015456 
L 326.341818 196.857786 
L 323.062479 191.936621 
L 319.78314 189.476039 
L 316.503802 194.397204 
L 313.224463 187.015456 
L 309.945124 182.094291 
L 306.665785 187.015456 
L 303.386446 189.476039 
L 300.107107 187.015456 
L 296.827769 182.094291 
L 293.54843 184.554874 
L 290.269091 172.251961 
L 286.989752 169.791379 
L 283.710413 167.330796 
L 280.431074 169.791379 
L 277.151736 172.251961 
L 273.872397 177.173126 
L 270.593058 174.712544 
L 267.313719 184.554874 
L 264.03438 179.633709 
L 260.755041 184.554874 
L 257.475702 187.015456 
L 254.196364 184.554874 
L 250.917025 187.015456 
L 247.637686 184.554874 
L 244.358347 182.094291 
L 241.079008 174.712544 
L 237.799669 179.633709 
L 234.520331 177.173126 
L 231.240992 189.476039 
L 227.961653 187.015456 
L 224.682314 132.882641 
L 221.402975 113.197981 
L 218.123636 113.197981 
L 214.844298 118.119146 
L 211.564959 115.658563 
L 208.28562 118.119146 
L 205.006281 115.658563 
L 201.726942 115.658563 
L 198.447603 113.197981 
L 195.168264 108.276816 
L 191.888926 103.35565 
L 188.609587 105.816233 
L 185.330248 108.276816 
L 182.050909 95.973903 
L 178.77157 95.973903 
L 175.492231 98.434485 
L 172.212893 86.131573 
L 168.933554 86.131573 
L 165.654215 93.51332 
L 162.374876 93.51332 
L 159.095537 93.51332 
L 155.816198 95.973903 
L 152.53686 88.592155 
L 149.257521 91.052738 
L 145.978182 91.052738 
L 142.698843 98.434485 
L 139.419504 98.434485 
L 136.140165 95.973903 
L 132.860826 86.131573 
L 129.581488 91.052738 
L 126.302149 91.052738 
L 123.02281 91.052738 
L 119.743471 88.592155 
L 116.464132 91.052738 
L 113.184793 91.052738 
L 109.905455 88.592155 
L 106.626116 88.592155 
L 103.346777 88.592155 
L 100.067438 91.052738 
L 96.788099 100.895068 
L 93.50876 108.276816 
L 90.229421 76.289243 
L 86.950083 56.604583 
L 83.670744 56.604583 
L 80.391405 56.604583 
L 77.112066 61.525748 
L 73.832727 61.525748 
z
" style="fill:#2ca02c;"/>
   </g>
   <g id="PolyCollection_14">
    <path clip-path="url(#pbffe820f13)" d="M 73.832727 61.525748 
L 73.832727 61.525748 
L 77.112066 61.525748 
L 80.391405 56.604583 
L 83.670744 56.604583 
L 86.950083 56.604583 
L 90.229421 76.289243 
L 93.50876 108.276816 
L 96.788099 100.895068 
L 100.067438 91.052738 
L 103.346777 88.592155 
L 106.626116 88.592155 
L 109.905455 88.592155 
L 113.184793 91.052738 
L 116.464132 91.052738 
L 119.743471 88.592155 
L 123.02281 91.052738 
L 126.302149 91.052738 
L 129.581488 91.052738 
L 132.860826 86.131573 
L 136.140165 95.973903 
L 139.419504 98.434485 
L 142.698843 98.434485 
L 145.978182 91.052738 
L 149.257521 91.052738 
L 152.53686 88.592155 
L 155.816198 95.973903 
L 159.095537 93.51332 
L 162.374876 93.51332 
L 165.654215 93.51332 
L 168.933554 86.131573 
L 172.212893 86.131573 
L 175.492231 98.434485 
L 178.77157 95.973903 
L 182.050909 95.973903 
L 185.330248 108.276816 
L 188.609587 105.816233 
L 191.888926 103.35565 
L 195.168264 108.276816 
L 198.447603 113.197981 
L 201.726942 115.658563 
L 205.006281 115.658563 
L 208.28562 118.119146 
L 211.564959 115.658563 
L 214.844298 118.119146 
L 218.123636 113.197981 
L 221.402975 113.197981 
L 224.682314 132.882641 
L 227.961653 187.015456 
L 231.240992 189.476039 
L 234.520331 177.173126 
L 237.799669 179.633709 
L 241.079008 174.712544 
L 244.358347 182.094291 
L 247.637686 184.554874 
L 250.917025 187.015456 
L 254.196364 184.554874 
L 257.475702 187.015456 
L 260.755041 184.554874 
L 264.03438 179.633709 
L 267.313719 184.554874 
L 270.593058 174.712544 
L 273.872397 177.173126 
L 277.151736 172.251961 
L 280.431074 169.791379 
L 283.710413 167.330796 
L 286.989752 169.791379 
L 290.269091 172.251961 
L 293.54843 184.554874 
L 296.827769 182.094291 
L 300.107107 187.015456 
L 303.386446 189.476039 
L 306.665785 187.015456 
L 309.945124 182.094291 
L 313.224463 187.015456 
L 316.503802 194.397204 
L 319.78314 189.476039 
L 323.062479 191.936621 
L 326.341818 196.857786 
L 329.621157 187.015456 
L 332.900496 189.476039 
L 336.179835 187.015456 
L 339.459174 189.476039 
L 342.738512 187.015456 
L 346.017851 189.476039 
L 349.29719 182.094291 
L 352.576529 187.015456 
L 355.855868 191.936621 
L 359.135207 189.476039 
L 362.414545 184.554874 
L 365.693884 179.633709 
L 368.973223 177.173126 
L 372.252562 184.554874 
L 375.531901 182.094291 
L 378.81124 177.173126 
L 382.090579 179.633709 
L 385.369917 174.712544 
L 388.649256 182.094291 
L 391.928595 184.554874 
L 395.207934 187.015456 
L 398.487273 199.318369 
L 398.487273 61.525748 
L 398.487273 61.525748 
L 395.207934 61.525748 
L 391.928595 61.525748 
L 388.649256 61.525748 
L 385.369917 61.525748 
L 382.090579 61.525748 
L 378.81124 61.525748 
L 375.531901 61.525748 
L 372.252562 61.525748 
L 368.973223 61.525748 
L 365.693884 61.525748 
L 362.414545 61.525748 
L 359.135207 61.525748 
L 355.855868 61.525748 
L 352.576529 61.525748 
L 349.29719 61.525748 
L 346.017851 61.525748 
L 342.738512 61.525748 
L 339.459174 61.525748 
L 336.179835 61.525748 
L 332.900496 61.525748 
L 329.621157 61.525748 
L 326.341818 61.525748 
L 323.062479 61.525748 
L 319.78314 61.525748 
L 316.503802 61.525748 
L 313.224463 61.525748 
L 309.945124 61.525748 
L 306.665785 61.525748 
L 303.386446 61.525748 
L 300.107107 61.525748 
L 296.827769 61.525748 
L 293.54843 61.525748 
L 290.269091 61.525748 
L 286.989752 61.525748 
L 283.710413 61.525748 
L 280.431074 61.525748 
L 277.151736 61.525748 
L 273.872397 61.525748 
L 270.593058 61.525748 
L 267.313719 61.525748 
L 264.03438 61.525748 
L 260.755041 61.525748 
L 257.475702 61.525748 
L 254.196364 61.525748 
L 250.917025 61.525748 
L 247.637686 61.525748 
L 244.358347 61.525748 
L 241.079008 61.525748 
L 237.799669 61.525748 
L 234.520331 61.525748 
L 231.240992 61.525748 
L 227.961653 61.525748 
L 224.682314 61.525748 
L 221.402975 59.065165 
L 218.123636 61.525748 
L 214.844298 59.065165 
L 211.564959 61.525748 
L 208.28562 59.065165 
L 205.006281 63.98633 
L 201.726942 61.525748 
L 198.447603 61.525748 
L 195.168264 61.525748 
L 191.888926 59.065165 
L 188.609587 59.065165 
L 185.330248 63.98633 
L 182.050909 59.065165 
L 178.77157 66.446913 
L 175.492231 66.446913 
L 172.212893 59.065165 
L 168.933554 54.144 
L 165.654215 59.065165 
L 162.374876 61.525748 
L 159.095537 63.98633 
L 155.816198 63.98633 
L 152.53686 61.525748 
L 149.257521 61.525748 
L 145.978182 59.065165 
L 142.698843 59.065165 
L 139.419504 63.98633 
L 136.140165 66.446913 
L 132.860826 61.525748 
L 129.581488 63.98633 
L 126.302149 63.98633 
L 123.02281 61.525748 
L 119.743471 59.065165 
L 116.464132 61.525748 
L 113.184793 61.525748 
L 109.905455 54.144 
L 106.626116 59.065165 
L 103.346777 54.144 
L 100.067438 54.144 
L 96.788099 59.065165 
L 93.50876 54.144 
L 90.229421 59.065165 
L 86.950083 56.604583 
L 83.670744 56.604583 
L 80.391405 56.604583 
L 77.112066 61.525748 
L 73.832727 61.525748 
z
" style="fill:#d62728;"/>
   </g>
   <g id="matplotlib.axis_1">
    <g id="xtick_1">
     <g id="line2d_1">
      <defs>
       <path d="M 0 0 
L 0 3.5 
" id="m125f2374fd" style="stroke:#000000;stroke-width:0.8;"/>
      </defs>
      <g>
       <use style="stroke:#000000;stroke-width:0.8;" x="73.832727" xlink:href="#m125f2374fd" y="307.584"/>
      </g>
     </g>
     <g id="text_1">
      <!-- 0 -->
      <g transform="translate(70.651477 322.182437)scale(0.1 -0.1)">
       <defs>
        <path d="M 2034 4250 
Q 1547 4250 1301 3770 
Q 1056 3291 1056 2328 
Q 1056 1369 1301 889 
Q 1547 409 2034 409 
Q 2525 409 2770 889 
Q 3016 1369 3016 2328 
Q 3016 3291 2770 3770 
Q 2525 4250 2034 4250 
z
M 2034 4750 
Q 2819 4750 3233 4129 
Q 3647 3509 3647 2328 
Q 3647 1150 3233 529 
Q 2819 -91 2034 -91 
Q 1250 -91 836 529 
Q 422 1150 422 2328 
Q 422 3509 836 4129 
Q 1250 4750 2034 4750 
z
" id="DejaVuSans-30" transform="scale(0.015625)"/>
       </defs>
       <use xlink:href="#DejaVuSans-30"/>
      </g>
     </g>
    </g>
    <g id="xtick_2">
     <g id="line2d_2">
      <g>
       <use style="stroke:#000000;stroke-width:0.8;" x="139.419504" xlink:href="#m125f2374fd" y="307.584"/>
      </g>
     </g>
     <g id="text_2">
      <!-- 20 -->
      <g transform="translate(133.057004 322.182437)scale(0.1 -0.1)">
       <defs>
        <path d="M 1228 531 
L 3431 531 
L 3431 0 
L 469 0 
L 469 531 
Q 828 903 1448 1529 
Q 2069 2156 2228 2338 
Q 2531 2678 2651 2914 
Q 2772 3150 2772 3378 
Q 2772 3750 2511 3984 
Q 2250 4219 1831 4219 
Q 1534 4219 1204 4116 
Q 875 4013 500 3803 
L 500 4441 
Q 881 4594 1212 4672 
Q 1544 4750 1819 4750 
Q 2544 4750 2975 4387 
Q 3406 4025 3406 3419 
Q 3406 3131 3298 2873 
Q 3191 2616 2906 2266 
Q 2828 2175 2409 1742 
Q 1991 1309 1228 531 
z
" id="DejaVuSans-32" transform="scale(0.015625)"/>
       </defs>
       <use xlink:href="#DejaVuSans-32"/>
       <use x="63.623047" xlink:href="#DejaVuSans-30"/>
      </g>
     </g>
    </g>
    <g id="xtick_3">
     <g id="line2d_3">
      <g>
       <use style="stroke:#000000;stroke-width:0.8;" x="205.006281" xlink:href="#m125f2374fd" y="307.584"/>
      </g>
     </g>
     <g id="text_3">
      <!-- 40 -->
      <g transform="translate(198.643781 322.182437)scale(0.1 -0.1)">
       <defs>
        <path d="M 2419 4116 
L 825 1625 
L 2419 1625 
L 2419 4116 
z
M 2253 4666 
L 3047 4666 
L 3047 1625 
L 3713 1625 
L 3713 1100 
L 3047 1100 
L 3047 0 
L 2419 0 
L 2419 1100 
L 313 1100 
L 313 1709 
L 2253 4666 
z
" id="DejaVuSans-34" transform="scale(0.015625)"/>
       </defs>
       <use xlink:href="#DejaVuSans-34"/>
       <use x="63.623047" xlink:href="#DejaVuSans-30"/>
      </g>
     </g>
    </g>
    <g id="xtick_4">
     <g id="line2d_4">
      <g>
       <use style="stroke:#000000;stroke-width:0.8;" x="270.593058" xlink:href="#m125f2374fd" y="307.584"/>
      </g>
     </g>
     <g id="text_4">
      <!-- 60 -->
      <g transform="translate(264.230558 322.182437)scale(0.1 -0.1)">
       <defs>
        <path d="M 2113 2584 
Q 1688 2584 1439 2293 
Q 1191 2003 1191 1497 
Q 1191 994 1439 701 
Q 1688 409 2113 409 
Q 2538 409 2786 701 
Q 3034 994 3034 1497 
Q 3034 2003 2786 2293 
Q 2538 2584 2113 2584 
z
M 3366 4563 
L 3366 3988 
Q 3128 4100 2886 4159 
Q 2644 4219 2406 4219 
Q 1781 4219 1451 3797 
Q 1122 3375 1075 2522 
Q 1259 2794 1537 2939 
Q 1816 3084 2150 3084 
Q 2853 3084 3261 2657 
Q 3669 2231 3669 1497 
Q 3669 778 3244 343 
Q 2819 -91 2113 -91 
Q 1303 -91 875 529 
Q 447 1150 447 2328 
Q 447 3434 972 4092 
Q 1497 4750 2381 4750 
Q 2619 4750 2861 4703 
Q 3103 4656 3366 4563 
z
" id="DejaVuSans-36" transform="scale(0.015625)"/>
       </defs>
       <use xlink:href="#DejaVuSans-36"/>
       <use x="63.623047" xlink:href="#DejaVuSans-30"/>
      </g>
     </g>
    </g>
    <g id="xtick_5">
     <g id="line2d_5">
      <g>
       <use style="stroke:#000000;stroke-width:0.8;" x="336.179835" xlink:href="#m125f2374fd" y="307.584"/>
      </g>
     </g>
     <g id="text_5">
      <!-- 80 -->
      <g transform="translate(329.817335 322.182437)scale(0.1 -0.1)">
       <defs>
        <path d="M 2034 2216 
Q 1584 2216 1326 1975 
Q 1069 1734 1069 1313 
Q 1069 891 1326 650 
Q 1584 409 2034 409 
Q 2484 409 2743 651 
Q 3003 894 3003 1313 
Q 3003 1734 2745 1975 
Q 2488 2216 2034 2216 
z
M 1403 2484 
Q 997 2584 770 2862 
Q 544 3141 544 3541 
Q 544 4100 942 4425 
Q 1341 4750 2034 4750 
Q 2731 4750 3128 4425 
Q 3525 4100 3525 3541 
Q 3525 3141 3298 2862 
Q 3072 2584 2669 2484 
Q 3125 2378 3379 2068 
Q 3634 1759 3634 1313 
Q 3634 634 3220 271 
Q 2806 -91 2034 -91 
Q 1263 -91 848 271 
Q 434 634 434 1313 
Q 434 1759 690 2068 
Q 947 2378 1403 2484 
z
M 1172 3481 
Q 1172 3119 1398 2916 
Q 1625 2713 2034 2713 
Q 2441 2713 2670 2916 
Q 2900 3119 2900 3481 
Q 2900 3844 2670 4047 
Q 2441 4250 2034 4250 
Q 1625 4250 1398 4047 
Q 1172 3844 1172 3481 
z
" id="DejaVuSans-38" transform="scale(0.015625)"/>
       </defs>
       <use xlink:href="#DejaVuSans-38"/>
       <use x="63.623047" xlink:href="#DejaVuSans-30"/>
      </g>
     </g>
    </g>
    <g id="xtick_6">
     <g id="line2d_6">
      <g>
       <use style="stroke:#000000;stroke-width:0.8;" x="401.766612" xlink:href="#m125f2374fd" y="307.584"/>
      </g>
     </g>
     <g id="text_6">
      <!-- 100 -->
      <g transform="translate(392.222862 322.182437)scale(0.1 -0.1)">
       <defs>
        <path d="M 794 531 
L 1825 531 
L 1825 4091 
L 703 3866 
L 703 4441 
L 1819 4666 
L 2450 4666 
L 2450 531 
L 3481 531 
L 3481 0 
L 794 0 
L 794 531 
z
" id="DejaVuSans-31" transform="scale(0.015625)"/>
       </defs>
       <use xlink:href="#DejaVuSans-31"/>
       <use x="63.623047" xlink:href="#DejaVuSans-30"/>
       <use x="127.246094" xlink:href="#DejaVuSans-30"/>
      </g>
     </g>
    </g>
    <g id="text_7">
     <!-- Generations -->
     <g transform="translate(205.662344 335.860562)scale(0.1 -0.1)">
      <defs>
       <path d="M 3809 666 
L 3809 1919 
L 2778 1919 
L 2778 2438 
L 4434 2438 
L 4434 434 
Q 4069 175 3628 42 
Q 3188 -91 2688 -91 
Q 1594 -91 976 548 
Q 359 1188 359 2328 
Q 359 3472 976 4111 
Q 1594 4750 2688 4750 
Q 3144 4750 3555 4637 
Q 3966 4525 4313 4306 
L 4313 3634 
Q 3963 3931 3569 4081 
Q 3175 4231 2741 4231 
Q 1884 4231 1454 3753 
Q 1025 3275 1025 2328 
Q 1025 1384 1454 906 
Q 1884 428 2741 428 
Q 3075 428 3337 486 
Q 3600 544 3809 666 
z
" id="DejaVuSans-47" transform="scale(0.015625)"/>
       <path d="M 3597 1894 
L 3597 1613 
L 953 1613 
Q 991 1019 1311 708 
Q 1631 397 2203 397 
Q 2534 397 2845 478 
Q 3156 559 3463 722 
L 3463 178 
Q 3153 47 2828 -22 
Q 2503 -91 2169 -91 
Q 1331 -91 842 396 
Q 353 884 353 1716 
Q 353 2575 817 3079 
Q 1281 3584 2069 3584 
Q 2775 3584 3186 3129 
Q 3597 2675 3597 1894 
z
M 3022 2063 
Q 3016 2534 2758 2815 
Q 2500 3097 2075 3097 
Q 1594 3097 1305 2825 
Q 1016 2553 972 2059 
L 3022 2063 
z
" id="DejaVuSans-65" transform="scale(0.015625)"/>
       <path d="M 3513 2113 
L 3513 0 
L 2938 0 
L 2938 2094 
Q 2938 2591 2744 2837 
Q 2550 3084 2163 3084 
Q 1697 3084 1428 2787 
Q 1159 2491 1159 1978 
L 1159 0 
L 581 0 
L 581 3500 
L 1159 3500 
L 1159 2956 
Q 1366 3272 1645 3428 
Q 1925 3584 2291 3584 
Q 2894 3584 3203 3211 
Q 3513 2838 3513 2113 
z
" id="DejaVuSans-6e" transform="scale(0.015625)"/>
       <path d="M 2631 2963 
Q 2534 3019 2420 3045 
Q 2306 3072 2169 3072 
Q 1681 3072 1420 2755 
Q 1159 2438 1159 1844 
L 1159 0 
L 581 0 
L 581 3500 
L 1159 3500 
L 1159 2956 
Q 1341 3275 1631 3429 
Q 1922 3584 2338 3584 
Q 2397 3584 2469 3576 
Q 2541 3569 2628 3553 
L 2631 2963 
z
" id="DejaVuSans-72" transform="scale(0.015625)"/>
       <path d="M 2194 1759 
Q 1497 1759 1228 1600 
Q 959 1441 959 1056 
Q 959 750 1161 570 
Q 1363 391 1709 391 
Q 2188 391 2477 730 
Q 2766 1069 2766 1631 
L 2766 1759 
L 2194 1759 
z
M 3341 1997 
L 3341 0 
L 2766 0 
L 2766 531 
Q 2569 213 2275 61 
Q 1981 -91 1556 -91 
Q 1019 -91 701 211 
Q 384 513 384 1019 
Q 384 1609 779 1909 
Q 1175 2209 1959 2209 
L 2766 2209 
L 2766 2266 
Q 2766 2663 2505 2880 
Q 2244 3097 1772 3097 
Q 1472 3097 1187 3025 
Q 903 2953 641 2809 
L 641 3341 
Q 956 3463 1253 3523 
Q 1550 3584 1831 3584 
Q 2591 3584 2966 3190 
Q 3341 2797 3341 1997 
z
" id="DejaVuSans-61" transform="scale(0.015625)"/>
       <path d="M 1172 4494 
L 1172 3500 
L 2356 3500 
L 2356 3053 
L 1172 3053 
L 1172 1153 
Q 1172 725 1289 603 
Q 1406 481 1766 481 
L 2356 481 
L 2356 0 
L 1766 0 
Q 1100 0 847 248 
Q 594 497 594 1153 
L 594 3053 
L 172 3053 
L 172 3500 
L 594 3500 
L 594 4494 
L 1172 4494 
z
" id="DejaVuSans-74" transform="scale(0.015625)"/>
       <path d="M 603 3500 
L 1178 3500 
L 1178 0 
L 603 0 
L 603 3500 
z
M 603 4863 
L 1178 4863 
L 1178 4134 
L 603 4134 
L 603 4863 
z
" id="DejaVuSans-69" transform="scale(0.015625)"/>
       <path d="M 1959 3097 
Q 1497 3097 1228 2736 
Q 959 2375 959 1747 
Q 959 1119 1226 758 
Q 1494 397 1959 397 
Q 2419 397 2687 759 
Q 2956 1122 2956 1747 
Q 2956 2369 2687 2733 
Q 2419 3097 1959 3097 
z
M 1959 3584 
Q 2709 3584 3137 3096 
Q 3566 2609 3566 1747 
Q 3566 888 3137 398 
Q 2709 -91 1959 -91 
Q 1206 -91 779 398 
Q 353 888 353 1747 
Q 353 2609 779 3096 
Q 1206 3584 1959 3584 
z
" id="DejaVuSans-6f" transform="scale(0.015625)"/>
       <path d="M 2834 3397 
L 2834 2853 
Q 2591 2978 2328 3040 
Q 2066 3103 1784 3103 
Q 1356 3103 1142 2972 
Q 928 2841 928 2578 
Q 928 2378 1081 2264 
Q 1234 2150 1697 2047 
L 1894 2003 
Q 2506 1872 2764 1633 
Q 3022 1394 3022 966 
Q 3022 478 2636 193 
Q 2250 -91 1575 -91 
Q 1294 -91 989 -36 
Q 684 19 347 128 
L 347 722 
Q 666 556 975 473 
Q 1284 391 1588 391 
Q 1994 391 2212 530 
Q 2431 669 2431 922 
Q 2431 1156 2273 1281 
Q 2116 1406 1581 1522 
L 1381 1569 
Q 847 1681 609 1914 
Q 372 2147 372 2553 
Q 372 3047 722 3315 
Q 1072 3584 1716 3584 
Q 2034 3584 2315 3537 
Q 2597 3491 2834 3397 
z
" id="DejaVuSans-73" transform="scale(0.015625)"/>
      </defs>
      <use xlink:href="#DejaVuSans-47"/>
      <use x="77.490234" xlink:href="#DejaVuSans-65"/>
      <use x="139.013672" xlink:href="#DejaVuSans-6e"/>
      <use x="202.392578" xlink:href="#DejaVuSans-65"/>
      <use x="263.916016" xlink:href="#DejaVuSans-72"/>
      <use x="305.029297" xlink:href="#DejaVuSans-61"/>
      <use x="366.308594" xlink:href="#DejaVuSans-74"/>
      <use x="405.517578" xlink:href="#DejaVuSans-69"/>
      <use x="433.300781" xlink:href="#DejaVuSans-6f"/>
      <use x="494.482422" xlink:href="#DejaVuSans-6e"/>
      <use x="557.861328" xlink:href="#DejaVuSans-73"/>
     </g>
    </g>
   </g>
   <g id="matplotlib.axis_2">
    <g id="ytick_1">
     <g id="line2d_7">
      <defs>
       <path d="M 0 0 
L -3.5 0 
" id="mda06379300" style="stroke:#000000;stroke-width:0.8;"/>
      </defs>
      <g>
       <use style="stroke:#000000;stroke-width:0.8;" x="57.6" xlink:href="#mda06379300" y="307.584"/>
      </g>
     </g>
     <g id="text_8">
      <!-- 0 -->
      <g transform="translate(44.2375 311.383219)scale(0.1 -0.1)">
       <use xlink:href="#DejaVuSans-30"/>
      </g>
     </g>
    </g>
    <g id="ytick_2">
     <g id="line2d_8">
      <g>
       <use style="stroke:#000000;stroke-width:0.8;" x="57.6" xlink:href="#mda06379300" y="258.37235"/>
      </g>
     </g>
     <g id="text_9">
      <!-- 20 -->
      <g transform="translate(37.875 262.171568)scale(0.1 -0.1)">
       <use xlink:href="#DejaVuSans-32"/>
       <use x="63.623047" xlink:href="#DejaVuSans-30"/>
      </g>
     </g>
    </g>
    <g id="ytick_3">
     <g id="line2d_9">
      <g>
       <use style="stroke:#000000;stroke-width:0.8;" x="57.6" xlink:href="#mda06379300" y="209.160699"/>
      </g>
     </g>
     <g id="text_10">
      <!-- 40 -->
      <g transform="translate(37.875 212.959918)scale(0.1 -0.1)">
       <use xlink:href="#DejaVuSans-34"/>
       <use x="63.623047" xlink:href="#DejaVuSans-30"/>
      </g>
     </g>
    </g>
    <g id="ytick_4">
     <g id="line2d_10">
      <g>
       <use style="stroke:#000000;stroke-width:0.8;" x="57.6" xlink:href="#mda06379300" y="159.949049"/>
      </g>
     </g>
     <g id="text_11">
      <!-- 60 -->
      <g transform="translate(37.875 163.748267)scale(0.1 -0.1)">
       <use xlink:href="#DejaVuSans-36"/>
       <use x="63.623047" xlink:href="#DejaVuSans-30"/>
      </g>
     </g>
    </g>
    <g id="ytick_5">
     <g id="line2d_11">
      <g>
       <use style="stroke:#000000;stroke-width:0.8;" x="57.6" xlink:href="#mda06379300" y="110.737398"/>
      </g>
     </g>
     <g id="text_12">
      <!-- 80 -->
      <g transform="translate(37.875 114.536617)scale(0.1 -0.1)">
       <use xlink:href="#DejaVuSans-38"/>
       <use x="63.623047" xlink:href="#DejaVuSans-30"/>
      </g>
     </g>
    </g>
    <g id="ytick_6">
     <g id="line2d_12">
      <g>
       <use style="stroke:#000000;stroke-width:0.8;" x="57.6" xlink:href="#mda06379300" y="61.525748"/>
      </g>
     </g>
     <g id="text_13">
      <!-- 100 -->
      <g transform="translate(31.5125 65.324966)scale(0.1 -0.1)">
       <use xlink:href="#DejaVuSans-31"/>
       <use x="63.623047" xlink:href="#DejaVuSans-30"/>
       <use x="127.246094" xlink:href="#DejaVuSans-30"/>
      </g>
     </g>
    </g>
    <g id="text_14">
     <!-- Size per Species -->
     <g transform="translate(25.432812 215.520969)rotate(-90)scale(0.1 -0.1)">
      <defs>
       <path d="M 3425 4513 
L 3425 3897 
Q 3066 4069 2747 4153 
Q 2428 4238 2131 4238 
Q 1616 4238 1336 4038 
Q 1056 3838 1056 3469 
Q 1056 3159 1242 3001 
Q 1428 2844 1947 2747 
L 2328 2669 
Q 3034 2534 3370 2195 
Q 3706 1856 3706 1288 
Q 3706 609 3251 259 
Q 2797 -91 1919 -91 
Q 1588 -91 1214 -16 
Q 841 59 441 206 
L 441 856 
Q 825 641 1194 531 
Q 1563 422 1919 422 
Q 2459 422 2753 634 
Q 3047 847 3047 1241 
Q 3047 1584 2836 1778 
Q 2625 1972 2144 2069 
L 1759 2144 
Q 1053 2284 737 2584 
Q 422 2884 422 3419 
Q 422 4038 858 4394 
Q 1294 4750 2059 4750 
Q 2388 4750 2728 4690 
Q 3069 4631 3425 4513 
z
" id="DejaVuSans-53" transform="scale(0.015625)"/>
       <path d="M 353 3500 
L 3084 3500 
L 3084 2975 
L 922 459 
L 3084 459 
L 3084 0 
L 275 0 
L 275 525 
L 2438 3041 
L 353 3041 
L 353 3500 
z
" id="DejaVuSans-7a" transform="scale(0.015625)"/>
       <path id="DejaVuSans-20" transform="scale(0.015625)"/>
       <path d="M 1159 525 
L 1159 -1331 
L 581 -1331 
L 581 3500 
L 1159 3500 
L 1159 2969 
Q 1341 3281 1617 3432 
Q 1894 3584 2278 3584 
Q 2916 3584 3314 3078 
Q 3713 2572 3713 1747 
Q 3713 922 3314 415 
Q 2916 -91 2278 -91 
Q 1894 -91 1617 61 
Q 1341 213 1159 525 
z
M 3116 1747 
Q 3116 2381 2855 2742 
Q 2594 3103 2138 3103 
Q 1681 3103 1420 2742 
Q 1159 2381 1159 1747 
Q 1159 1113 1420 752 
Q 1681 391 2138 391 
Q 2594 391 2855 752 
Q 3116 1113 3116 1747 
z
" id="DejaVuSans-70" transform="scale(0.015625)"/>
       <path d="M 3122 3366 
L 3122 2828 
Q 2878 2963 2633 3030 
Q 2388 3097 2138 3097 
Q 1578 3097 1268 2742 
Q 959 2388 959 1747 
Q 959 1106 1268 751 
Q 1578 397 2138 397 
Q 2388 397 2633 464 
Q 2878 531 3122 666 
L 3122 134 
Q 2881 22 2623 -34 
Q 2366 -91 2075 -91 
Q 1284 -91 818 406 
Q 353 903 353 1747 
Q 353 2603 823 3093 
Q 1294 3584 2113 3584 
Q 2378 3584 2631 3529 
Q 2884 3475 3122 3366 
z
" id="DejaVuSans-63" transform="scale(0.015625)"/>
      </defs>
      <use xlink:href="#DejaVuSans-53"/>
      <use x="63.476562" xlink:href="#DejaVuSans-69"/>
      <use x="91.259766" xlink:href="#DejaVuSans-7a"/>
      <use x="143.75" xlink:href="#DejaVuSans-65"/>
      <use x="205.273438" xlink:href="#DejaVuSans-20"/>
      <use x="237.060547" xlink:href="#DejaVuSans-70"/>
      <use x="300.537109" xlink:href="#DejaVuSans-65"/>
      <use x="362.060547" xlink:href="#DejaVuSans-72"/>
      <use x="403.173828" xlink:href="#DejaVuSans-20"/>
      <use x="434.960938" xlink:href="#DejaVuSans-53"/>
      <use x="498.4375" xlink:href="#DejaVuSans-70"/>
      <use x="561.914062" xlink:href="#DejaVuSans-65"/>
      <use x="623.4375" xlink:href="#DejaVuSans-63"/>
      <use x="678.417969" xlink:href="#DejaVuSans-69"/>
      <use x="706.201172" xlink:href="#DejaVuSans-65"/>
      <use x="767.724609" xlink:href="#DejaVuSans-73"/>
     </g>
    </g>
   </g>
   <g id="patch_3">
    <path d="M 57.6 307.584 
L 57.6 41.472 
" style="fill:none;stroke:#000000;stroke-linecap:square;stroke-linejoin:miter;stroke-width:0.8;"/>
   </g>
   <g id="patch_4">
    <path d="M 414.72 307.584 
L 414.72 41.472 
" style="fill:none;stroke:#000000;stroke-linecap:square;stroke-linejoin:miter;stroke-width:0.8;"/>
   </g>
   <g id="patch_5">
    <path d="M 57.6 307.584 
L 414.72 307.584 
" style="fill:none;stroke:#000000;stroke-linecap:square;stroke-linejoin:miter;stroke-width:0.8;"/>
   </g>
   <g id="patch_6">
    <path d="M 57.6 41.472 
L 414.72 41.472 
" style="fill:none;stroke:#000000;stroke-linecap:square;stroke-linejoin:miter;stroke-width:0.8;"/>
   </g>
   <g id="text_15">
    <!-- Speciation -->
    <g transform="translate(204.714375 35.472)scale(0.12 -0.12)">
     <use xlink:href="#DejaVuSans-53"/>
     <use x="63.476562" xlink:href="#DejaVuSans-70"/>
     <use x="126.953125" xlink:href="#DejaVuSans-65"/>
     <use x="188.476562" xlink:href="#DejaVuSans-63"/>
     <use x="243.457031" xlink:href="#DejaVuSans-69"/>
     <use x="271.240234" xlink:href="#DejaVuSans-61"/>
     <use x="332.519531" xlink:href="#DejaVuSans-74"/>
     <use x="371.728516" xlink:href="#DejaVuSans-69"/>
     <use x="399.511719" xlink:href="#DejaVuSans-6f"/>
     <use x="460.693359" xlink:href="#DejaVuSans-6e"/>
    </g>
   </g>
  </g>
 </g>
 <defs>
  <clipPath id="pbffe820f13">
   <rect height="266.112" width="357.12" x="57.6" y="41.472"/>
  </clipPath>
 </defs>
</svg>
