<?xml version="1.0" encoding="utf-8" standalone="no"?>
<!DOCTYPE svg PUBLIC "-//W3C//DTD SVG 1.1//EN"
  "http://www.w3.org/Graphics/SVG/1.1/DTD/svg11.dtd">
<svg height="345.6pt" version="1.1" viewBox="0 0 460.8 345.6" width="460.8pt" xmlns="http://www.w3.org/2000/svg" xmlns:xlink="http://www.w3.org/1999/xlink">
 <metadata>
  <rdf:RDF xmlns:cc="http://creativecommons.org/ns#" xmlns:dc="http://purl.org/dc/elements/1.1/" xmlns:rdf="http://www.w3.org/1999/02/22-rdf-syntax-ns#">
   <cc:Work>
    <dc:type rdf:resource="http://purl.org/dc/dcmitype/StillImage"/>
    <dc:date>2021-09-27T12:58:36.622217</dc:date>
    <dc:format>image/svg+xml</dc:format>
    <dc:creator>
     <cc:Agent>
      <dc:title>Matplotlib v3.4.2, https://matplotlib.org/</dc:title>
     </cc:Agent>
    </dc:creator>
   </cc:Work>
  </rdf:RDF>
 </metadata>
 <defs>
  <style type="text/css">*{stroke-linecap:butt;stroke-linejoin:round;}</style>
 </defs>
 <g id="figure_1">
  <g id="patch_1">
   <path d="M 0 345.6 
L 460.8 345.6 
L 460.8 0 
L 0 0 
z
" style="fill:#ffffff;"/>
  </g>
  <g id="axes_1">
   <g id="patch_2">
    <path d="M 57.6 307.584 
L 414.72 307.584 
L 414.72 41.472 
L 57.6 41.472 
z
" style="fill:#ffffff;"/>
   </g>
   <g id="PolyCollection_1">
    <path clip-path="url(#paff239625c)" d="M 73.832727 302.710154 
L 73.832727 307.584 
L 77.112066 307.584 
L 80.391405 307.584 
L 83.670744 307.584 
L 86.950083 307.584 
L 90.229421 307.584 
L 93.50876 307.584 
L 96.788099 307.584 
L 100.067438 307.584 
L 103.346777 307.584 
L 106.626116 307.584 
L 109.905455 307.584 
L 113.184793 307.584 
L 116.464132 307.584 
L 119.743471 307.584 
L 123.02281 307.584 
L 126.302149 307.584 
L 129.581488 307.584 
L 132.860826 307.584 
L 136.140165 307.584 
L 139.419504 307.584 
L 142.698843 307.584 
L 145.978182 307.584 
L 149.257521 307.584 
L 152.53686 307.584 
L 155.816198 307.584 
L 159.095537 307.584 
L 162.374876 307.584 
L 165.654215 307.584 
L 168.933554 307.584 
L 172.212893 307.584 
L 175.492231 307.584 
L 178.77157 307.584 
L 182.050909 307.584 
L 185.330248 307.584 
L 188.609587 307.584 
L 191.888926 307.584 
L 195.168264 307.584 
L 198.447603 307.584 
L 201.726942 307.584 
L 205.006281 307.584 
L 208.28562 307.584 
L 211.564959 307.584 
L 214.844298 307.584 
L 218.123636 307.584 
L 221.402975 307.584 
L 224.682314 307.584 
L 227.961653 307.584 
L 231.240992 307.584 
L 234.520331 307.584 
L 237.799669 307.584 
L 241.079008 307.584 
L 244.358347 307.584 
L 247.637686 307.584 
L 250.917025 307.584 
L 254.196364 307.584 
L 257.475702 307.584 
L 260.755041 307.584 
L 264.03438 307.584 
L 267.313719 307.584 
L 270.593058 307.584 
L 273.872397 307.584 
L 277.151736 307.584 
L 280.431074 307.584 
L 283.710413 307.584 
L 286.989752 307.584 
L 290.269091 307.584 
L 293.54843 307.584 
L 296.827769 307.584 
L 300.107107 307.584 
L 303.386446 307.584 
L 306.665785 307.584 
L 309.945124 307.584 
L 313.224463 307.584 
L 316.503802 307.584 
L 319.78314 307.584 
L 323.062479 307.584 
L 326.341818 307.584 
L 329.621157 307.584 
L 332.900496 307.584 
L 336.179835 307.584 
L 339.459174 307.584 
L 342.738512 307.584 
L 346.017851 307.584 
L 349.29719 307.584 
L 352.576529 307.584 
L 355.855868 307.584 
L 359.135207 307.584 
L 362.414545 307.584 
L 365.693884 307.584 
L 368.973223 307.584 
L 372.252562 307.584 
L 375.531901 307.584 
L 378.81124 307.584 
L 382.090579 307.584 
L 385.369917 307.584 
L 388.649256 307.584 
L 391.928595 307.584 
L 395.207934 307.584 
L 398.487273 307.584 
L 398.487273 307.584 
L 398.487273 307.584 
L 395.207934 307.584 
L 391.928595 307.584 
L 388.649256 307.584 
L 385.369917 307.584 
L 382.090579 307.584 
L 378.81124 307.584 
L 375.531901 307.584 
L 372.252562 307.584 
L 368.973223 307.584 
L 365.693884 307.584 
L 362.414545 307.584 
L 359.135207 307.584 
L 355.855868 307.584 
L 352.576529 307.584 
L 349.29719 307.584 
L 346.017851 307.584 
L 342.738512 307.584 
L 339.459174 307.584 
L 336.179835 307.584 
L 332.900496 307.584 
L 329.621157 307.584 
L 326.341818 307.584 
L 323.062479 307.584 
L 319.78314 307.584 
L 316.503802 307.584 
L 313.224463 307.584 
L 309.945124 307.584 
L 306.665785 307.584 
L 303.386446 307.584 
L 300.107107 307.584 
L 296.827769 307.584 
L 293.54843 307.584 
L 290.269091 307.584 
L 286.989752 307.584 
L 283.710413 307.584 
L 280.431074 307.584 
L 277.151736 307.584 
L 273.872397 307.584 
L 270.593058 307.584 
L 267.313719 307.584 
L 264.03438 307.584 
L 260.755041 307.584 
L 257.475702 307.584 
L 254.196364 307.584 
L 250.917025 307.584 
L 247.637686 307.584 
L 244.358347 307.584 
L 241.079008 307.584 
L 237.799669 307.584 
L 234.520331 307.584 
L 231.240992 307.584 
L 227.961653 307.584 
L 224.682314 307.584 
L 221.402975 307.584 
L 218.123636 307.584 
L 214.844298 307.584 
L 211.564959 307.584 
L 208.28562 307.584 
L 205.006281 307.584 
L 201.726942 307.584 
L 198.447603 307.584 
L 195.168264 307.584 
L 191.888926 307.584 
L 188.609587 307.584 
L 185.330248 307.584 
L 182.050909 307.584 
L 178.77157 307.584 
L 175.492231 307.584 
L 172.212893 307.584 
L 168.933554 307.584 
L 165.654215 307.584 
L 162.374876 307.584 
L 159.095537 307.584 
L 155.816198 307.584 
L 152.53686 307.584 
L 149.257521 307.584 
L 145.978182 307.584 
L 142.698843 307.584 
L 139.419504 307.584 
L 136.140165 307.584 
L 132.860826 307.584 
L 129.581488 307.584 
L 126.302149 307.584 
L 123.02281 302.710154 
L 119.743471 302.710154 
L 116.464132 302.710154 
L 113.184793 302.710154 
L 109.905455 302.710154 
L 106.626116 302.710154 
L 103.346777 302.710154 
L 100.067438 302.710154 
L 96.788099 302.710154 
L 93.50876 302.710154 
L 90.229421 302.710154 
L 86.950083 302.710154 
L 83.670744 302.710154 
L 80.391405 300.273231 
L 77.112066 302.710154 
L 73.832727 302.710154 
z
" style="fill:#1f77b4;"/>
   </g>
   <g id="PolyCollection_2">
    <path clip-path="url(#paff239625c)" d="M 73.832727 256.408615 
L 73.832727 302.710154 
L 77.112066 302.710154 
L 80.391405 300.273231 
L 83.670744 302.710154 
L 86.950083 302.710154 
L 90.229421 302.710154 
L 93.50876 302.710154 
L 96.788099 302.710154 
L 100.067438 302.710154 
L 103.346777 302.710154 
L 106.626116 302.710154 
L 109.905455 302.710154 
L 113.184793 302.710154 
L 116.464132 302.710154 
L 119.743471 302.710154 
L 123.02281 302.710154 
L 126.302149 307.584 
L 129.581488 307.584 
L 132.860826 307.584 
L 136.140165 307.584 
L 139.419504 307.584 
L 142.698843 307.584 
L 145.978182 307.584 
L 149.257521 307.584 
L 152.53686 307.584 
L 155.816198 307.584 
L 159.095537 307.584 
L 162.374876 307.584 
L 165.654215 307.584 
L 168.933554 307.584 
L 172.212893 307.584 
L 175.492231 307.584 
L 178.77157 307.584 
L 182.050909 307.584 
L 185.330248 307.584 
L 188.609587 307.584 
L 191.888926 307.584 
L 195.168264 307.584 
L 198.447603 307.584 
L 201.726942 307.584 
L 205.006281 307.584 
L 208.28562 307.584 
L 211.564959 307.584 
L 214.844298 307.584 
L 218.123636 307.584 
L 221.402975 307.584 
L 224.682314 307.584 
L 227.961653 307.584 
L 231.240992 307.584 
L 234.520331 307.584 
L 237.799669 307.584 
L 241.079008 307.584 
L 244.358347 307.584 
L 247.637686 307.584 
L 250.917025 307.584 
L 254.196364 307.584 
L 257.475702 307.584 
L 260.755041 307.584 
L 264.03438 307.584 
L 267.313719 307.584 
L 270.593058 307.584 
L 273.872397 307.584 
L 277.151736 307.584 
L 280.431074 307.584 
L 283.710413 307.584 
L 286.989752 307.584 
L 290.269091 307.584 
L 293.54843 307.584 
L 296.827769 307.584 
L 300.107107 307.584 
L 303.386446 307.584 
L 306.665785 307.584 
L 309.945124 307.584 
L 313.224463 307.584 
L 316.503802 307.584 
L 319.78314 307.584 
L 323.062479 307.584 
L 326.341818 307.584 
L 329.621157 307.584 
L 332.900496 307.584 
L 336.179835 307.584 
L 339.459174 307.584 
L 342.738512 307.584 
L 346.017851 307.584 
L 349.29719 307.584 
L 352.576529 307.584 
L 355.855868 307.584 
L 359.135207 307.584 
L 362.414545 307.584 
L 365.693884 307.584 
L 368.973223 307.584 
L 372.252562 307.584 
L 375.531901 307.584 
L 378.81124 307.584 
L 382.090579 307.584 
L 385.369917 307.584 
L 388.649256 307.584 
L 391.928595 307.584 
L 395.207934 307.584 
L 398.487273 307.584 
L 398.487273 307.584 
L 398.487273 307.584 
L 395.207934 307.584 
L 391.928595 307.584 
L 388.649256 307.584 
L 385.369917 307.584 
L 382.090579 307.584 
L 378.81124 307.584 
L 375.531901 307.584 
L 372.252562 307.584 
L 368.973223 307.584 
L 365.693884 307.584 
L 362.414545 307.584 
L 359.135207 307.584 
L 355.855868 307.584 
L 352.576529 307.584 
L 349.29719 307.584 
L 346.017851 307.584 
L 342.738512 307.584 
L 339.459174 307.584 
L 336.179835 307.584 
L 332.900496 307.584 
L 329.621157 307.584 
L 326.341818 307.584 
L 323.062479 307.584 
L 319.78314 307.584 
L 316.503802 307.584 
L 313.224463 307.584 
L 309.945124 307.584 
L 306.665785 307.584 
L 303.386446 307.584 
L 300.107107 307.584 
L 296.827769 307.584 
L 293.54843 307.584 
L 290.269091 307.584 
L 286.989752 307.584 
L 283.710413 307.584 
L 280.431074 307.584 
L 277.151736 307.584 
L 273.872397 307.584 
L 270.593058 307.584 
L 267.313719 307.584 
L 264.03438 307.584 
L 260.755041 307.584 
L 257.475702 307.584 
L 254.196364 307.584 
L 250.917025 307.584 
L 247.637686 307.584 
L 244.358347 307.584 
L 241.079008 307.584 
L 237.799669 307.584 
L 234.520331 307.584 
L 231.240992 307.584 
L 227.961653 307.584 
L 224.682314 307.584 
L 221.402975 307.584 
L 218.123636 307.584 
L 214.844298 307.584 
L 211.564959 307.584 
L 208.28562 307.584 
L 205.006281 224.728615 
L 201.726942 227.165538 
L 198.447603 229.602462 
L 195.168264 256.408615 
L 191.888926 258.845538 
L 188.609587 256.408615 
L 185.330248 261.282462 
L 182.050909 258.845538 
L 178.77157 256.408615 
L 175.492231 258.845538 
L 172.212893 261.282462 
L 168.933554 258.845538 
L 165.654215 268.593231 
L 162.374876 266.156308 
L 159.095537 263.719385 
L 155.816198 268.593231 
L 152.53686 266.156308 
L 149.257521 266.156308 
L 145.978182 268.593231 
L 142.698843 273.467077 
L 139.419504 280.777846 
L 136.140165 283.214769 
L 132.860826 285.651692 
L 129.581488 283.214769 
L 126.302149 285.651692 
L 123.02281 283.214769 
L 119.743471 280.777846 
L 116.464132 283.214769 
L 113.184793 275.904 
L 109.905455 283.214769 
L 106.626116 278.340923 
L 103.346777 280.777846 
L 100.067438 278.340923 
L 96.788099 285.651692 
L 93.50876 268.593231 
L 90.229421 292.962462 
L 86.950083 290.525538 
L 83.670744 300.273231 
L 80.391405 292.962462 
L 77.112066 300.273231 
L 73.832727 256.408615 
z
" style="fill:#ff7f0e;"/>
   </g>
   <g id="PolyCollection_3">
    <path clip-path="url(#paff239625c)" d="M 73.832727 195.485538 
L 73.832727 256.408615 
L 77.112066 300.273231 
L 80.391405 292.962462 
L 83.670744 300.273231 
L 86.950083 290.525538 
L 90.229421 292.962462 
L 93.50876 268.593231 
L 96.788099 285.651692 
L 100.067438 278.340923 
L 103.346777 280.777846 
L 106.626116 278.340923 
L 109.905455 283.214769 
L 113.184793 275.904 
L 116.464132 283.214769 
L 119.743471 280.777846 
L 123.02281 283.214769 
L 126.302149 285.651692 
L 129.581488 283.214769 
L 132.860826 285.651692 
L 136.140165 283.214769 
L 139.419504 280.777846 
L 142.698843 273.467077 
L 145.978182 268.593231 
L 149.257521 266.156308 
L 152.53686 266.156308 
L 155.816198 268.593231 
L 159.095537 263.719385 
L 162.374876 266.156308 
L 165.654215 268.593231 
L 168.933554 258.845538 
L 172.212893 261.282462 
L 175.492231 258.845538 
L 178.77157 256.408615 
L 182.050909 258.845538 
L 185.330248 261.282462 
L 188.609587 256.408615 
L 191.888926 258.845538 
L 195.168264 256.408615 
L 198.447603 229.602462 
L 201.726942 227.165538 
L 205.006281 224.728615 
L 208.28562 307.584 
L 211.564959 307.584 
L 214.844298 307.584 
L 218.123636 307.584 
L 221.402975 307.584 
L 224.682314 307.584 
L 227.961653 307.584 
L 231.240992 307.584 
L 234.520331 307.584 
L 237.799669 307.584 
L 241.079008 307.584 
L 244.358347 307.584 
L 247.637686 307.584 
L 250.917025 307.584 
L 254.196364 307.584 
L 257.475702 307.584 
L 260.755041 307.584 
L 264.03438 307.584 
L 267.313719 307.584 
L 270.593058 307.584 
L 273.872397 307.584 
L 277.151736 307.584 
L 280.431074 307.584 
L 283.710413 307.584 
L 286.989752 307.584 
L 290.269091 307.584 
L 293.54843 307.584 
L 296.827769 307.584 
L 300.107107 307.584 
L 303.386446 307.584 
L 306.665785 307.584 
L 309.945124 307.584 
L 313.224463 307.584 
L 316.503802 307.584 
L 319.78314 307.584 
L 323.062479 307.584 
L 326.341818 307.584 
L 329.621157 307.584 
L 332.900496 307.584 
L 336.179835 307.584 
L 339.459174 307.584 
L 342.738512 307.584 
L 346.017851 307.584 
L 349.29719 307.584 
L 352.576529 307.584 
L 355.855868 307.584 
L 359.135207 307.584 
L 362.414545 307.584 
L 365.693884 307.584 
L 368.973223 307.584 
L 372.252562 307.584 
L 375.531901 307.584 
L 378.81124 307.584 
L 382.090579 307.584 
L 385.369917 307.584 
L 388.649256 307.584 
L 391.928595 307.584 
L 395.207934 307.584 
L 398.487273 307.584 
L 398.487273 307.584 
L 398.487273 307.584 
L 395.207934 307.584 
L 391.928595 307.584 
L 388.649256 307.584 
L 385.369917 307.584 
L 382.090579 307.584 
L 378.81124 307.584 
L 375.531901 307.584 
L 372.252562 307.584 
L 368.973223 307.584 
L 365.693884 307.584 
L 362.414545 307.584 
L 359.135207 307.584 
L 355.855868 307.584 
L 352.576529 307.584 
L 349.29719 307.584 
L 346.017851 307.584 
L 342.738512 307.584 
L 339.459174 307.584 
L 336.179835 307.584 
L 332.900496 307.584 
L 329.621157 307.584 
L 326.341818 307.584 
L 323.062479 307.584 
L 319.78314 307.584 
L 316.503802 307.584 
L 313.224463 307.584 
L 309.945124 307.584 
L 306.665785 307.584 
L 303.386446 307.584 
L 300.107107 307.584 
L 296.827769 307.584 
L 293.54843 307.584 
L 290.269091 307.584 
L 286.989752 307.584 
L 283.710413 307.584 
L 280.431074 307.584 
L 277.151736 307.584 
L 273.872397 307.584 
L 270.593058 307.584 
L 267.313719 307.584 
L 264.03438 307.584 
L 260.755041 307.584 
L 257.475702 307.584 
L 254.196364 307.584 
L 250.917025 307.584 
L 247.637686 307.584 
L 244.358347 307.584 
L 241.079008 307.584 
L 237.799669 307.584 
L 234.520331 307.584 
L 231.240992 307.584 
L 227.961653 307.584 
L 224.682314 307.584 
L 221.402975 307.584 
L 218.123636 307.584 
L 214.844298 307.584 
L 211.564959 307.584 
L 208.28562 307.584 
L 205.006281 224.728615 
L 201.726942 227.165538 
L 198.447603 229.602462 
L 195.168264 256.408615 
L 191.888926 258.845538 
L 188.609587 256.408615 
L 185.330248 261.282462 
L 182.050909 258.845538 
L 178.77157 256.408615 
L 175.492231 258.845538 
L 172.212893 261.282462 
L 168.933554 258.845538 
L 165.654215 268.593231 
L 162.374876 266.156308 
L 159.095537 263.719385 
L 155.816198 268.593231 
L 152.53686 266.156308 
L 149.257521 266.156308 
L 145.978182 268.593231 
L 142.698843 244.224 
L 139.419504 258.845538 
L 136.140165 263.719385 
L 132.860826 268.593231 
L 129.581488 263.719385 
L 126.302149 268.593231 
L 123.02281 263.719385 
L 119.743471 263.719385 
L 116.464132 263.719385 
L 113.184793 261.282462 
L 109.905455 266.156308 
L 106.626116 266.156308 
L 103.346777 273.467077 
L 100.067438 268.593231 
L 96.788099 280.777846 
L 93.50876 244.224 
L 90.229421 261.282462 
L 86.950083 251.534769 
L 83.670744 285.651692 
L 80.391405 258.845538 
L 77.112066 244.224 
L 73.832727 195.485538 
z
" style="fill:#2ca02c;"/>
   </g>
   <g id="PolyCollection_4">
    <path clip-path="url(#paff239625c)" d="M 73.832727 149.184 
L 73.832727 195.485538 
L 77.112066 244.224 
L 80.391405 258.845538 
L 83.670744 285.651692 
L 86.950083 251.534769 
L 90.229421 261.282462 
L 93.50876 244.224 
L 96.788099 280.777846 
L 100.067438 268.593231 
L 103.346777 273.467077 
L 106.626116 266.156308 
L 109.905455 266.156308 
L 113.184793 261.282462 
L 116.464132 263.719385 
L 119.743471 263.719385 
L 123.02281 263.719385 
L 126.302149 268.593231 
L 129.581488 263.719385 
L 132.860826 268.593231 
L 136.140165 263.719385 
L 139.419504 258.845538 
L 142.698843 244.224 
L 145.978182 268.593231 
L 149.257521 266.156308 
L 152.53686 266.156308 
L 155.816198 268.593231 
L 159.095537 263.719385 
L 162.374876 266.156308 
L 165.654215 268.593231 
L 168.933554 258.845538 
L 172.212893 261.282462 
L 175.492231 258.845538 
L 178.77157 256.408615 
L 182.050909 258.845538 
L 185.330248 261.282462 
L 188.609587 256.408615 
L 191.888926 258.845538 
L 195.168264 256.408615 
L 198.447603 229.602462 
L 201.726942 227.165538 
L 205.006281 224.728615 
L 208.28562 307.584 
L 211.564959 307.584 
L 214.844298 307.584 
L 218.123636 307.584 
L 221.402975 307.584 
L 224.682314 307.584 
L 227.961653 307.584 
L 231.240992 307.584 
L 234.520331 307.584 
L 237.799669 307.584 
L 241.079008 307.584 
L 244.358347 307.584 
L 247.637686 307.584 
L 250.917025 307.584 
L 254.196364 307.584 
L 257.475702 307.584 
L 260.755041 307.584 
L 264.03438 307.584 
L 267.313719 307.584 
L 270.593058 307.584 
L 273.872397 307.584 
L 277.151736 307.584 
L 280.431074 307.584 
L 283.710413 307.584 
L 286.989752 307.584 
L 290.269091 307.584 
L 293.54843 307.584 
L 296.827769 307.584 
L 300.107107 307.584 
L 303.386446 307.584 
L 306.665785 307.584 
L 309.945124 307.584 
L 313.224463 307.584 
L 316.503802 307.584 
L 319.78314 307.584 
L 323.062479 307.584 
L 326.341818 307.584 
L 329.621157 307.584 
L 332.900496 307.584 
L 336.179835 307.584 
L 339.459174 307.584 
L 342.738512 307.584 
L 346.017851 307.584 
L 349.29719 307.584 
L 352.576529 307.584 
L 355.855868 307.584 
L 359.135207 307.584 
L 362.414545 307.584 
L 365.693884 307.584 
L 368.973223 307.584 
L 372.252562 307.584 
L 375.531901 307.584 
L 378.81124 307.584 
L 382.090579 307.584 
L 385.369917 307.584 
L 388.649256 307.584 
L 391.928595 307.584 
L 395.207934 307.584 
L 398.487273 307.584 
L 398.487273 307.584 
L 398.487273 307.584 
L 395.207934 307.584 
L 391.928595 307.584 
L 388.649256 307.584 
L 385.369917 307.584 
L 382.090579 307.584 
L 378.81124 307.584 
L 375.531901 307.584 
L 372.252562 307.584 
L 368.973223 307.584 
L 365.693884 307.584 
L 362.414545 307.584 
L 359.135207 307.584 
L 355.855868 307.584 
L 352.576529 307.584 
L 349.29719 307.584 
L 346.017851 307.584 
L 342.738512 307.584 
L 339.459174 307.584 
L 336.179835 307.584 
L 332.900496 307.584 
L 329.621157 307.584 
L 326.341818 307.584 
L 323.062479 307.584 
L 319.78314 307.584 
L 316.503802 307.584 
L 313.224463 307.584 
L 309.945124 307.584 
L 306.665785 307.584 
L 303.386446 307.584 
L 300.107107 307.584 
L 296.827769 307.584 
L 293.54843 307.584 
L 290.269091 307.584 
L 286.989752 307.584 
L 283.710413 307.584 
L 280.431074 307.584 
L 277.151736 307.584 
L 273.872397 307.584 
L 270.593058 307.584 
L 267.313719 307.584 
L 264.03438 307.584 
L 260.755041 307.584 
L 257.475702 307.584 
L 254.196364 307.584 
L 250.917025 307.584 
L 247.637686 307.584 
L 244.358347 307.584 
L 241.079008 307.584 
L 237.799669 307.584 
L 234.520331 307.584 
L 231.240992 307.584 
L 227.961653 307.584 
L 224.682314 307.584 
L 221.402975 307.584 
L 218.123636 307.584 
L 214.844298 307.584 
L 211.564959 307.584 
L 208.28562 307.584 
L 205.006281 224.728615 
L 201.726942 227.165538 
L 198.447603 229.602462 
L 195.168264 256.408615 
L 191.888926 258.845538 
L 188.609587 256.408615 
L 185.330248 261.282462 
L 182.050909 258.845538 
L 178.77157 256.408615 
L 175.492231 258.845538 
L 172.212893 261.282462 
L 168.933554 258.845538 
L 165.654215 268.593231 
L 162.374876 266.156308 
L 159.095537 263.719385 
L 155.816198 268.593231 
L 152.53686 266.156308 
L 149.257521 266.156308 
L 145.978182 268.593231 
L 142.698843 229.602462 
L 139.419504 246.660923 
L 136.140165 249.097846 
L 132.860826 256.408615 
L 129.581488 249.097846 
L 126.302149 251.534769 
L 123.02281 244.224 
L 119.743471 246.660923 
L 116.464132 249.097846 
L 113.184793 244.224 
L 109.905455 251.534769 
L 106.626116 249.097846 
L 103.346777 261.282462 
L 100.067438 253.971692 
L 96.788099 268.593231 
L 93.50876 222.291692 
L 90.229421 222.291692 
L 86.950083 210.107077 
L 83.670744 271.030154 
L 80.391405 207.670154 
L 77.112066 161.368615 
L 73.832727 149.184 
z
" style="fill:#d62728;"/>
   </g>
   <g id="PolyCollection_5">
    <path clip-path="url(#paff239625c)" d="M 73.832727 110.193231 
L 73.832727 149.184 
L 77.112066 161.368615 
L 80.391405 207.670154 
L 83.670744 271.030154 
L 86.950083 210.107077 
L 90.229421 222.291692 
L 93.50876 222.291692 
L 96.788099 268.593231 
L 100.067438 253.971692 
L 103.346777 261.282462 
L 106.626116 249.097846 
L 109.905455 251.534769 
L 113.184793 244.224 
L 116.464132 249.097846 
L 119.743471 246.660923 
L 123.02281 244.224 
L 126.302149 251.534769 
L 129.581488 249.097846 
L 132.860826 256.408615 
L 136.140165 249.097846 
L 139.419504 246.660923 
L 142.698843 229.602462 
L 145.978182 268.593231 
L 149.257521 266.156308 
L 152.53686 266.156308 
L 155.816198 268.593231 
L 159.095537 263.719385 
L 162.374876 266.156308 
L 165.654215 268.593231 
L 168.933554 258.845538 
L 172.212893 261.282462 
L 175.492231 258.845538 
L 178.77157 256.408615 
L 182.050909 258.845538 
L 185.330248 261.282462 
L 188.609587 256.408615 
L 191.888926 258.845538 
L 195.168264 256.408615 
L 198.447603 229.602462 
L 201.726942 227.165538 
L 205.006281 224.728615 
L 208.28562 307.584 
L 211.564959 307.584 
L 214.844298 307.584 
L 218.123636 307.584 
L 221.402975 307.584 
L 224.682314 307.584 
L 227.961653 307.584 
L 231.240992 307.584 
L 234.520331 307.584 
L 237.799669 307.584 
L 241.079008 307.584 
L 244.358347 307.584 
L 247.637686 307.584 
L 250.917025 307.584 
L 254.196364 307.584 
L 257.475702 307.584 
L 260.755041 307.584 
L 264.03438 307.584 
L 267.313719 307.584 
L 270.593058 307.584 
L 273.872397 307.584 
L 277.151736 307.584 
L 280.431074 307.584 
L 283.710413 307.584 
L 286.989752 307.584 
L 290.269091 307.584 
L 293.54843 307.584 
L 296.827769 307.584 
L 300.107107 307.584 
L 303.386446 307.584 
L 306.665785 307.584 
L 309.945124 307.584 
L 313.224463 307.584 
L 316.503802 307.584 
L 319.78314 307.584 
L 323.062479 307.584 
L 326.341818 307.584 
L 329.621157 307.584 
L 332.900496 307.584 
L 336.179835 307.584 
L 339.459174 307.584 
L 342.738512 307.584 
L 346.017851 307.584 
L 349.29719 307.584 
L 352.576529 307.584 
L 355.855868 307.584 
L 359.135207 307.584 
L 362.414545 307.584 
L 365.693884 307.584 
L 368.973223 307.584 
L 372.252562 307.584 
L 375.531901 307.584 
L 378.81124 307.584 
L 382.090579 307.584 
L 385.369917 307.584 
L 388.649256 307.584 
L 391.928595 307.584 
L 395.207934 307.584 
L 398.487273 307.584 
L 398.487273 307.584 
L 398.487273 307.584 
L 395.207934 307.584 
L 391.928595 307.584 
L 388.649256 307.584 
L 385.369917 307.584 
L 382.090579 307.584 
L 378.81124 307.584 
L 375.531901 307.584 
L 372.252562 307.584 
L 368.973223 307.584 
L 365.693884 307.584 
L 362.414545 307.584 
L 359.135207 307.584 
L 355.855868 307.584 
L 352.576529 307.584 
L 349.29719 307.584 
L 346.017851 307.584 
L 342.738512 307.584 
L 339.459174 307.584 
L 336.179835 307.584 
L 332.900496 307.584 
L 329.621157 307.584 
L 326.341818 307.584 
L 323.062479 307.584 
L 319.78314 307.584 
L 316.503802 307.584 
L 313.224463 307.584 
L 309.945124 307.584 
L 306.665785 307.584 
L 303.386446 307.584 
L 300.107107 307.584 
L 296.827769 307.584 
L 293.54843 307.584 
L 290.269091 307.584 
L 286.989752 307.584 
L 283.710413 307.584 
L 280.431074 307.584 
L 277.151736 307.584 
L 273.872397 307.584 
L 270.593058 307.584 
L 267.313719 307.584 
L 264.03438 307.584 
L 260.755041 307.584 
L 257.475702 307.584 
L 254.196364 307.584 
L 250.917025 307.584 
L 247.637686 307.584 
L 244.358347 307.584 
L 241.079008 307.584 
L 237.799669 307.584 
L 234.520331 307.584 
L 231.240992 307.584 
L 227.961653 307.584 
L 224.682314 307.584 
L 221.402975 307.584 
L 218.123636 307.584 
L 214.844298 307.584 
L 211.564959 307.584 
L 208.28562 307.584 
L 205.006281 224.728615 
L 201.726942 227.165538 
L 198.447603 229.602462 
L 195.168264 256.408615 
L 191.888926 258.845538 
L 188.609587 256.408615 
L 185.330248 261.282462 
L 182.050909 258.845538 
L 178.77157 256.408615 
L 175.492231 258.845538 
L 172.212893 261.282462 
L 168.933554 258.845538 
L 165.654215 268.593231 
L 162.374876 266.156308 
L 159.095537 263.719385 
L 155.816198 268.593231 
L 152.53686 266.156308 
L 149.257521 266.156308 
L 145.978182 268.593231 
L 142.698843 229.602462 
L 139.419504 246.660923 
L 136.140165 249.097846 
L 132.860826 232.039385 
L 129.581488 227.165538 
L 126.302149 227.165538 
L 123.02281 222.291692 
L 119.743471 222.291692 
L 116.464132 222.291692 
L 113.184793 219.854769 
L 109.905455 229.602462 
L 106.626116 224.728615 
L 103.346777 232.039385 
L 100.067438 222.291692 
L 96.788099 239.350154 
L 93.50876 202.796308 
L 90.229421 202.796308 
L 86.950083 168.679385 
L 83.670744 119.940923 
L 80.391405 166.242462 
L 77.112066 158.931692 
L 73.832727 110.193231 
z
" style="fill:#9467bd;"/>
   </g>
   <g id="PolyCollection_6">
    <path clip-path="url(#paff239625c)" d="M 73.832727 102.882462 
L 73.832727 110.193231 
L 77.112066 158.931692 
L 80.391405 166.242462 
L 83.670744 119.940923 
L 86.950083 168.679385 
L 90.229421 202.796308 
L 93.50876 202.796308 
L 96.788099 239.350154 
L 100.067438 222.291692 
L 103.346777 232.039385 
L 106.626116 224.728615 
L 109.905455 229.602462 
L 113.184793 219.854769 
L 116.464132 222.291692 
L 119.743471 222.291692 
L 123.02281 222.291692 
L 126.302149 227.165538 
L 129.581488 227.165538 
L 132.860826 232.039385 
L 136.140165 249.097846 
L 139.419504 246.660923 
L 142.698843 229.602462 
L 145.978182 268.593231 
L 149.257521 266.156308 
L 152.53686 266.156308 
L 155.816198 268.593231 
L 159.095537 263.719385 
L 162.374876 266.156308 
L 165.654215 268.593231 
L 168.933554 258.845538 
L 172.212893 261.282462 
L 175.492231 258.845538 
L 178.77157 256.408615 
L 182.050909 258.845538 
L 185.330248 261.282462 
L 188.609587 256.408615 
L 191.888926 258.845538 
L 195.168264 256.408615 
L 198.447603 229.602462 
L 201.726942 227.165538 
L 205.006281 224.728615 
L 208.28562 307.584 
L 211.564959 307.584 
L 214.844298 307.584 
L 218.123636 307.584 
L 221.402975 307.584 
L 224.682314 307.584 
L 227.961653 307.584 
L 231.240992 307.584 
L 234.520331 307.584 
L 237.799669 307.584 
L 241.079008 307.584 
L 244.358347 307.584 
L 247.637686 307.584 
L 250.917025 307.584 
L 254.196364 307.584 
L 257.475702 307.584 
L 260.755041 307.584 
L 264.03438 307.584 
L 267.313719 307.584 
L 270.593058 307.584 
L 273.872397 307.584 
L 277.151736 307.584 
L 280.431074 307.584 
L 283.710413 307.584 
L 286.989752 307.584 
L 290.269091 307.584 
L 293.54843 307.584 
L 296.827769 307.584 
L 300.107107 307.584 
L 303.386446 307.584 
L 306.665785 307.584 
L 309.945124 307.584 
L 313.224463 307.584 
L 316.503802 307.584 
L 319.78314 307.584 
L 323.062479 307.584 
L 326.341818 307.584 
L 329.621157 307.584 
L 332.900496 307.584 
L 336.179835 307.584 
L 339.459174 307.584 
L 342.738512 307.584 
L 346.017851 307.584 
L 349.29719 307.584 
L 352.576529 307.584 
L 355.855868 307.584 
L 359.135207 307.584 
L 362.414545 307.584 
L 365.693884 307.584 
L 368.973223 307.584 
L 372.252562 307.584 
L 375.531901 307.584 
L 378.81124 307.584 
L 382.090579 307.584 
L 385.369917 307.584 
L 388.649256 307.584 
L 391.928595 307.584 
L 395.207934 307.584 
L 398.487273 307.584 
L 398.487273 307.584 
L 398.487273 307.584 
L 395.207934 307.584 
L 391.928595 307.584 
L 388.649256 307.584 
L 385.369917 307.584 
L 382.090579 307.584 
L 378.81124 307.584 
L 375.531901 307.584 
L 372.252562 307.584 
L 368.973223 307.584 
L 365.693884 307.584 
L 362.414545 307.584 
L 359.135207 307.584 
L 355.855868 307.584 
L 352.576529 307.584 
L 349.29719 307.584 
L 346.017851 307.584 
L 342.738512 307.584 
L 339.459174 307.584 
L 336.179835 307.584 
L 332.900496 307.584 
L 329.621157 307.584 
L 326.341818 307.584 
L 323.062479 307.584 
L 319.78314 307.584 
L 316.503802 307.584 
L 313.224463 307.584 
L 309.945124 307.584 
L 306.665785 307.584 
L 303.386446 307.584 
L 300.107107 307.584 
L 296.827769 307.584 
L 293.54843 307.584 
L 290.269091 307.584 
L 286.989752 307.584 
L 283.710413 307.584 
L 280.431074 307.584 
L 277.151736 307.584 
L 273.872397 307.584 
L 270.593058 307.584 
L 267.313719 307.584 
L 264.03438 307.584 
L 260.755041 307.584 
L 257.475702 307.584 
L 254.196364 307.584 
L 250.917025 307.584 
L 247.637686 307.584 
L 244.358347 307.584 
L 241.079008 307.584 
L 237.799669 307.584 
L 234.520331 307.584 
L 231.240992 307.584 
L 227.961653 307.584 
L 224.682314 307.584 
L 221.402975 307.584 
L 218.123636 307.584 
L 214.844298 307.584 
L 211.564959 307.584 
L 208.28562 307.584 
L 205.006281 224.728615 
L 201.726942 227.165538 
L 198.447603 229.602462 
L 195.168264 207.670154 
L 191.888926 207.670154 
L 188.609587 202.796308 
L 185.330248 212.544 
L 182.050909 207.670154 
L 178.77157 202.796308 
L 175.492231 202.796308 
L 172.212893 207.670154 
L 168.933554 202.796308 
L 165.654215 219.854769 
L 162.374876 219.854769 
L 159.095537 219.854769 
L 155.816198 229.602462 
L 152.53686 224.728615 
L 149.257521 224.728615 
L 145.978182 229.602462 
L 142.698843 200.359385 
L 139.419504 217.417846 
L 136.140165 222.291692 
L 132.860826 207.670154 
L 129.581488 205.233231 
L 126.302149 207.670154 
L 123.02281 200.359385 
L 119.743471 202.796308 
L 116.464132 200.359385 
L 113.184793 193.048615 
L 109.905455 205.233231 
L 106.626116 202.796308 
L 103.346777 205.233231 
L 100.067438 193.048615 
L 96.788099 205.233231 
L 93.50876 171.116308 
L 90.229421 168.679385 
L 86.950083 151.620923 
L 83.670744 112.630154 
L 80.391405 158.931692 
L 77.112066 156.494769 
L 73.832727 102.882462 
z
" style="fill:#8c564b;"/>
   </g>
   <g id="PolyCollection_7">
    <path clip-path="url(#paff239625c)" d="M 73.832727 66.328615 
L 73.832727 102.882462 
L 77.112066 156.494769 
L 80.391405 158.931692 
L 83.670744 112.630154 
L 86.950083 151.620923 
L 90.229421 168.679385 
L 93.50876 171.116308 
L 96.788099 205.233231 
L 100.067438 193.048615 
L 103.346777 205.233231 
L 106.626116 202.796308 
L 109.905455 205.233231 
L 113.184793 193.048615 
L 116.464132 200.359385 
L 119.743471 202.796308 
L 123.02281 200.359385 
L 126.302149 207.670154 
L 129.581488 205.233231 
L 132.860826 207.670154 
L 136.140165 222.291692 
L 139.419504 217.417846 
L 142.698843 200.359385 
L 145.978182 229.602462 
L 149.257521 224.728615 
L 152.53686 224.728615 
L 155.816198 229.602462 
L 159.095537 219.854769 
L 162.374876 219.854769 
L 165.654215 219.854769 
L 168.933554 202.796308 
L 172.212893 207.670154 
L 175.492231 202.796308 
L 178.77157 202.796308 
L 182.050909 207.670154 
L 185.330248 212.544 
L 188.609587 202.796308 
L 191.888926 207.670154 
L 195.168264 207.670154 
L 198.447603 229.602462 
L 201.726942 227.165538 
L 205.006281 224.728615 
L 208.28562 307.584 
L 211.564959 307.584 
L 214.844298 307.584 
L 218.123636 307.584 
L 221.402975 307.584 
L 224.682314 307.584 
L 227.961653 307.584 
L 231.240992 307.584 
L 234.520331 307.584 
L 237.799669 307.584 
L 241.079008 307.584 
L 244.358347 307.584 
L 247.637686 307.584 
L 250.917025 307.584 
L 254.196364 307.584 
L 257.475702 307.584 
L 260.755041 307.584 
L 264.03438 307.584 
L 267.313719 307.584 
L 270.593058 307.584 
L 273.872397 307.584 
L 277.151736 307.584 
L 280.431074 307.584 
L 283.710413 307.584 
L 286.989752 307.584 
L 290.269091 307.584 
L 293.54843 307.584 
L 296.827769 307.584 
L 300.107107 307.584 
L 303.386446 307.584 
L 306.665785 307.584 
L 309.945124 307.584 
L 313.224463 307.584 
L 316.503802 307.584 
L 319.78314 307.584 
L 323.062479 307.584 
L 326.341818 307.584 
L 329.621157 307.584 
L 332.900496 307.584 
L 336.179835 307.584 
L 339.459174 307.584 
L 342.738512 307.584 
L 346.017851 307.584 
L 349.29719 307.584 
L 352.576529 307.584 
L 355.855868 307.584 
L 359.135207 307.584 
L 362.414545 307.584 
L 365.693884 307.584 
L 368.973223 307.584 
L 372.252562 307.584 
L 375.531901 307.584 
L 378.81124 307.584 
L 382.090579 307.584 
L 385.369917 307.584 
L 388.649256 307.584 
L 391.928595 307.584 
L 395.207934 307.584 
L 398.487273 307.584 
L 398.487273 188.174769 
L 398.487273 188.174769 
L 395.207934 180.864 
L 391.928595 183.300923 
L 388.649256 185.737846 
L 385.369917 183.300923 
L 382.090579 185.737846 
L 378.81124 183.300923 
L 375.531901 185.737846 
L 372.252562 180.864 
L 368.973223 183.300923 
L 365.693884 193.048615 
L 362.414545 188.174769 
L 359.135207 185.737846 
L 355.855868 188.174769 
L 352.576529 185.737846 
L 349.29719 183.300923 
L 346.017851 185.737846 
L 342.738512 190.611692 
L 339.459174 193.048615 
L 336.179835 185.737846 
L 332.900496 188.174769 
L 329.621157 190.611692 
L 326.341818 193.048615 
L 323.062479 190.611692 
L 319.78314 193.048615 
L 316.503802 188.174769 
L 313.224463 183.300923 
L 309.945124 185.737846 
L 306.665785 188.174769 
L 303.386446 190.611692 
L 300.107107 188.174769 
L 296.827769 190.611692 
L 293.54843 185.737846 
L 290.269091 183.300923 
L 286.989752 180.864 
L 283.710413 178.427077 
L 280.431074 185.737846 
L 277.151736 188.174769 
L 273.872397 190.611692 
L 270.593058 195.485538 
L 267.313719 197.922462 
L 264.03438 195.485538 
L 260.755041 193.048615 
L 257.475702 188.174769 
L 254.196364 190.611692 
L 250.917025 185.737846 
L 247.637686 188.174769 
L 244.358347 190.611692 
L 241.079008 188.174769 
L 237.799669 190.611692 
L 234.520331 193.048615 
L 231.240992 190.611692 
L 227.961653 188.174769 
L 224.682314 190.611692 
L 221.402975 183.300923 
L 218.123636 188.174769 
L 214.844298 185.737846 
L 211.564959 183.300923 
L 208.28562 185.737846 
L 205.006281 144.310154 
L 201.726942 144.310154 
L 198.447603 144.310154 
L 195.168264 161.368615 
L 191.888926 158.931692 
L 188.609587 146.747077 
L 185.330248 158.931692 
L 182.050909 156.494769 
L 178.77157 156.494769 
L 175.492231 151.620923 
L 172.212893 151.620923 
L 168.933554 149.184 
L 165.654215 175.990154 
L 162.374876 180.864 
L 159.095537 178.427077 
L 155.816198 188.174769 
L 152.53686 185.737846 
L 149.257521 185.737846 
L 145.978182 193.048615 
L 142.698843 163.805538 
L 139.419504 185.737846 
L 136.140165 193.048615 
L 132.860826 180.864 
L 129.581488 180.864 
L 126.302149 185.737846 
L 123.02281 175.990154 
L 119.743471 175.990154 
L 116.464132 175.990154 
L 113.184793 166.242462 
L 109.905455 180.864 
L 106.626116 175.990154 
L 103.346777 175.990154 
L 100.067438 166.242462 
L 96.788099 180.864 
L 93.50876 154.057846 
L 90.229421 134.562462 
L 86.950083 112.630154 
L 83.670744 107.756308 
L 80.391405 107.756308 
L 77.112066 93.134769 
L 73.832727 66.328615 
z
" style="fill:#e377c2;"/>
   </g>
   <g id="PolyCollection_8">
    <path clip-path="url(#paff239625c)" d="M 73.832727 63.891692 
L 73.832727 66.328615 
L 77.112066 93.134769 
L 80.391405 107.756308 
L 83.670744 107.756308 
L 86.950083 112.630154 
L 90.229421 134.562462 
L 93.50876 154.057846 
L 96.788099 180.864 
L 100.067438 166.242462 
L 103.346777 175.990154 
L 106.626116 175.990154 
L 109.905455 180.864 
L 113.184793 166.242462 
L 116.464132 175.990154 
L 119.743471 175.990154 
L 123.02281 175.990154 
L 126.302149 185.737846 
L 129.581488 180.864 
L 132.860826 180.864 
L 136.140165 193.048615 
L 139.419504 185.737846 
L 142.698843 163.805538 
L 145.978182 193.048615 
L 149.257521 185.737846 
L 152.53686 185.737846 
L 155.816198 188.174769 
L 159.095537 178.427077 
L 162.374876 180.864 
L 165.654215 175.990154 
L 168.933554 149.184 
L 172.212893 151.620923 
L 175.492231 151.620923 
L 178.77157 156.494769 
L 182.050909 156.494769 
L 185.330248 158.931692 
L 188.609587 146.747077 
L 191.888926 158.931692 
L 195.168264 161.368615 
L 198.447603 144.310154 
L 201.726942 144.310154 
L 205.006281 144.310154 
L 208.28562 185.737846 
L 211.564959 183.300923 
L 214.844298 185.737846 
L 218.123636 188.174769 
L 221.402975 183.300923 
L 224.682314 190.611692 
L 227.961653 188.174769 
L 231.240992 190.611692 
L 234.520331 193.048615 
L 237.799669 190.611692 
L 241.079008 188.174769 
L 244.358347 190.611692 
L 247.637686 188.174769 
L 250.917025 185.737846 
L 254.196364 190.611692 
L 257.475702 188.174769 
L 260.755041 193.048615 
L 264.03438 195.485538 
L 267.313719 197.922462 
L 270.593058 195.485538 
L 273.872397 190.611692 
L 277.151736 188.174769 
L 280.431074 185.737846 
L 283.710413 178.427077 
L 286.989752 180.864 
L 290.269091 183.300923 
L 293.54843 185.737846 
L 296.827769 190.611692 
L 300.107107 188.174769 
L 303.386446 190.611692 
L 306.665785 188.174769 
L 309.945124 185.737846 
L 313.224463 183.300923 
L 316.503802 188.174769 
L 319.78314 193.048615 
L 323.062479 190.611692 
L 326.341818 193.048615 
L 329.621157 190.611692 
L 332.900496 188.174769 
L 336.179835 185.737846 
L 339.459174 193.048615 
L 342.738512 190.611692 
L 346.017851 185.737846 
L 349.29719 183.300923 
L 352.576529 185.737846 
L 355.855868 188.174769 
L 359.135207 185.737846 
L 362.414545 188.174769 
L 365.693884 193.048615 
L 368.973223 183.300923 
L 372.252562 180.864 
L 375.531901 185.737846 
L 378.81124 183.300923 
L 382.090579 185.737846 
L 385.369917 183.300923 
L 388.649256 185.737846 
L 391.928595 183.300923 
L 395.207934 180.864 
L 398.487273 188.174769 
L 398.487273 188.174769 
L 398.487273 188.174769 
L 395.207934 180.864 
L 391.928595 183.300923 
L 388.649256 185.737846 
L 385.369917 183.300923 
L 382.090579 185.737846 
L 378.81124 183.300923 
L 375.531901 185.737846 
L 372.252562 180.864 
L 368.973223 183.300923 
L 365.693884 193.048615 
L 362.414545 188.174769 
L 359.135207 185.737846 
L 355.855868 188.174769 
L 352.576529 185.737846 
L 349.29719 183.300923 
L 346.017851 185.737846 
L 342.738512 190.611692 
L 339.459174 193.048615 
L 336.179835 185.737846 
L 332.900496 188.174769 
L 329.621157 190.611692 
L 326.341818 193.048615 
L 323.062479 190.611692 
L 319.78314 193.048615 
L 316.503802 188.174769 
L 313.224463 183.300923 
L 309.945124 185.737846 
L 306.665785 188.174769 
L 303.386446 190.611692 
L 300.107107 188.174769 
L 296.827769 190.611692 
L 293.54843 185.737846 
L 290.269091 183.300923 
L 286.989752 180.864 
L 283.710413 178.427077 
L 280.431074 185.737846 
L 277.151736 188.174769 
L 273.872397 190.611692 
L 270.593058 195.485538 
L 267.313719 197.922462 
L 264.03438 195.485538 
L 260.755041 193.048615 
L 257.475702 188.174769 
L 254.196364 190.611692 
L 250.917025 185.737846 
L 247.637686 188.174769 
L 244.358347 190.611692 
L 241.079008 188.174769 
L 237.799669 190.611692 
L 234.520331 193.048615 
L 231.240992 190.611692 
L 227.961653 188.174769 
L 224.682314 190.611692 
L 221.402975 183.300923 
L 218.123636 188.174769 
L 214.844298 185.737846 
L 211.564959 183.300923 
L 208.28562 185.737846 
L 205.006281 144.310154 
L 201.726942 144.310154 
L 198.447603 144.310154 
L 195.168264 161.368615 
L 191.888926 158.931692 
L 188.609587 146.747077 
L 185.330248 158.931692 
L 182.050909 156.494769 
L 178.77157 156.494769 
L 175.492231 151.620923 
L 172.212893 151.620923 
L 168.933554 149.184 
L 165.654215 175.990154 
L 162.374876 180.864 
L 159.095537 178.427077 
L 155.816198 188.174769 
L 152.53686 185.737846 
L 149.257521 185.737846 
L 145.978182 193.048615 
L 142.698843 163.805538 
L 139.419504 163.805538 
L 136.140165 168.679385 
L 132.860826 154.057846 
L 129.581488 156.494769 
L 126.302149 158.931692 
L 123.02281 146.747077 
L 119.743471 149.184 
L 116.464132 151.620923 
L 113.184793 144.310154 
L 109.905455 154.057846 
L 106.626116 151.620923 
L 103.346777 154.057846 
L 100.067438 146.747077 
L 96.788099 158.931692 
L 93.50876 129.688615 
L 90.229421 98.008615 
L 86.950083 68.765538 
L 83.670744 63.891692 
L 80.391405 66.328615 
L 77.112066 63.891692 
L 73.832727 63.891692 
z
" style="fill:#7f7f7f;"/>
   </g>
   <g id="PolyCollection_9">
    <path clip-path="url(#paff239625c)" d="M 73.832727 63.891692 
L 73.832727 63.891692 
L 77.112066 63.891692 
L 80.391405 66.328615 
L 83.670744 63.891692 
L 86.950083 68.765538 
L 90.229421 98.008615 
L 93.50876 129.688615 
L 96.788099 158.931692 
L 100.067438 146.747077 
L 103.346777 154.057846 
L 106.626116 151.620923 
L 109.905455 154.057846 
L 113.184793 144.310154 
L 116.464132 151.620923 
L 119.743471 149.184 
L 123.02281 146.747077 
L 126.302149 158.931692 
L 129.581488 156.494769 
L 132.860826 154.057846 
L 136.140165 168.679385 
L 139.419504 163.805538 
L 142.698843 163.805538 
L 145.978182 193.048615 
L 149.257521 185.737846 
L 152.53686 185.737846 
L 155.816198 188.174769 
L 159.095537 178.427077 
L 162.374876 180.864 
L 165.654215 175.990154 
L 168.933554 149.184 
L 172.212893 151.620923 
L 175.492231 151.620923 
L 178.77157 156.494769 
L 182.050909 156.494769 
L 185.330248 158.931692 
L 188.609587 146.747077 
L 191.888926 158.931692 
L 195.168264 161.368615 
L 198.447603 144.310154 
L 201.726942 144.310154 
L 205.006281 144.310154 
L 208.28562 185.737846 
L 211.564959 183.300923 
L 214.844298 185.737846 
L 218.123636 188.174769 
L 221.402975 183.300923 
L 224.682314 190.611692 
L 227.961653 188.174769 
L 231.240992 190.611692 
L 234.520331 193.048615 
L 237.799669 190.611692 
L 241.079008 188.174769 
L 244.358347 190.611692 
L 247.637686 188.174769 
L 250.917025 185.737846 
L 254.196364 190.611692 
L 257.475702 188.174769 
L 260.755041 193.048615 
L 264.03438 195.485538 
L 267.313719 197.922462 
L 270.593058 195.485538 
L 273.872397 190.611692 
L 277.151736 188.174769 
L 280.431074 185.737846 
L 283.710413 178.427077 
L 286.989752 180.864 
L 290.269091 183.300923 
L 293.54843 185.737846 
L 296.827769 190.611692 
L 300.107107 188.174769 
L 303.386446 190.611692 
L 306.665785 188.174769 
L 309.945124 185.737846 
L 313.224463 183.300923 
L 316.503802 188.174769 
L 319.78314 193.048615 
L 323.062479 190.611692 
L 326.341818 193.048615 
L 329.621157 190.611692 
L 332.900496 188.174769 
L 336.179835 185.737846 
L 339.459174 193.048615 
L 342.738512 190.611692 
L 346.017851 185.737846 
L 349.29719 183.300923 
L 352.576529 185.737846 
L 355.855868 188.174769 
L 359.135207 185.737846 
L 362.414545 188.174769 
L 365.693884 193.048615 
L 368.973223 183.300923 
L 372.252562 180.864 
L 375.531901 185.737846 
L 378.81124 183.300923 
L 382.090579 185.737846 
L 385.369917 183.300923 
L 388.649256 185.737846 
L 391.928595 183.300923 
L 395.207934 180.864 
L 398.487273 188.174769 
L 398.487273 188.174769 
L 398.487273 188.174769 
L 395.207934 180.864 
L 391.928595 183.300923 
L 388.649256 185.737846 
L 385.369917 183.300923 
L 382.090579 185.737846 
L 378.81124 183.300923 
L 375.531901 185.737846 
L 372.252562 180.864 
L 368.973223 183.300923 
L 365.693884 193.048615 
L 362.414545 188.174769 
L 359.135207 185.737846 
L 355.855868 188.174769 
L 352.576529 185.737846 
L 349.29719 183.300923 
L 346.017851 185.737846 
L 342.738512 190.611692 
L 339.459174 193.048615 
L 336.179835 185.737846 
L 332.900496 188.174769 
L 329.621157 190.611692 
L 326.341818 193.048615 
L 323.062479 190.611692 
L 319.78314 193.048615 
L 316.503802 188.174769 
L 313.224463 183.300923 
L 309.945124 185.737846 
L 306.665785 188.174769 
L 303.386446 190.611692 
L 300.107107 188.174769 
L 296.827769 190.611692 
L 293.54843 185.737846 
L 290.269091 183.300923 
L 286.989752 180.864 
L 283.710413 178.427077 
L 280.431074 185.737846 
L 277.151736 188.174769 
L 273.872397 190.611692 
L 270.593058 195.485538 
L 267.313719 197.922462 
L 264.03438 195.485538 
L 260.755041 193.048615 
L 257.475702 188.174769 
L 254.196364 190.611692 
L 250.917025 185.737846 
L 247.637686 188.174769 
L 244.358347 190.611692 
L 241.079008 188.174769 
L 237.799669 190.611692 
L 234.520331 193.048615 
L 231.240992 190.611692 
L 227.961653 188.174769 
L 224.682314 190.611692 
L 221.402975 183.300923 
L 218.123636 188.174769 
L 214.844298 185.737846 
L 211.564959 183.300923 
L 208.28562 185.737846 
L 205.006281 144.310154 
L 201.726942 144.310154 
L 198.447603 144.310154 
L 195.168264 115.067077 
L 191.888926 115.067077 
L 188.609587 107.756308 
L 185.330248 115.067077 
L 182.050909 115.067077 
L 178.77157 112.630154 
L 175.492231 105.319385 
L 172.212893 102.882462 
L 168.933554 102.882462 
L 165.654215 139.436308 
L 162.374876 141.873231 
L 159.095537 141.873231 
L 155.816198 161.368615 
L 152.53686 161.368615 
L 149.257521 151.620923 
L 145.978182 161.368615 
L 142.698843 132.125538 
L 139.419504 136.999385 
L 136.140165 139.436308 
L 132.860826 129.688615 
L 129.581488 134.562462 
L 126.302149 134.562462 
L 123.02281 119.940923 
L 119.743471 124.814769 
L 116.464132 129.688615 
L 113.184793 117.504 
L 109.905455 129.688615 
L 106.626116 124.814769 
L 103.346777 129.688615 
L 100.067438 119.940923 
L 96.788099 129.688615 
L 93.50876 102.882462 
L 90.229421 71.202462 
L 86.950083 61.454769 
L 83.670744 63.891692 
L 80.391405 66.328615 
L 77.112066 63.891692 
L 73.832727 63.891692 
z
" style="fill:#bcbd22;"/>
   </g>
   <g id="PolyCollection_10">
    <path clip-path="url(#paff239625c)" d="M 73.832727 63.891692 
L 73.832727 63.891692 
L 77.112066 63.891692 
L 80.391405 66.328615 
L 83.670744 63.891692 
L 86.950083 61.454769 
L 90.229421 71.202462 
L 93.50876 102.882462 
L 96.788099 129.688615 
L 100.067438 119.940923 
L 103.346777 129.688615 
L 106.626116 124.814769 
L 109.905455 129.688615 
L 113.184793 117.504 
L 116.464132 129.688615 
L 119.743471 124.814769 
L 123.02281 119.940923 
L 126.302149 134.562462 
L 129.581488 134.562462 
L 132.860826 129.688615 
L 136.140165 139.436308 
L 139.419504 136.999385 
L 142.698843 132.125538 
L 145.978182 161.368615 
L 149.257521 151.620923 
L 152.53686 161.368615 
L 155.816198 161.368615 
L 159.095537 141.873231 
L 162.374876 141.873231 
L 165.654215 139.436308 
L 168.933554 102.882462 
L 172.212893 102.882462 
L 175.492231 105.319385 
L 178.77157 112.630154 
L 182.050909 115.067077 
L 185.330248 115.067077 
L 188.609587 107.756308 
L 191.888926 115.067077 
L 195.168264 115.067077 
L 198.447603 144.310154 
L 201.726942 144.310154 
L 205.006281 144.310154 
L 208.28562 185.737846 
L 211.564959 183.300923 
L 214.844298 185.737846 
L 218.123636 188.174769 
L 221.402975 183.300923 
L 224.682314 190.611692 
L 227.961653 188.174769 
L 231.240992 190.611692 
L 234.520331 193.048615 
L 237.799669 190.611692 
L 241.079008 188.174769 
L 244.358347 190.611692 
L 247.637686 188.174769 
L 250.917025 185.737846 
L 254.196364 190.611692 
L 257.475702 188.174769 
L 260.755041 193.048615 
L 264.03438 195.485538 
L 267.313719 197.922462 
L 270.593058 195.485538 
L 273.872397 190.611692 
L 277.151736 188.174769 
L 280.431074 185.737846 
L 283.710413 178.427077 
L 286.989752 180.864 
L 290.269091 183.300923 
L 293.54843 185.737846 
L 296.827769 190.611692 
L 300.107107 188.174769 
L 303.386446 190.611692 
L 306.665785 188.174769 
L 309.945124 185.737846 
L 313.224463 183.300923 
L 316.503802 188.174769 
L 319.78314 193.048615 
L 323.062479 190.611692 
L 326.341818 193.048615 
L 329.621157 190.611692 
L 332.900496 188.174769 
L 336.179835 185.737846 
L 339.459174 193.048615 
L 342.738512 190.611692 
L 346.017851 185.737846 
L 349.29719 183.300923 
L 352.576529 185.737846 
L 355.855868 188.174769 
L 359.135207 185.737846 
L 362.414545 188.174769 
L 365.693884 193.048615 
L 368.973223 183.300923 
L 372.252562 180.864 
L 375.531901 185.737846 
L 378.81124 183.300923 
L 382.090579 185.737846 
L 385.369917 183.300923 
L 388.649256 185.737846 
L 391.928595 183.300923 
L 395.207934 180.864 
L 398.487273 188.174769 
L 398.487273 188.174769 
L 398.487273 188.174769 
L 395.207934 180.864 
L 391.928595 183.300923 
L 388.649256 185.737846 
L 385.369917 183.300923 
L 382.090579 185.737846 
L 378.81124 183.300923 
L 375.531901 185.737846 
L 372.252562 180.864 
L 368.973223 183.300923 
L 365.693884 193.048615 
L 362.414545 188.174769 
L 359.135207 185.737846 
L 355.855868 188.174769 
L 352.576529 185.737846 
L 349.29719 183.300923 
L 346.017851 185.737846 
L 342.738512 190.611692 
L 339.459174 193.048615 
L 336.179835 185.737846 
L 332.900496 188.174769 
L 329.621157 190.611692 
L 326.341818 193.048615 
L 323.062479 190.611692 
L 319.78314 193.048615 
L 316.503802 188.174769 
L 313.224463 183.300923 
L 309.945124 185.737846 
L 306.665785 188.174769 
L 303.386446 190.611692 
L 300.107107 188.174769 
L 296.827769 190.611692 
L 293.54843 185.737846 
L 290.269091 183.300923 
L 286.989752 180.864 
L 283.710413 178.427077 
L 280.431074 185.737846 
L 277.151736 188.174769 
L 273.872397 190.611692 
L 270.593058 195.485538 
L 267.313719 197.922462 
L 264.03438 195.485538 
L 260.755041 193.048615 
L 257.475702 188.174769 
L 254.196364 190.611692 
L 250.917025 185.737846 
L 247.637686 188.174769 
L 244.358347 190.611692 
L 241.079008 188.174769 
L 237.799669 190.611692 
L 234.520331 193.048615 
L 231.240992 190.611692 
L 227.961653 188.174769 
L 224.682314 190.611692 
L 221.402975 183.300923 
L 218.123636 188.174769 
L 214.844298 185.737846 
L 211.564959 183.300923 
L 208.28562 185.737846 
L 205.006281 144.310154 
L 201.726942 144.310154 
L 198.447603 144.310154 
L 195.168264 115.067077 
L 191.888926 115.067077 
L 188.609587 107.756308 
L 185.330248 115.067077 
L 182.050909 115.067077 
L 178.77157 112.630154 
L 175.492231 105.319385 
L 172.212893 102.882462 
L 168.933554 102.882462 
L 165.654215 139.436308 
L 162.374876 141.873231 
L 159.095537 141.873231 
L 155.816198 132.125538 
L 152.53686 136.999385 
L 149.257521 127.251692 
L 145.978182 132.125538 
L 142.698843 112.630154 
L 139.419504 115.067077 
L 136.140165 115.067077 
L 132.860826 107.756308 
L 129.581488 115.067077 
L 126.302149 112.630154 
L 123.02281 100.445538 
L 119.743471 102.882462 
L 116.464132 110.193231 
L 113.184793 100.445538 
L 109.905455 110.193231 
L 106.626116 102.882462 
L 103.346777 105.319385 
L 100.067438 98.008615 
L 96.788099 110.193231 
L 93.50876 85.824 
L 90.229421 68.765538 
L 86.950083 61.454769 
L 83.670744 63.891692 
L 80.391405 66.328615 
L 77.112066 63.891692 
L 73.832727 63.891692 
z
" style="fill:#17becf;"/>
   </g>
   <g id="PolyCollection_11">
    <path clip-path="url(#paff239625c)" d="M 73.832727 63.891692 
L 73.832727 63.891692 
L 77.112066 63.891692 
L 80.391405 66.328615 
L 83.670744 63.891692 
L 86.950083 61.454769 
L 90.229421 68.765538 
L 93.50876 85.824 
L 96.788099 110.193231 
L 100.067438 98.008615 
L 103.346777 105.319385 
L 106.626116 102.882462 
L 109.905455 110.193231 
L 113.184793 100.445538 
L 116.464132 110.193231 
L 119.743471 102.882462 
L 123.02281 100.445538 
L 126.302149 112.630154 
L 129.581488 115.067077 
L 132.860826 107.756308 
L 136.140165 115.067077 
L 139.419504 115.067077 
L 142.698843 112.630154 
L 145.978182 132.125538 
L 149.257521 127.251692 
L 152.53686 136.999385 
L 155.816198 132.125538 
L 159.095537 141.873231 
L 162.374876 141.873231 
L 165.654215 139.436308 
L 168.933554 102.882462 
L 172.212893 102.882462 
L 175.492231 105.319385 
L 178.77157 112.630154 
L 182.050909 115.067077 
L 185.330248 115.067077 
L 188.609587 107.756308 
L 191.888926 115.067077 
L 195.168264 115.067077 
L 198.447603 144.310154 
L 201.726942 144.310154 
L 205.006281 144.310154 
L 208.28562 185.737846 
L 211.564959 183.300923 
L 214.844298 185.737846 
L 218.123636 188.174769 
L 221.402975 183.300923 
L 224.682314 190.611692 
L 227.961653 188.174769 
L 231.240992 190.611692 
L 234.520331 193.048615 
L 237.799669 190.611692 
L 241.079008 188.174769 
L 244.358347 190.611692 
L 247.637686 188.174769 
L 250.917025 185.737846 
L 254.196364 190.611692 
L 257.475702 188.174769 
L 260.755041 193.048615 
L 264.03438 195.485538 
L 267.313719 197.922462 
L 270.593058 195.485538 
L 273.872397 190.611692 
L 277.151736 188.174769 
L 280.431074 185.737846 
L 283.710413 178.427077 
L 286.989752 180.864 
L 290.269091 183.300923 
L 293.54843 185.737846 
L 296.827769 190.611692 
L 300.107107 188.174769 
L 303.386446 190.611692 
L 306.665785 188.174769 
L 309.945124 185.737846 
L 313.224463 183.300923 
L 316.503802 188.174769 
L 319.78314 193.048615 
L 323.062479 190.611692 
L 326.341818 193.048615 
L 329.621157 190.611692 
L 332.900496 188.174769 
L 336.179835 185.737846 
L 339.459174 193.048615 
L 342.738512 190.611692 
L 346.017851 185.737846 
L 349.29719 183.300923 
L 352.576529 185.737846 
L 355.855868 188.174769 
L 359.135207 185.737846 
L 362.414545 188.174769 
L 365.693884 193.048615 
L 368.973223 183.300923 
L 372.252562 180.864 
L 375.531901 185.737846 
L 378.81124 183.300923 
L 382.090579 185.737846 
L 385.369917 183.300923 
L 388.649256 185.737846 
L 391.928595 183.300923 
L 395.207934 180.864 
L 398.487273 188.174769 
L 398.487273 188.174769 
L 398.487273 188.174769 
L 395.207934 180.864 
L 391.928595 183.300923 
L 388.649256 185.737846 
L 385.369917 183.300923 
L 382.090579 185.737846 
L 378.81124 183.300923 
L 375.531901 185.737846 
L 372.252562 180.864 
L 368.973223 183.300923 
L 365.693884 193.048615 
L 362.414545 188.174769 
L 359.135207 185.737846 
L 355.855868 188.174769 
L 352.576529 185.737846 
L 349.29719 183.300923 
L 346.017851 185.737846 
L 342.738512 190.611692 
L 339.459174 193.048615 
L 336.179835 185.737846 
L 332.900496 188.174769 
L 329.621157 190.611692 
L 326.341818 193.048615 
L 323.062479 190.611692 
L 319.78314 193.048615 
L 316.503802 188.174769 
L 313.224463 183.300923 
L 309.945124 185.737846 
L 306.665785 188.174769 
L 303.386446 190.611692 
L 300.107107 188.174769 
L 296.827769 190.611692 
L 293.54843 185.737846 
L 290.269091 183.300923 
L 286.989752 180.864 
L 283.710413 178.427077 
L 280.431074 185.737846 
L 277.151736 188.174769 
L 273.872397 190.611692 
L 270.593058 195.485538 
L 267.313719 197.922462 
L 264.03438 195.485538 
L 260.755041 193.048615 
L 257.475702 188.174769 
L 254.196364 190.611692 
L 250.917025 185.737846 
L 247.637686 188.174769 
L 244.358347 190.611692 
L 241.079008 188.174769 
L 237.799669 190.611692 
L 234.520331 193.048615 
L 231.240992 190.611692 
L 227.961653 188.174769 
L 224.682314 190.611692 
L 221.402975 183.300923 
L 218.123636 188.174769 
L 214.844298 185.737846 
L 211.564959 183.300923 
L 208.28562 185.737846 
L 205.006281 144.310154 
L 201.726942 144.310154 
L 198.447603 144.310154 
L 195.168264 115.067077 
L 191.888926 115.067077 
L 188.609587 107.756308 
L 185.330248 115.067077 
L 182.050909 115.067077 
L 178.77157 112.630154 
L 175.492231 105.319385 
L 172.212893 102.882462 
L 168.933554 102.882462 
L 165.654215 93.134769 
L 162.374876 98.008615 
L 159.095537 100.445538 
L 155.816198 100.445538 
L 152.53686 102.882462 
L 149.257521 93.134769 
L 145.978182 95.571692 
L 142.698843 80.950154 
L 139.419504 88.260923 
L 136.140165 85.824 
L 132.860826 80.950154 
L 129.581488 85.824 
L 126.302149 85.824 
L 123.02281 76.076308 
L 119.743471 73.639385 
L 116.464132 83.387077 
L 113.184793 76.076308 
L 109.905455 83.387077 
L 106.626116 78.513231 
L 103.346777 83.387077 
L 100.067438 78.513231 
L 96.788099 85.824 
L 93.50876 61.454769 
L 90.229421 66.328615 
L 86.950083 61.454769 
L 83.670744 63.891692 
L 80.391405 66.328615 
L 77.112066 63.891692 
L 73.832727 63.891692 
z
" style="fill:#1f77b4;"/>
   </g>
   <g id="PolyCollection_12">
    <path clip-path="url(#paff239625c)" d="M 73.832727 63.891692 
L 73.832727 63.891692 
L 77.112066 63.891692 
L 80.391405 66.328615 
L 83.670744 63.891692 
L 86.950083 61.454769 
L 90.229421 66.328615 
L 93.50876 61.454769 
L 96.788099 85.824 
L 100.067438 78.513231 
L 103.346777 83.387077 
L 106.626116 78.513231 
L 109.905455 83.387077 
L 113.184793 76.076308 
L 116.464132 83.387077 
L 119.743471 73.639385 
L 123.02281 76.076308 
L 126.302149 85.824 
L 129.581488 85.824 
L 132.860826 80.950154 
L 136.140165 85.824 
L 139.419504 88.260923 
L 142.698843 80.950154 
L 145.978182 95.571692 
L 149.257521 93.134769 
L 152.53686 102.882462 
L 155.816198 100.445538 
L 159.095537 100.445538 
L 162.374876 98.008615 
L 165.654215 93.134769 
L 168.933554 102.882462 
L 172.212893 102.882462 
L 175.492231 105.319385 
L 178.77157 112.630154 
L 182.050909 115.067077 
L 185.330248 115.067077 
L 188.609587 107.756308 
L 191.888926 115.067077 
L 195.168264 115.067077 
L 198.447603 144.310154 
L 201.726942 144.310154 
L 205.006281 144.310154 
L 208.28562 185.737846 
L 211.564959 183.300923 
L 214.844298 185.737846 
L 218.123636 188.174769 
L 221.402975 183.300923 
L 224.682314 190.611692 
L 227.961653 188.174769 
L 231.240992 190.611692 
L 234.520331 193.048615 
L 237.799669 190.611692 
L 241.079008 188.174769 
L 244.358347 190.611692 
L 247.637686 188.174769 
L 250.917025 185.737846 
L 254.196364 190.611692 
L 257.475702 188.174769 
L 260.755041 193.048615 
L 264.03438 195.485538 
L 267.313719 197.922462 
L 270.593058 195.485538 
L 273.872397 190.611692 
L 277.151736 188.174769 
L 280.431074 185.737846 
L 283.710413 178.427077 
L 286.989752 180.864 
L 290.269091 183.300923 
L 293.54843 185.737846 
L 296.827769 190.611692 
L 300.107107 188.174769 
L 303.386446 190.611692 
L 306.665785 188.174769 
L 309.945124 185.737846 
L 313.224463 183.300923 
L 316.503802 188.174769 
L 319.78314 193.048615 
L 323.062479 190.611692 
L 326.341818 193.048615 
L 329.621157 190.611692 
L 332.900496 188.174769 
L 336.179835 185.737846 
L 339.459174 193.048615 
L 342.738512 190.611692 
L 346.017851 185.737846 
L 349.29719 183.300923 
L 352.576529 185.737846 
L 355.855868 188.174769 
L 359.135207 185.737846 
L 362.414545 188.174769 
L 365.693884 193.048615 
L 368.973223 183.300923 
L 372.252562 180.864 
L 375.531901 185.737846 
L 378.81124 183.300923 
L 382.090579 185.737846 
L 385.369917 183.300923 
L 388.649256 185.737846 
L 391.928595 183.300923 
L 395.207934 180.864 
L 398.487273 188.174769 
L 398.487273 63.891692 
L 398.487273 63.891692 
L 395.207934 63.891692 
L 391.928595 63.891692 
L 388.649256 63.891692 
L 385.369917 63.891692 
L 382.090579 63.891692 
L 378.81124 63.891692 
L 375.531901 63.891692 
L 372.252562 63.891692 
L 368.973223 63.891692 
L 365.693884 63.891692 
L 362.414545 63.891692 
L 359.135207 63.891692 
L 355.855868 63.891692 
L 352.576529 63.891692 
L 349.29719 63.891692 
L 346.017851 63.891692 
L 342.738512 63.891692 
L 339.459174 63.891692 
L 336.179835 63.891692 
L 332.900496 63.891692 
L 329.621157 63.891692 
L 326.341818 63.891692 
L 323.062479 63.891692 
L 319.78314 63.891692 
L 316.503802 63.891692 
L 313.224463 63.891692 
L 309.945124 63.891692 
L 306.665785 63.891692 
L 303.386446 63.891692 
L 300.107107 63.891692 
L 296.827769 63.891692 
L 293.54843 63.891692 
L 290.269091 63.891692 
L 286.989752 63.891692 
L 283.710413 63.891692 
L 280.431074 63.891692 
L 277.151736 63.891692 
L 273.872397 63.891692 
L 270.593058 63.891692 
L 267.313719 63.891692 
L 264.03438 63.891692 
L 260.755041 63.891692 
L 257.475702 63.891692 
L 254.196364 63.891692 
L 250.917025 63.891692 
L 247.637686 63.891692 
L 244.358347 63.891692 
L 241.079008 63.891692 
L 237.799669 63.891692 
L 234.520331 63.891692 
L 231.240992 63.891692 
L 227.961653 63.891692 
L 224.682314 63.891692 
L 221.402975 63.891692 
L 218.123636 63.891692 
L 214.844298 63.891692 
L 211.564959 63.891692 
L 208.28562 63.891692 
L 205.006281 66.328615 
L 201.726942 63.891692 
L 198.447603 66.328615 
L 195.168264 66.328615 
L 191.888926 68.765538 
L 188.609587 63.891692 
L 185.330248 68.765538 
L 182.050909 66.328615 
L 178.77157 66.328615 
L 175.492231 61.454769 
L 172.212893 61.454769 
L 168.933554 63.891692 
L 165.654215 63.891692 
L 162.374876 63.891692 
L 159.095537 63.891692 
L 155.816198 68.765538 
L 152.53686 68.765538 
L 149.257521 59.017846 
L 145.978182 63.891692 
L 142.698843 61.454769 
L 139.419504 66.328615 
L 136.140165 66.328615 
L 132.860826 56.580923 
L 129.581488 63.891692 
L 126.302149 66.328615 
L 123.02281 59.017846 
L 119.743471 54.144 
L 116.464132 61.454769 
L 113.184793 56.580923 
L 109.905455 59.017846 
L 106.626116 56.580923 
L 103.346777 63.891692 
L 100.067438 56.580923 
L 96.788099 59.017846 
L 93.50876 61.454769 
L 90.229421 66.328615 
L 86.950083 61.454769 
L 83.670744 63.891692 
L 80.391405 66.328615 
L 77.112066 63.891692 
L 73.832727 63.891692 
z
" style="fill:#ff7f0e;"/>
   </g>
   <g id="matplotlib.axis_1">
    <g id="xtick_1">
     <g id="line2d_1">
      <defs>
       <path d="M 0 0 
L 0 3.5 
" id="mdeff0e7c0d" style="stroke:#000000;stroke-width:0.8;"/>
      </defs>
      <g>
       <use style="stroke:#000000;stroke-width:0.8;" x="73.832727" xlink:href="#mdeff0e7c0d" y="307.584"/>
      </g>
     </g>
     <g id="text_1">
      <!-- 0 -->
      <g transform="translate(70.651477 322.182437)scale(0.1 -0.1)">
       <defs>
        <path d="M 2034 4250 
Q 1547 4250 1301 3770 
Q 1056 3291 1056 2328 
Q 1056 1369 1301 889 
Q 1547 409 2034 409 
Q 2525 409 2770 889 
Q 3016 1369 3016 2328 
Q 3016 3291 2770 3770 
Q 2525 4250 2034 4250 
z
M 2034 4750 
Q 2819 4750 3233 4129 
Q 3647 3509 3647 2328 
Q 3647 1150 3233 529 
Q 2819 -91 2034 -91 
Q 1250 -91 836 529 
Q 422 1150 422 2328 
Q 422 3509 836 4129 
Q 1250 4750 2034 4750 
z
" id="DejaVuSans-30" transform="scale(0.015625)"/>
       </defs>
       <use xlink:href="#DejaVuSans-30"/>
      </g>
     </g>
    </g>
    <g id="xtick_2">
     <g id="line2d_2">
      <g>
       <use style="stroke:#000000;stroke-width:0.8;" x="139.419504" xlink:href="#mdeff0e7c0d" y="307.584"/>
      </g>
     </g>
     <g id="text_2">
      <!-- 20 -->
      <g transform="translate(133.057004 322.182437)scale(0.1 -0.1)">
       <defs>
        <path d="M 1228 531 
L 3431 531 
L 3431 0 
L 469 0 
L 469 531 
Q 828 903 1448 1529 
Q 2069 2156 2228 2338 
Q 2531 2678 2651 2914 
Q 2772 3150 2772 3378 
Q 2772 3750 2511 3984 
Q 2250 4219 1831 4219 
Q 1534 4219 1204 4116 
Q 875 4013 500 3803 
L 500 4441 
Q 881 4594 1212 4672 
Q 1544 4750 1819 4750 
Q 2544 4750 2975 4387 
Q 3406 4025 3406 3419 
Q 3406 3131 3298 2873 
Q 3191 2616 2906 2266 
Q 2828 2175 2409 1742 
Q 1991 1309 1228 531 
z
" id="DejaVuSans-32" transform="scale(0.015625)"/>
       </defs>
       <use xlink:href="#DejaVuSans-32"/>
       <use x="63.623047" xlink:href="#DejaVuSans-30"/>
      </g>
     </g>
    </g>
    <g id="xtick_3">
     <g id="line2d_3">
      <g>
       <use style="stroke:#000000;stroke-width:0.8;" x="205.006281" xlink:href="#mdeff0e7c0d" y="307.584"/>
      </g>
     </g>
     <g id="text_3">
      <!-- 40 -->
      <g transform="translate(198.643781 322.182437)scale(0.1 -0.1)">
       <defs>
        <path d="M 2419 4116 
L 825 1625 
L 2419 1625 
L 2419 4116 
z
M 2253 4666 
L 3047 4666 
L 3047 1625 
L 3713 1625 
L 3713 1100 
L 3047 1100 
L 3047 0 
L 2419 0 
L 2419 1100 
L 313 1100 
L 313 1709 
L 2253 4666 
z
" id="DejaVuSans-34" transform="scale(0.015625)"/>
       </defs>
       <use xlink:href="#DejaVuSans-34"/>
       <use x="63.623047" xlink:href="#DejaVuSans-30"/>
      </g>
     </g>
    </g>
    <g id="xtick_4">
     <g id="line2d_4">
      <g>
       <use style="stroke:#000000;stroke-width:0.8;" x="270.593058" xlink:href="#mdeff0e7c0d" y="307.584"/>
      </g>
     </g>
     <g id="text_4">
      <!-- 60 -->
      <g transform="translate(264.230558 322.182437)scale(0.1 -0.1)">
       <defs>
        <path d="M 2113 2584 
Q 1688 2584 1439 2293 
Q 1191 2003 1191 1497 
Q 1191 994 1439 701 
Q 1688 409 2113 409 
Q 2538 409 2786 701 
Q 3034 994 3034 1497 
Q 3034 2003 2786 2293 
Q 2538 2584 2113 2584 
z
M 3366 4563 
L 3366 3988 
Q 3128 4100 2886 4159 
Q 2644 4219 2406 4219 
Q 1781 4219 1451 3797 
Q 1122 3375 1075 2522 
Q 1259 2794 1537 2939 
Q 1816 3084 2150 3084 
Q 2853 3084 3261 2657 
Q 3669 2231 3669 1497 
Q 3669 778 3244 343 
Q 2819 -91 2113 -91 
Q 1303 -91 875 529 
Q 447 1150 447 2328 
Q 447 3434 972 4092 
Q 1497 4750 2381 4750 
Q 2619 4750 2861 4703 
Q 3103 4656 3366 4563 
z
" id="DejaVuSans-36" transform="scale(0.015625)"/>
       </defs>
       <use xlink:href="#DejaVuSans-36"/>
       <use x="63.623047" xlink:href="#DejaVuSans-30"/>
      </g>
     </g>
    </g>
    <g id="xtick_5">
     <g id="line2d_5">
      <g>
       <use style="stroke:#000000;stroke-width:0.8;" x="336.179835" xlink:href="#mdeff0e7c0d" y="307.584"/>
      </g>
     </g>
     <g id="text_5">
      <!-- 80 -->
      <g transform="translate(329.817335 322.182437)scale(0.1 -0.1)">
       <defs>
        <path d="M 2034 2216 
Q 1584 2216 1326 1975 
Q 1069 1734 1069 1313 
Q 1069 891 1326 650 
Q 1584 409 2034 409 
Q 2484 409 2743 651 
Q 3003 894 3003 1313 
Q 3003 1734 2745 1975 
Q 2488 2216 2034 2216 
z
M 1403 2484 
Q 997 2584 770 2862 
Q 544 3141 544 3541 
Q 544 4100 942 4425 
Q 1341 4750 2034 4750 
Q 2731 4750 3128 4425 
Q 3525 4100 3525 3541 
Q 3525 3141 3298 2862 
Q 3072 2584 2669 2484 
Q 3125 2378 3379 2068 
Q 3634 1759 3634 1313 
Q 3634 634 3220 271 
Q 2806 -91 2034 -91 
Q 1263 -91 848 271 
Q 434 634 434 1313 
Q 434 1759 690 2068 
Q 947 2378 1403 2484 
z
M 1172 3481 
Q 1172 3119 1398 2916 
Q 1625 2713 2034 2713 
Q 2441 2713 2670 2916 
Q 2900 3119 2900 3481 
Q 2900 3844 2670 4047 
Q 2441 4250 2034 4250 
Q 1625 4250 1398 4047 
Q 1172 3844 1172 3481 
z
" id="DejaVuSans-38" transform="scale(0.015625)"/>
       </defs>
       <use xlink:href="#DejaVuSans-38"/>
       <use x="63.623047" xlink:href="#DejaVuSans-30"/>
      </g>
     </g>
    </g>
    <g id="xtick_6">
     <g id="line2d_6">
      <g>
       <use style="stroke:#000000;stroke-width:0.8;" x="401.766612" xlink:href="#mdeff0e7c0d" y="307.584"/>
      </g>
     </g>
     <g id="text_6">
      <!-- 100 -->
      <g transform="translate(392.222862 322.182437)scale(0.1 -0.1)">
       <defs>
        <path d="M 794 531 
L 1825 531 
L 1825 4091 
L 703 3866 
L 703 4441 
L 1819 4666 
L 2450 4666 
L 2450 531 
L 3481 531 
L 3481 0 
L 794 0 
L 794 531 
z
" id="DejaVuSans-31" transform="scale(0.015625)"/>
       </defs>
       <use xlink:href="#DejaVuSans-31"/>
       <use x="63.623047" xlink:href="#DejaVuSans-30"/>
       <use x="127.246094" xlink:href="#DejaVuSans-30"/>
      </g>
     </g>
    </g>
    <g id="text_7">
     <!-- Generations -->
     <g transform="translate(205.662344 335.860562)scale(0.1 -0.1)">
      <defs>
       <path d="M 3809 666 
L 3809 1919 
L 2778 1919 
L 2778 2438 
L 4434 2438 
L 4434 434 
Q 4069 175 3628 42 
Q 3188 -91 2688 -91 
Q 1594 -91 976 548 
Q 359 1188 359 2328 
Q 359 3472 976 4111 
Q 1594 4750 2688 4750 
Q 3144 4750 3555 4637 
Q 3966 4525 4313 4306 
L 4313 3634 
Q 3963 3931 3569 4081 
Q 3175 4231 2741 4231 
Q 1884 4231 1454 3753 
Q 1025 3275 1025 2328 
Q 1025 1384 1454 906 
Q 1884 428 2741 428 
Q 3075 428 3337 486 
Q 3600 544 3809 666 
z
" id="DejaVuSans-47" transform="scale(0.015625)"/>
       <path d="M 3597 1894 
L 3597 1613 
L 953 1613 
Q 991 1019 1311 708 
Q 1631 397 2203 397 
Q 2534 397 2845 478 
Q 3156 559 3463 722 
L 3463 178 
Q 3153 47 2828 -22 
Q 2503 -91 2169 -91 
Q 1331 -91 842 396 
Q 353 884 353 1716 
Q 353 2575 817 3079 
Q 1281 3584 2069 3584 
Q 2775 3584 3186 3129 
Q 3597 2675 3597 1894 
z
M 3022 2063 
Q 3016 2534 2758 2815 
Q 2500 3097 2075 3097 
Q 1594 3097 1305 2825 
Q 1016 2553 972 2059 
L 3022 2063 
z
" id="DejaVuSans-65" transform="scale(0.015625)"/>
       <path d="M 3513 2113 
L 3513 0 
L 2938 0 
L 2938 2094 
Q 2938 2591 2744 2837 
Q 2550 3084 2163 3084 
Q 1697 3084 1428 2787 
Q 1159 2491 1159 1978 
L 1159 0 
L 581 0 
L 581 3500 
L 1159 3500 
L 1159 2956 
Q 1366 3272 1645 3428 
Q 1925 3584 2291 3584 
Q 2894 3584 3203 3211 
Q 3513 2838 3513 2113 
z
" id="DejaVuSans-6e" transform="scale(0.015625)"/>
       <path d="M 2631 2963 
Q 2534 3019 2420 3045 
Q 2306 3072 2169 3072 
Q 1681 3072 1420 2755 
Q 1159 2438 1159 1844 
L 1159 0 
L 581 0 
L 581 3500 
L 1159 3500 
L 1159 2956 
Q 1341 3275 1631 3429 
Q 1922 3584 2338 3584 
Q 2397 3584 2469 3576 
Q 2541 3569 2628 3553 
L 2631 2963 
z
" id="DejaVuSans-72" transform="scale(0.015625)"/>
       <path d="M 2194 1759 
Q 1497 1759 1228 1600 
Q 959 1441 959 1056 
Q 959 750 1161 570 
Q 1363 391 1709 391 
Q 2188 391 2477 730 
Q 2766 1069 2766 1631 
L 2766 1759 
L 2194 1759 
z
M 3341 1997 
L 3341 0 
L 2766 0 
L 2766 531 
Q 2569 213 2275 61 
Q 1981 -91 1556 -91 
Q 1019 -91 701 211 
Q 384 513 384 1019 
Q 384 1609 779 1909 
Q 1175 2209 1959 2209 
L 2766 2209 
L 2766 2266 
Q 2766 2663 2505 2880 
Q 2244 3097 1772 3097 
Q 1472 3097 1187 3025 
Q 903 2953 641 2809 
L 641 3341 
Q 956 3463 1253 3523 
Q 1550 3584 1831 3584 
Q 2591 3584 2966 3190 
Q 3341 2797 3341 1997 
z
" id="DejaVuSans-61" transform="scale(0.015625)"/>
       <path d="M 1172 4494 
L 1172 3500 
L 2356 3500 
L 2356 3053 
L 1172 3053 
L 1172 1153 
Q 1172 725 1289 603 
Q 1406 481 1766 481 
L 2356 481 
L 2356 0 
L 1766 0 
Q 1100 0 847 248 
Q 594 497 594 1153 
L 594 3053 
L 172 3053 
L 172 3500 
L 594 3500 
L 594 4494 
L 1172 4494 
z
" id="DejaVuSans-74" transform="scale(0.015625)"/>
       <path d="M 603 3500 
L 1178 3500 
L 1178 0 
L 603 0 
L 603 3500 
z
M 603 4863 
L 1178 4863 
L 1178 4134 
L 603 4134 
L 603 4863 
z
" id="DejaVuSans-69" transform="scale(0.015625)"/>
       <path d="M 1959 3097 
Q 1497 3097 1228 2736 
Q 959 2375 959 1747 
Q 959 1119 1226 758 
Q 1494 397 1959 397 
Q 2419 397 2687 759 
Q 2956 1122 2956 1747 
Q 2956 2369 2687 2733 
Q 2419 3097 1959 3097 
z
M 1959 3584 
Q 2709 3584 3137 3096 
Q 3566 2609 3566 1747 
Q 3566 888 3137 398 
Q 2709 -91 1959 -91 
Q 1206 -91 779 398 
Q 353 888 353 1747 
Q 353 2609 779 3096 
Q 1206 3584 1959 3584 
z
" id="DejaVuSans-6f" transform="scale(0.015625)"/>
       <path d="M 2834 3397 
L 2834 2853 
Q 2591 2978 2328 3040 
Q 2066 3103 1784 3103 
Q 1356 3103 1142 2972 
Q 928 2841 928 2578 
Q 928 2378 1081 2264 
Q 1234 2150 1697 2047 
L 1894 2003 
Q 2506 1872 2764 1633 
Q 3022 1394 3022 966 
Q 3022 478 2636 193 
Q 2250 -91 1575 -91 
Q 1294 -91 989 -36 
Q 684 19 347 128 
L 347 722 
Q 666 556 975 473 
Q 1284 391 1588 391 
Q 1994 391 2212 530 
Q 2431 669 2431 922 
Q 2431 1156 2273 1281 
Q 2116 1406 1581 1522 
L 1381 1569 
Q 847 1681 609 1914 
Q 372 2147 372 2553 
Q 372 3047 722 3315 
Q 1072 3584 1716 3584 
Q 2034 3584 2315 3537 
Q 2597 3491 2834 3397 
z
" id="DejaVuSans-73" transform="scale(0.015625)"/>
      </defs>
      <use xlink:href="#DejaVuSans-47"/>
      <use x="77.490234" xlink:href="#DejaVuSans-65"/>
      <use x="139.013672" xlink:href="#DejaVuSans-6e"/>
      <use x="202.392578" xlink:href="#DejaVuSans-65"/>
      <use x="263.916016" xlink:href="#DejaVuSans-72"/>
      <use x="305.029297" xlink:href="#DejaVuSans-61"/>
      <use x="366.308594" xlink:href="#DejaVuSans-74"/>
      <use x="405.517578" xlink:href="#DejaVuSans-69"/>
      <use x="433.300781" xlink:href="#DejaVuSans-6f"/>
      <use x="494.482422" xlink:href="#DejaVuSans-6e"/>
      <use x="557.861328" xlink:href="#DejaVuSans-73"/>
     </g>
    </g>
   </g>
   <g id="matplotlib.axis_2">
    <g id="ytick_1">
     <g id="line2d_7">
      <defs>
       <path d="M 0 0 
L -3.5 0 
" id="m3e5fab4ca5" style="stroke:#000000;stroke-width:0.8;"/>
      </defs>
      <g>
       <use style="stroke:#000000;stroke-width:0.8;" x="57.6" xlink:href="#m3e5fab4ca5" y="307.584"/>
      </g>
     </g>
     <g id="text_8">
      <!-- 0 -->
      <g transform="translate(44.2375 311.383219)scale(0.1 -0.1)">
       <use xlink:href="#DejaVuSans-30"/>
      </g>
     </g>
    </g>
    <g id="ytick_2">
     <g id="line2d_8">
      <g>
       <use style="stroke:#000000;stroke-width:0.8;" x="57.6" xlink:href="#m3e5fab4ca5" y="258.845538"/>
      </g>
     </g>
     <g id="text_9">
      <!-- 20 -->
      <g transform="translate(37.875 262.644757)scale(0.1 -0.1)">
       <use xlink:href="#DejaVuSans-32"/>
       <use x="63.623047" xlink:href="#DejaVuSans-30"/>
      </g>
     </g>
    </g>
    <g id="ytick_3">
     <g id="line2d_9">
      <g>
       <use style="stroke:#000000;stroke-width:0.8;" x="57.6" xlink:href="#m3e5fab4ca5" y="210.107077"/>
      </g>
     </g>
     <g id="text_10">
      <!-- 40 -->
      <g transform="translate(37.875 213.906296)scale(0.1 -0.1)">
       <use xlink:href="#DejaVuSans-34"/>
       <use x="63.623047" xlink:href="#DejaVuSans-30"/>
      </g>
     </g>
    </g>
    <g id="ytick_4">
     <g id="line2d_10">
      <g>
       <use style="stroke:#000000;stroke-width:0.8;" x="57.6" xlink:href="#m3e5fab4ca5" y="161.368615"/>
      </g>
     </g>
     <g id="text_11">
      <!-- 60 -->
      <g transform="translate(37.875 165.167834)scale(0.1 -0.1)">
       <use xlink:href="#DejaVuSans-36"/>
       <use x="63.623047" xlink:href="#DejaVuSans-30"/>
      </g>
     </g>
    </g>
    <g id="ytick_5">
     <g id="line2d_11">
      <g>
       <use style="stroke:#000000;stroke-width:0.8;" x="57.6" xlink:href="#m3e5fab4ca5" y="112.630154"/>
      </g>
     </g>
     <g id="text_12">
      <!-- 80 -->
      <g transform="translate(37.875 116.429373)scale(0.1 -0.1)">
       <use xlink:href="#DejaVuSans-38"/>
       <use x="63.623047" xlink:href="#DejaVuSans-30"/>
      </g>
     </g>
    </g>
    <g id="ytick_6">
     <g id="line2d_12">
      <g>
       <use style="stroke:#000000;stroke-width:0.8;" x="57.6" xlink:href="#m3e5fab4ca5" y="63.891692"/>
      </g>
     </g>
     <g id="text_13">
      <!-- 100 -->
      <g transform="translate(31.5125 67.690911)scale(0.1 -0.1)">
       <use xlink:href="#DejaVuSans-31"/>
       <use x="63.623047" xlink:href="#DejaVuSans-30"/>
       <use x="127.246094" xlink:href="#DejaVuSans-30"/>
      </g>
     </g>
    </g>
    <g id="text_14">
     <!-- Size per Species -->
     <g transform="translate(25.432812 215.520969)rotate(-90)scale(0.1 -0.1)">
      <defs>
       <path d="M 3425 4513 
L 3425 3897 
Q 3066 4069 2747 4153 
Q 2428 4238 2131 4238 
Q 1616 4238 1336 4038 
Q 1056 3838 1056 3469 
Q 1056 3159 1242 3001 
Q 1428 2844 1947 2747 
L 2328 2669 
Q 3034 2534 3370 2195 
Q 3706 1856 3706 1288 
Q 3706 609 3251 259 
Q 2797 -91 1919 -91 
Q 1588 -91 1214 -16 
Q 841 59 441 206 
L 441 856 
Q 825 641 1194 531 
Q 1563 422 1919 422 
Q 2459 422 2753 634 
Q 3047 847 3047 1241 
Q 3047 1584 2836 1778 
Q 2625 1972 2144 2069 
L 1759 2144 
Q 1053 2284 737 2584 
Q 422 2884 422 3419 
Q 422 4038 858 4394 
Q 1294 4750 2059 4750 
Q 2388 4750 2728 4690 
Q 3069 4631 3425 4513 
z
" id="DejaVuSans-53" transform="scale(0.015625)"/>
       <path d="M 353 3500 
L 3084 3500 
L 3084 2975 
L 922 459 
L 3084 459 
L 3084 0 
L 275 0 
L 275 525 
L 2438 3041 
L 353 3041 
L 353 3500 
z
" id="DejaVuSans-7a" transform="scale(0.015625)"/>
       <path id="DejaVuSans-20" transform="scale(0.015625)"/>
       <path d="M 1159 525 
L 1159 -1331 
L 581 -1331 
L 581 3500 
L 1159 3500 
L 1159 2969 
Q 1341 3281 1617 3432 
Q 1894 3584 2278 3584 
Q 2916 3584 3314 3078 
Q 3713 2572 3713 1747 
Q 3713 922 3314 415 
Q 2916 -91 2278 -91 
Q 1894 -91 1617 61 
Q 1341 213 1159 525 
z
M 3116 1747 
Q 3116 2381 2855 2742 
Q 2594 3103 2138 3103 
Q 1681 3103 1420 2742 
Q 1159 2381 1159 1747 
Q 1159 1113 1420 752 
Q 1681 391 2138 391 
Q 2594 391 2855 752 
Q 3116 1113 3116 1747 
z
" id="DejaVuSans-70" transform="scale(0.015625)"/>
       <path d="M 3122 3366 
L 3122 2828 
Q 2878 2963 2633 3030 
Q 2388 3097 2138 3097 
Q 1578 3097 1268 2742 
Q 959 2388 959 1747 
Q 959 1106 1268 751 
Q 1578 397 2138 397 
Q 2388 397 2633 464 
Q 2878 531 3122 666 
L 3122 134 
Q 2881 22 2623 -34 
Q 2366 -91 2075 -91 
Q 1284 -91 818 406 
Q 353 903 353 1747 
Q 353 2603 823 3093 
Q 1294 3584 2113 3584 
Q 2378 3584 2631 3529 
Q 2884 3475 3122 3366 
z
" id="DejaVuSans-63" transform="scale(0.015625)"/>
      </defs>
      <use xlink:href="#DejaVuSans-53"/>
      <use x="63.476562" xlink:href="#DejaVuSans-69"/>
      <use x="91.259766" xlink:href="#DejaVuSans-7a"/>
      <use x="143.75" xlink:href="#DejaVuSans-65"/>
      <use x="205.273438" xlink:href="#DejaVuSans-20"/>
      <use x="237.060547" xlink:href="#DejaVuSans-70"/>
      <use x="300.537109" xlink:href="#DejaVuSans-65"/>
      <use x="362.060547" xlink:href="#DejaVuSans-72"/>
      <use x="403.173828" xlink:href="#DejaVuSans-20"/>
      <use x="434.960938" xlink:href="#DejaVuSans-53"/>
      <use x="498.4375" xlink:href="#DejaVuSans-70"/>
      <use x="561.914062" xlink:href="#DejaVuSans-65"/>
      <use x="623.4375" xlink:href="#DejaVuSans-63"/>
      <use x="678.417969" xlink:href="#DejaVuSans-69"/>
      <use x="706.201172" xlink:href="#DejaVuSans-65"/>
      <use x="767.724609" xlink:href="#DejaVuSans-73"/>
     </g>
    </g>
   </g>
   <g id="patch_3">
    <path d="M 57.6 307.584 
L 57.6 41.472 
" style="fill:none;stroke:#000000;stroke-linecap:square;stroke-linejoin:miter;stroke-width:0.8;"/>
   </g>
   <g id="patch_4">
    <path d="M 414.72 307.584 
L 414.72 41.472 
" style="fill:none;stroke:#000000;stroke-linecap:square;stroke-linejoin:miter;stroke-width:0.8;"/>
   </g>
   <g id="patch_5">
    <path d="M 57.6 307.584 
L 414.72 307.584 
" style="fill:none;stroke:#000000;stroke-linecap:square;stroke-linejoin:miter;stroke-width:0.8;"/>
   </g>
   <g id="patch_6">
    <path d="M 57.6 41.472 
L 414.72 41.472 
" style="fill:none;stroke:#000000;stroke-linecap:square;stroke-linejoin:miter;stroke-width:0.8;"/>
   </g>
   <g id="text_15">
    <!-- Speciation -->
    <g transform="translate(204.714375 35.472)scale(0.12 -0.12)">
     <use xlink:href="#DejaVuSans-53"/>
     <use x="63.476562" xlink:href="#DejaVuSans-70"/>
     <use x="126.953125" xlink:href="#DejaVuSans-65"/>
     <use x="188.476562" xlink:href="#DejaVuSans-63"/>
     <use x="243.457031" xlink:href="#DejaVuSans-69"/>
     <use x="271.240234" xlink:href="#DejaVuSans-61"/>
     <use x="332.519531" xlink:href="#DejaVuSans-74"/>
     <use x="371.728516" xlink:href="#DejaVuSans-69"/>
     <use x="399.511719" xlink:href="#DejaVuSans-6f"/>
     <use x="460.693359" xlink:href="#DejaVuSans-6e"/>
    </g>
   </g>
  </g>
 </g>
 <defs>
  <clipPath id="paff239625c">
   <rect height="266.112" width="357.12" x="57.6" y="41.472"/>
  </clipPath>
 </defs>
</svg>
